<svg width="33" height="32" viewBox="0 0 33 32" fill="none" xmlns="http://www.w3.org/2000/svg">
<path d="M8.16667 22.6667C8.87391 22.6667 9.55219 22.9476 10.0523 23.4477C10.5524 23.9478 10.8333 24.6261 10.8333 25.3333C10.8333 26.0406 10.5524 26.7189 10.0523 27.219C9.55219 27.719 8.87391 28 8.16667 28C7.45942 28 6.78115 27.719 6.28105 27.219C5.78095 26.7189 5.5 26.0406 5.5 25.3333C5.5 24.6261 5.78095 23.9478 6.28105 23.4477C6.78115 22.9476 7.45942 22.6667 8.16667 22.6667ZM8.16667 22.6667H22.8333M8.16667 22.6667V4H5.5M22.8333 22.6667C23.5406 22.6667 24.2189 22.9476 24.7189 23.4477C25.219 23.9478 25.5 24.6261 25.5 25.3333C25.5 26.0406 25.219 26.7189 24.7189 27.219C24.2189 27.719 23.5406 28 22.8333 28C22.1261 28 21.4478 27.719 20.9477 27.219C20.4476 26.7189 20.1667 26.0406 20.1667 25.3333C20.1667 24.6261 20.4476 23.9478 20.9477 23.4477C21.4478 22.9476 22.1261 22.6667 22.8333 22.6667ZM8.16667 6.66667L26.8333 8L25.5 17.3333H8.16667" stroke="white" stroke-width="2" stroke-linecap="round" stroke-linejoin="round"/>
</svg>
