<svg width="33" height="32" viewBox="0 0 33 32" fill="none" xmlns="http://www.w3.org/2000/svg">
<path d="M19.4998 5.33301H27.4998V13.333H19.4998V5.33301Z" stroke="white" stroke-width="2" stroke-linecap="round" stroke-linejoin="round"/>
<path d="M6.1665 18.6663H14.1665V26.6663H6.1665V18.6663Z" stroke="white" stroke-width="2" stroke-linecap="round" stroke-linejoin="round"/>
<path d="M19.4998 22.6663C19.4998 23.7272 19.9213 24.7446 20.6714 25.4948C21.4216 26.2449 22.439 26.6663 23.4998 26.6663C24.5607 26.6663 25.5781 26.2449 26.3283 25.4948C27.0784 24.7446 27.4998 23.7272 27.4998 22.6663C27.4998 21.6055 27.0784 20.5881 26.3283 19.8379C25.5781 19.0878 24.5607 18.6663 23.4998 18.6663C22.439 18.6663 21.4216 19.0878 20.6714 19.8379C19.9213 20.5881 19.4998 21.6055 19.4998 22.6663Z" stroke="white" stroke-width="2" stroke-linecap="round" stroke-linejoin="round"/>
<path d="M6.1665 9.33301C6.1665 9.8583 6.26997 10.3784 6.47099 10.8637C6.672 11.349 6.96664 11.79 7.33808 12.1614C7.70951 12.5329 8.15047 12.8275 8.63577 13.0285C9.12107 13.2295 9.64122 13.333 10.1665 13.333C10.6918 13.333 11.2119 13.2295 11.6972 13.0285C12.1825 12.8275 12.6235 12.5329 12.9949 12.1614C13.3664 11.79 13.661 11.349 13.862 10.8637C14.063 10.3784 14.1665 9.8583 14.1665 9.33301C14.1665 8.80772 14.063 8.28758 13.862 7.80227C13.661 7.31697 13.3664 6.87602 12.9949 6.50458C12.6235 6.13315 12.1825 5.83851 11.6972 5.63749C11.2119 5.43647 10.6918 5.33301 10.1665 5.33301C9.64122 5.33301 9.12107 5.43647 8.63577 5.63749C8.15047 5.83851 7.70951 6.13315 7.33808 6.50458C6.96664 6.87602 6.672 7.31697 6.47099 7.80227C6.26997 8.28758 6.1665 8.80772 6.1665 9.33301Z" stroke="white" stroke-width="2" stroke-linecap="round" stroke-linejoin="round"/>
</svg>
