<svg width="22" height="22" viewBox="0 0 22 22" fill="none" xmlns="http://www.w3.org/2000/svg">
<path d="M11.0825 20.5936C16.2933 20.5936 20.5952 16.2857 20.5952 11.0825C20.5952 5.87173 16.2857 1.57143 11.0749 1.57143C5.87338 1.57143 1.57141 5.87173 1.57141 11.0825C1.57141 16.2857 5.88093 20.5936 11.0825 20.5936Z" fill="#34C759"/>
<path d="M10.0562 15.6281C9.71 15.6281 9.42566 15.4776 9.16804 15.1438L6.91163 12.399C6.747 12.1883 6.66247 11.9758 6.66247 11.7425C6.66247 11.2734 7.03445 10.893 7.50183 10.893C7.79371 10.893 8.0145 10.9908 8.25133 11.2946L10.026 13.5479L13.8333 7.45194C14.0332 7.13759 14.2941 6.97204 14.5766 6.97204C15.0364 6.97204 15.4587 7.29467 15.4587 7.77715C15.4587 7.98966 15.3473 8.2147 15.2186 8.42628L10.9109 15.1372C10.6993 15.4592 10.4007 15.6281 10.0562 15.6281Z" fill="white"/>
</svg>
