<svg width="22" height="22" viewBox="0 0 22 22" fill="none" xmlns="http://www.w3.org/2000/svg">
<path d="M11.0825 20.5936C16.2933 20.5936 20.5952 16.2857 20.5952 11.0825C20.5952 5.87173 16.2857 1.57143 11.0749 1.57143C5.87338 1.57143 1.57141 5.87173 1.57141 11.0825C1.57141 16.2857 5.88093 20.5936 11.0825 20.5936Z" fill="#FF3B30"/>
<path fill-rule="evenodd" clip-rule="evenodd" d="M6.51583 6.51584C6.82267 6.209 7.32015 6.209 7.62699 6.51584L11 9.88883L14.373 6.51584C14.6798 6.209 15.1773 6.209 15.4841 6.51584C15.791 6.82268 15.791 7.32017 15.4841 7.62701L12.1111 11L15.4841 14.373C15.791 14.6798 15.791 15.1773 15.4841 15.4842C15.1773 15.791 14.6798 15.791 14.373 15.4842L11 12.1112L7.62699 15.4842C7.32015 15.791 6.82267 15.791 6.51583 15.4842C6.20899 15.1773 6.20899 14.6798 6.51583 14.373L9.88881 11L6.51583 7.62701C6.20899 7.32017 6.20899 6.82268 6.51583 6.51584Z" fill="white"/>
</svg>
