<svg width="22" height="22" viewBox="0 0 22 22" fill="none" xmlns="http://www.w3.org/2000/svg">
<path d="M4.18618 20.0272H18.4198C20.0266 20.0272 21.0329 18.8728 21.0329 17.4259C21.0329 16.9799 20.9057 16.5155 20.6672 16.0954L13.5404 3.66997C13.04 2.79561 12.1857 2.35715 11.3038 2.35715C10.4203 2.35715 9.55348 2.79893 9.064 3.66997L1.93714 16.0971C1.68522 16.523 1.57141 16.9799 1.57141 17.4259C1.57141 18.8728 2.5778 20.0272 4.18618 20.0272Z" fill="#FFCC00"/>
<path d="M11.313 13.7208C10.7729 13.7208 10.4661 13.4131 10.4486 12.8671L10.319 8.22936C10.3015 7.66678 10.7086 7.27215 11.3038 7.27215C11.8839 7.27215 12.3137 7.67434 12.2963 8.23691L12.1514 12.8637C12.134 13.4206 11.8288 13.7208 11.313 13.7208ZM11.313 16.8932C10.6959 16.8932 10.1824 16.4412 10.1824 15.8417C10.1824 15.2362 10.6884 14.7842 11.313 14.7842C11.9318 14.7842 12.4329 15.2303 12.4329 15.8417C12.4329 16.4488 11.9226 16.8932 11.313 16.8932Z" fill="white"/>
</svg>
