<svg width="1319" height="417" viewBox="0 0 1319 417" fill="none" xmlns="http://www.w3.org/2000/svg">
<rect width="1319" height="417" rx="30" fill="#0D1E31"/>
<path d="M907.238 58H718C715.791 58 714 59.7909 714 62V184.706C714 186.915 715.791 188.706 718 188.706H907.238C909.447 188.706 911.238 186.915 911.238 184.706V62C911.238 59.7909 909.447 58 907.238 58Z" fill="#F2F2F7"/>
<path d="M758.298 135.736C751.459 135.738 744.774 133.712 739.086 129.915C733.399 126.117 728.966 120.718 726.348 114.401C723.729 108.083 723.043 101.131 724.376 94.4237C725.709 87.7163 729.001 81.5548 733.836 76.7185C738.67 71.8822 744.831 68.5882 751.538 67.2533C758.245 65.9184 765.197 66.6025 771.515 69.219C777.833 71.8355 783.234 76.2669 787.033 81.9528C790.833 87.6387 792.861 94.3237 792.861 101.162C792.852 110.327 789.208 119.115 782.729 125.597C776.249 132.078 767.463 135.725 758.298 135.736ZM758.298 68.1963C751.777 68.1942 745.402 70.1258 739.98 73.7469C734.557 77.3679 730.33 82.5157 727.833 88.5393C725.337 94.5628 724.682 101.191 725.953 107.587C727.224 113.982 730.363 119.857 734.973 124.469C739.583 129.08 745.457 132.221 751.852 133.494C758.247 134.767 764.876 134.115 770.9 131.62C776.924 129.125 782.073 124.9 785.696 119.478C789.319 114.057 791.253 107.683 791.253 101.162C791.241 92.4244 787.766 84.0476 781.589 77.8681C775.411 71.6886 767.035 68.2105 758.298 68.1963Z" fill="#1E1E21"/>
<path d="M765.672 78.1868H750.932V124.135H765.672V78.1868Z" fill="#FF9500"/>
<path d="M781.273 93.7955H735.324V108.536H781.273V93.7955Z" fill="#FF9500"/>
<path d="M937.096 115.891H807.269C807.056 115.891 806.851 115.806 806.7 115.655C806.549 115.505 806.465 115.3 806.465 115.087C806.465 114.874 806.549 114.669 806.7 114.518C806.851 114.368 807.056 114.283 807.269 114.283H937.096C937.309 114.283 937.513 114.368 937.664 114.518C937.815 114.669 937.9 114.874 937.9 115.087C937.9 115.3 937.815 115.505 937.664 115.655C937.513 115.806 937.309 115.891 937.096 115.891Z" fill="#1E1E21"/>
<path d="M937.096 134H807.269C807.056 134 806.851 133.916 806.7 133.765C806.549 133.614 806.465 133.41 806.465 133.196C806.465 132.983 806.549 132.778 806.7 132.628C806.851 132.477 807.056 132.392 807.269 132.392H937.096C937.309 132.392 937.513 132.477 937.664 132.628C937.815 132.778 937.9 132.983 937.9 133.196C937.9 133.41 937.815 133.614 937.664 133.765C937.513 133.916 937.309 134 937.096 134Z" fill="#1E1E21"/>
<path d="M937.096 79.6657H807.269C807.056 79.6657 806.851 79.581 806.7 79.4302C806.549 79.2794 806.465 79.0749 806.465 78.8617C806.465 78.6484 806.549 78.4439 806.7 78.2931C806.851 78.1423 807.056 78.0576 807.269 78.0576H937.096C937.309 78.0576 937.513 78.1423 937.664 78.2931C937.815 78.4439 937.9 78.6484 937.9 78.8617C937.9 79.0749 937.815 79.2794 937.664 79.4302C937.513 79.581 937.309 79.6657 937.096 79.6657Z" fill="#1E1E21"/>
<path d="M937.096 97.7639H807.269C807.056 97.7639 806.851 97.6792 806.7 97.5284C806.549 97.3776 806.465 97.1731 806.465 96.9599C806.465 96.7466 806.549 96.5421 806.7 96.3913C806.851 96.2405 807.056 96.1558 807.269 96.1558H937.096C937.309 96.1558 937.513 96.2405 937.664 96.3913C937.815 96.5421 937.9 96.7466 937.9 96.9599C937.9 97.1731 937.815 97.3776 937.664 97.5284C937.513 97.6792 937.309 97.7639 937.096 97.7639Z" fill="#1E1E21"/>
<path d="M856.972 152.105H727.156C726.942 152.105 726.738 152.02 726.587 151.87C726.436 151.719 726.352 151.514 726.352 151.301C726.352 151.088 726.436 150.883 726.587 150.733C726.738 150.582 726.942 150.497 727.156 150.497H856.972C857.185 150.497 857.389 150.582 857.54 150.733C857.691 150.883 857.776 151.088 857.776 151.301C857.776 151.514 857.691 151.719 857.54 151.87C857.389 152.02 857.185 152.105 856.972 152.105Z" fill="#1E1E21"/>
<path d="M856.972 170.214H727.156C726.942 170.214 726.738 170.13 726.587 169.979C726.436 169.828 726.352 169.624 726.352 169.41C726.352 169.197 726.436 168.993 726.587 168.842C726.738 168.691 726.942 168.606 727.156 168.606H856.972C857.185 168.606 857.389 168.691 857.54 168.842C857.691 168.993 857.776 169.197 857.776 169.41C857.776 169.624 857.691 169.828 857.54 169.979C857.389 170.13 857.185 170.214 856.972 170.214Z" fill="#1E1E21"/>
<path d="M1102.87 89.0586C1103.59 87.5247 1105.77 87.5249 1106.49 89.0588L1130.07 139.326C1130.56 140.372 1131.84 140.786 1132.85 140.228L1181.49 113.426C1182.98 112.609 1184.74 113.892 1184.42 115.556L1173.93 170.11C1173.71 171.246 1174.5 172.329 1175.65 172.472L1230.76 179.325C1232.45 179.535 1233.12 181.612 1231.88 182.77L1191.31 220.738C1190.47 221.529 1190.47 222.869 1191.31 223.659L1231.88 261.617C1233.12 262.775 1232.45 264.853 1230.76 265.062L1175.65 271.925C1174.5 272.068 1173.71 273.152 1173.93 274.287L1184.42 328.831C1184.74 330.495 1182.98 331.778 1181.49 330.96L1132.85 304.159C1131.84 303.601 1130.56 304.015 1130.07 305.061L1106.49 355.328C1105.77 356.862 1103.59 356.862 1102.87 355.328L1079.28 305.061C1078.79 304.015 1077.52 303.601 1076.5 304.159L1027.87 330.96C1026.39 331.778 1024.62 330.495 1024.94 328.83L1035.43 274.287C1035.65 273.152 1034.86 272.068 1033.71 271.925L978.598 265.062C976.916 264.852 976.241 262.776 977.479 261.617L1018.04 223.659C1018.89 222.869 1018.89 221.529 1018.04 220.738L977.478 182.77C976.24 181.611 976.915 179.534 978.598 179.325L1033.71 172.462C1034.86 172.319 1035.65 171.235 1035.43 170.099L1024.94 115.556C1024.62 113.892 1026.39 112.609 1027.87 113.427L1076.5 140.228C1077.52 140.786 1078.79 140.372 1079.28 139.326L1102.87 89.0586Z" fill="#0E3E75"/>
<path d="M1103.13 296.094L864.442 295.976C848.672 295.976 837.222 283.176 838.895 267.395L857.12 94.7931C858.792 79.0123 872.933 66.2226 888.713 66.2333L1127.39 66.3406C1143.17 66.3406 1154.61 79.2053 1152.94 94.9324L1134.72 267.534C1133 283.326 1118.91 296.094 1103.13 296.094Z" fill="white"/>
<path d="M1096.84 283.489L859.231 283.371C847.063 283.371 838.25 273.497 839.537 261.34L857.762 88.2984C859.048 76.1305 869.94 66.2783 882.108 66.289L1119.72 66.3962C1131.88 66.3962 1140.7 76.2699 1139.41 88.4271L1121.21 261.469C1119.9 273.637 1109 283.489 1096.84 283.489Z" fill="#0E3E75"/>
<path d="M1090.43 273.687L857.336 273.579C856.213 273.603 855.098 273.383 854.068 272.936C853.037 272.488 852.116 271.823 851.366 270.986C850.617 270.149 850.057 269.16 849.726 268.087C849.394 267.013 849.299 265.881 849.446 264.767L868.443 84.8964C868.736 82.5013 869.883 80.292 871.673 78.6736C873.462 77.0551 875.776 76.1358 878.188 76.084L1111.3 76.202C1112.42 76.1782 1113.53 76.3976 1114.56 76.8453C1115.59 77.293 1116.52 77.9583 1117.26 78.7955C1118.01 79.6327 1118.57 80.622 1118.9 81.6955C1119.23 82.7689 1119.33 83.9011 1119.18 85.0143L1100.18 264.906C1099.88 267.297 1098.74 269.502 1096.95 271.114C1095.16 272.727 1092.84 273.64 1090.43 273.687Z" fill="#1E1E21"/>
<path d="M1113.59 173.076C1113.23 173.855 1113.05 174.7 1113.04 175.556C1113.04 176.412 1113.22 177.26 1113.56 178.042C1113.91 178.825 1114.42 179.524 1115.06 180.095C1115.7 180.665 1116.45 181.094 1117.27 181.352C1119.03 181.795 1120.89 181.577 1122.5 180.739C1124.11 179.902 1125.36 178.503 1126.01 176.807C1126.37 176.029 1126.56 175.184 1126.56 174.328C1126.56 173.473 1126.39 172.626 1126.04 171.845C1125.69 171.063 1125.18 170.364 1124.54 169.795C1123.91 169.225 1123.15 168.798 1122.34 168.541C1120.58 168.095 1118.71 168.31 1117.1 169.146C1115.49 169.982 1114.24 171.38 1113.59 173.076Z" fill="#1E1E21"/>
<path d="M1136.63 188.705C1137.07 188.693 1137.49 188.524 1137.82 188.227C1138.15 187.93 1138.36 187.525 1138.42 187.086L1140.98 162.825C1141 162.621 1140.99 162.414 1140.93 162.217C1140.86 162.02 1140.76 161.839 1140.62 161.686C1140.49 161.532 1140.32 161.41 1140.13 161.327C1139.94 161.245 1139.74 161.203 1139.53 161.207C1139.09 161.214 1138.66 161.38 1138.33 161.676C1138.01 161.971 1137.79 162.376 1137.74 162.815L1135.15 187.086C1135.12 187.294 1135.14 187.505 1135.2 187.705C1135.26 187.904 1135.36 188.088 1135.51 188.243C1135.65 188.397 1135.82 188.519 1136.01 188.599C1136.21 188.679 1136.42 188.715 1136.63 188.705Z" fill="#1E1E21"/>
<path d="M1135.79 195.096C1135.58 195.102 1135.38 195.062 1135.19 194.98C1135 194.898 1134.83 194.775 1134.69 194.621C1134.56 194.467 1134.45 194.285 1134.39 194.088C1134.33 193.891 1134.32 193.682 1134.34 193.478C1134.39 193.038 1134.6 192.631 1134.93 192.333C1135.26 192.035 1135.68 191.867 1136.12 191.859C1136.33 191.854 1136.53 191.894 1136.72 191.976C1136.91 192.058 1137.08 192.18 1137.22 192.334C1137.36 192.488 1137.46 192.67 1137.52 192.867C1137.58 193.065 1137.6 193.273 1137.57 193.478C1137.52 193.917 1137.31 194.322 1136.98 194.62C1136.66 194.917 1136.23 195.087 1135.79 195.096Z" fill="#1E1E21"/>
<path d="M1140.37 154.765C1140.58 154.76 1140.78 154.8 1140.97 154.882C1141.16 154.964 1141.33 155.086 1141.47 155.24C1141.61 155.394 1141.71 155.576 1141.77 155.774C1141.83 155.971 1141.85 156.179 1141.82 156.384C1141.76 156.823 1141.55 157.228 1141.22 157.525C1140.89 157.821 1140.47 157.991 1140.03 158.003C1139.82 158.006 1139.62 157.965 1139.43 157.882C1139.24 157.8 1139.07 157.677 1138.93 157.524C1138.8 157.37 1138.69 157.189 1138.63 156.992C1138.57 156.796 1138.55 156.588 1138.58 156.384C1138.63 155.944 1138.84 155.538 1139.17 155.241C1139.5 154.944 1139.93 154.775 1140.37 154.765Z" fill="#1E1E21"/>
<path d="M1078.26 240.347H994.836C993.059 240.381 991.296 240.033 989.667 239.324C988.037 238.616 986.58 237.564 985.394 236.242C984.207 234.919 983.32 233.356 982.792 231.659C982.264 229.963 982.109 228.172 982.336 226.41L994.128 114.272C994.591 110.524 996.387 107.067 999.188 104.534C1001.99 102 1005.61 100.56 1009.38 100.475H1092.81C1094.59 100.44 1096.35 100.789 1097.98 101.497C1099.61 102.206 1101.07 103.257 1102.25 104.58C1103.44 105.903 1104.33 107.466 1104.86 109.162C1105.38 110.859 1105.54 112.649 1105.31 114.412L1093.52 226.549C1093.06 230.299 1091.26 233.757 1088.46 236.29C1085.66 238.824 1082.04 240.264 1078.26 240.347ZM1009.43 102.051C1006.05 102.128 1002.82 103.415 1000.31 105.678C997.806 107.941 996.197 111.029 995.779 114.379L983.987 226.517C983.795 228.068 983.935 229.643 984.397 231.136C984.859 232.629 985.633 234.007 986.667 235.179C987.708 236.318 988.98 237.223 990.397 237.833C991.815 238.443 993.346 238.744 994.889 238.717H1078.32C1081.68 238.631 1084.9 237.342 1087.4 235.084C1089.9 232.826 1091.5 229.749 1091.92 226.41L1103.71 114.272C1103.91 112.723 1103.77 111.15 1103.3 109.658C1102.84 108.167 1102.07 106.791 1101.03 105.621C1099.99 104.48 1098.72 103.574 1097.3 102.962C1095.89 102.35 1094.36 102.047 1092.81 102.072H1009.38L1009.43 102.051Z" fill="white"/>
<path d="M1061.98 226.666H1072.81C1075.2 226.609 1077.49 225.696 1079.26 224.092C1081.03 222.488 1082.16 220.3 1082.46 217.929C1082.6 216.823 1082.51 215.698 1082.18 214.632C1081.85 213.566 1081.3 212.583 1080.56 211.751C1079.81 210.92 1078.9 210.258 1077.88 209.813C1076.85 209.367 1075.75 209.148 1074.63 209.17H1063.8L1061.98 226.666Z" fill="#007AFF"/>
<path d="M1063.82 209.171H1053C1050.61 209.23 1048.32 210.146 1046.55 211.752C1044.77 213.357 1043.64 215.546 1043.35 217.919C1043.2 219.024 1043.29 220.148 1043.62 221.214C1043.95 222.279 1044.5 223.261 1045.25 224.093C1045.99 224.924 1046.91 225.584 1047.93 226.028C1048.95 226.473 1050.06 226.69 1051.17 226.667H1062L1063.82 209.171Z" fill="white"/>
<path d="M1015.26 226.648H1026.07C1028.46 226.594 1030.75 225.681 1032.53 224.076C1034.3 222.472 1035.43 220.283 1035.72 217.911C1035.87 216.806 1035.78 215.681 1035.45 214.615C1035.13 213.549 1034.57 212.566 1033.83 211.734C1033.09 210.902 1032.17 210.24 1031.15 209.795C1030.13 209.349 1029.02 209.13 1027.91 209.152H1017.08L1015.26 226.648Z" fill="#007AFF"/>
<path d="M1017.1 209.151H1006.28C1003.89 209.21 1001.6 210.126 999.826 211.731C998.055 213.337 996.92 215.526 996.628 217.899C996.479 219.004 996.571 220.129 996.899 221.196C997.226 222.262 997.781 223.245 998.525 224.076C999.268 224.908 1000.18 225.568 1001.21 226.012C1002.23 226.456 1003.34 226.672 1004.45 226.647H1015.28L1017.1 209.151Z" fill="white"/>
<path d="M1064.64 195.086H1075.47C1077.86 195.031 1080.15 194.117 1081.92 192.51C1083.7 190.904 1084.83 188.712 1085.12 186.338C1085.27 185.232 1085.17 184.108 1084.85 183.041C1084.52 181.975 1083.96 180.992 1083.22 180.16C1082.48 179.329 1081.56 178.668 1080.54 178.225C1079.51 177.781 1078.41 177.564 1077.29 177.59H1066.54L1064.64 195.086Z" fill="#007AFF"/>
<path d="M1066.54 177.59H1055.71C1053.32 177.642 1051.03 178.554 1049.26 180.159C1047.48 181.764 1046.35 183.954 1046.06 186.327C1045.91 187.434 1046 188.559 1046.33 189.626C1046.66 190.693 1047.21 191.676 1047.96 192.508C1048.7 193.341 1049.62 194.002 1050.64 194.447C1051.66 194.892 1052.77 195.11 1053.89 195.086H1064.7L1066.54 177.59Z" fill="white"/>
<path d="M1017.92 195.064H1028.75C1031.14 195.004 1033.42 194.089 1035.2 192.483C1036.97 190.877 1038.1 188.688 1038.39 186.316C1038.54 185.21 1038.45 184.085 1038.12 183.019C1037.8 181.952 1037.24 180.969 1036.5 180.138C1035.75 179.307 1034.84 178.646 1033.81 178.202C1032.79 177.759 1031.68 177.542 1030.57 177.568H1019.74L1017.92 195.064Z" fill="#007AFF"/>
<path d="M1019.76 177.566H1008.95C1006.56 177.618 1004.26 178.53 1002.49 180.135C1000.72 181.74 999.586 183.93 999.298 186.303C999.149 187.408 999.241 188.532 999.568 189.599C999.895 190.665 1000.45 191.648 1001.19 192.48C1001.93 193.312 1002.85 193.973 1003.87 194.419C1004.89 194.865 1006 195.084 1007.11 195.062H1017.94L1019.76 177.566Z" fill="white"/>
<path d="M1067.97 163.512H1078.8C1081.19 163.457 1083.48 162.543 1085.26 160.936C1087.03 159.329 1088.16 157.138 1088.45 154.764C1088.6 153.659 1088.5 152.534 1088.17 151.469C1087.85 150.403 1087.29 149.421 1086.55 148.59C1085.8 147.759 1084.89 147.099 1083.87 146.654C1082.84 146.21 1081.74 145.992 1080.62 146.016H1069.81L1067.97 163.512Z" fill="#007AFF"/>
<path d="M1069.83 146.005H1059.03C1056.64 146.06 1054.35 146.974 1052.58 148.581C1050.8 150.187 1049.67 152.379 1049.38 154.753C1049.23 155.858 1049.33 156.983 1049.66 158.048C1049.98 159.114 1050.54 160.096 1051.28 160.927C1052.03 161.758 1052.94 162.418 1053.96 162.863C1054.99 163.307 1056.09 163.525 1057.21 163.501H1068.03L1069.83 146.005Z" fill="white"/>
<path d="M1021.25 163.492H1032.08C1034.47 163.433 1036.76 162.517 1038.53 160.911C1040.3 159.305 1041.44 157.116 1041.73 154.744C1041.88 153.638 1041.78 152.514 1041.45 151.449C1041.13 150.383 1040.57 149.401 1039.83 148.57C1039.08 147.739 1038.17 147.079 1037.15 146.634C1036.12 146.19 1035.02 145.972 1033.9 145.996H1023.07L1021.25 163.492Z" fill="#007AFF"/>
<path d="M1023.1 146.005H1012.28C1009.89 146.06 1007.6 146.974 1005.83 148.581C1004.05 150.187 1002.92 152.379 1002.63 154.753C1002.48 155.858 1002.57 156.982 1002.9 158.047C1003.23 159.113 1003.78 160.095 1004.53 160.927C1005.27 161.758 1006.18 162.419 1007.2 162.863C1008.23 163.307 1009.33 163.525 1010.45 163.501H1021.27L1023.1 146.005Z" fill="white"/>
<path d="M1070.57 131.927H1081.4C1083.79 131.872 1086.08 130.96 1087.85 129.355C1089.62 127.751 1090.75 125.562 1091.04 123.19C1091.19 122.083 1091.1 120.958 1090.77 119.891C1090.45 118.824 1089.89 117.841 1089.15 117.009C1088.4 116.176 1087.49 115.515 1086.47 115.07C1085.44 114.625 1084.33 114.407 1083.22 114.431H1072.39L1070.57 131.927Z" fill="#007AFF"/>
<path d="M1072.41 114.434H1061.59C1059.2 114.488 1056.91 115.403 1055.14 117.009C1053.37 118.616 1052.23 120.807 1051.94 123.182C1051.8 124.286 1051.89 125.41 1052.21 126.476C1052.54 127.542 1053.09 128.524 1053.84 129.355C1054.58 130.186 1055.49 130.847 1056.52 131.291C1057.54 131.736 1058.65 131.953 1059.76 131.93H1070.59L1072.41 114.434Z" fill="white"/>
<path d="M1023.85 131.909H1034.68C1037.06 131.852 1039.35 130.939 1041.12 129.335C1042.9 127.731 1044.03 125.543 1044.32 123.172C1044.47 122.066 1044.38 120.941 1044.05 119.875C1043.72 118.809 1043.17 117.826 1042.42 116.994C1041.68 116.162 1040.77 115.501 1039.74 115.056C1038.72 114.61 1037.61 114.391 1036.5 114.413H1025.67L1023.85 131.909Z" fill="#007AFF"/>
<path d="M1025.69 114.411H1014.86C1012.47 114.47 1010.18 115.386 1008.41 116.992C1006.64 118.598 1005.51 120.787 1005.21 123.159C1005.07 124.265 1005.16 125.389 1005.49 126.454C1005.82 127.52 1006.37 128.502 1007.12 129.333C1007.86 130.164 1008.77 130.824 1009.8 131.269C1010.82 131.713 1011.93 131.931 1013.04 131.907H1023.87L1025.69 114.411Z" fill="white"/>
<path d="M956.115 239.983L877.468 239.908C875.651 239.946 873.847 239.59 872.18 238.864C870.513 238.139 869.023 237.062 867.812 235.706C866.601 234.35 865.698 232.749 865.164 231.011C864.631 229.273 864.48 227.44 864.721 225.639C865.198 221.766 867.054 218.194 869.951 215.579C872.848 212.964 876.59 211.481 880.491 211.402L959.138 211.477C960.955 211.437 962.759 211.792 964.425 212.516C966.092 213.24 967.582 214.317 968.794 215.671C970.005 217.026 970.908 218.627 971.442 220.365C971.975 222.102 972.126 223.934 971.885 225.735C971.408 229.609 969.552 233.182 966.656 235.799C963.759 238.416 960.017 239.901 956.115 239.983Z" fill="#63AFF7"/>
<path d="M974.65 190.239L869.652 190.142C869.438 190.142 869.234 190.057 869.083 189.907C868.932 189.756 868.848 189.551 868.848 189.338C868.848 189.125 868.932 188.92 869.083 188.77C869.234 188.619 869.438 188.534 869.652 188.534L974.639 188.631C974.852 188.631 975.057 188.715 975.207 188.866C975.358 189.017 975.443 189.221 975.443 189.435C975.443 189.648 975.358 189.852 975.207 190.003C975.057 190.154 974.852 190.239 974.639 190.239H974.65Z" fill="white"/>
<path d="M976.987 168.186L871.99 168.089C871.776 168.089 871.572 168.005 871.421 167.854C871.27 167.703 871.186 167.499 871.186 167.285C871.186 167.072 871.27 166.868 871.421 166.717C871.572 166.566 871.776 166.481 871.99 166.481L976.977 166.578C977.19 166.578 977.394 166.663 977.545 166.813C977.696 166.964 977.781 167.169 977.781 167.382C977.781 167.595 977.696 167.8 977.545 167.95C977.394 168.101 977.19 168.186 976.977 168.186H976.987Z" fill="white"/>
<path d="M979.324 146.144L874.337 146.037C874.124 146.037 873.92 145.952 873.769 145.801C873.618 145.651 873.533 145.446 873.533 145.233C873.533 145.02 873.618 144.815 873.769 144.664C873.92 144.513 874.124 144.429 874.337 144.429L979.324 144.536C979.538 144.536 979.742 144.621 979.893 144.771C980.044 144.922 980.128 145.127 980.128 145.34C980.128 145.553 980.044 145.758 979.893 145.909C979.742 146.059 979.538 146.144 979.324 146.144Z" fill="white"/>
<path d="M981.66 124.094L876.673 123.997C876.46 123.997 876.255 123.913 876.105 123.762C875.954 123.611 875.869 123.407 875.869 123.193C875.869 122.98 875.954 122.776 876.105 122.625C876.255 122.474 876.46 122.389 876.673 122.389L981.66 122.486C981.873 122.486 982.078 122.571 982.229 122.721C982.38 122.872 982.464 123.077 982.464 123.29C982.464 123.503 982.38 123.708 982.229 123.858C982.078 124.009 981.873 124.094 981.66 124.094Z" fill="white"/>
<path d="M983.988 102.05L879.001 101.954C878.788 101.954 878.584 101.869 878.433 101.718C878.282 101.567 878.197 101.363 878.197 101.15C878.197 100.936 878.282 100.732 878.433 100.581C878.584 100.43 878.788 100.346 879.001 100.346L983.988 100.442C984.203 100.445 984.407 100.532 984.558 100.684C984.708 100.837 984.792 101.043 984.792 101.257C984.792 101.362 984.772 101.466 984.731 101.563C984.691 101.66 984.631 101.748 984.556 101.822C984.482 101.895 984.393 101.954 984.295 101.993C984.198 102.032 984.093 102.052 983.988 102.05Z" fill="white"/>
<path d="M56.972 273V213.78H65.54V265.692H91.496V213.78H100.064V265.692H125.936V213.78H134.504V273H56.972ZM147.849 273V230.664H169.185C174.281 230.664 178.033 231.644 180.441 233.604C182.905 235.508 184.137 238.224 184.137 241.752C184.137 244.496 183.213 246.764 181.365 248.556C179.573 250.348 177.193 251.44 174.225 251.832V250.74C177.753 250.908 180.525 251.944 182.541 253.848C184.557 255.752 185.565 258.216 185.565 261.24C185.565 264.88 184.193 267.764 181.449 269.892C178.761 271.964 174.925 273 169.941 273H147.849ZM155.829 267.54H169.269C172.013 267.54 174.113 266.98 175.569 265.86C177.025 264.684 177.753 263.004 177.753 260.82C177.753 258.636 177.025 256.984 175.569 255.864C174.113 254.744 172.013 254.184 169.269 254.184H155.829V267.54ZM155.829 248.724H168.345C170.865 248.724 172.825 248.164 174.225 247.044C175.625 245.924 176.325 244.384 176.325 242.424C176.325 240.408 175.625 238.868 174.225 237.804C172.825 236.684 170.865 236.124 168.345 236.124H155.829V248.724ZM195.591 273V230.664H203.319V264.852H200.967L226.503 230.664H233.559V273H225.915V238.728H228.351L202.647 273H195.591ZM242.086 283.92V266.448H246.79C248.638 263.648 249.982 260.372 250.822 256.62C251.662 252.868 252.082 248.332 252.082 243.012V230.664H283.078V266.448H289.882V283.92H282.574V273H249.394V283.92H242.086ZM254.602 266.532H275.098V237.216H259.39V244.692C259.39 248.78 258.97 252.784 258.13 256.704C257.346 260.568 256.17 263.844 254.602 266.532ZM298.294 273V230.664H306.694V247.968H314.002L327.19 230.664H336.43L320.638 251.496L318.538 248.808C320.162 248.976 321.562 249.396 322.738 250.068C323.914 250.684 325.062 251.608 326.182 252.84C327.302 254.072 328.45 255.696 329.626 257.712L338.446 273H329.374L321.814 260.064C320.974 258.608 320.162 257.488 319.378 256.704C318.594 255.864 317.698 255.304 316.69 255.024C315.682 254.688 314.45 254.52 312.994 254.52H306.694V273H298.294ZM363.122 273.756C358.922 273.756 355.282 272.888 352.202 271.152C349.122 269.36 346.742 266.84 345.062 263.592C343.382 260.288 342.542 256.368 342.542 251.832C342.542 247.296 343.382 243.404 345.062 240.156C346.742 236.852 349.122 234.332 352.202 232.596C355.282 230.804 358.922 229.908 363.122 229.908C367.322 229.908 370.962 230.804 374.042 232.596C377.178 234.332 379.586 236.852 381.266 240.156C383.002 243.404 383.87 247.296 383.87 251.832C383.87 256.368 383.002 260.288 381.266 263.592C379.586 266.84 377.178 269.36 374.042 271.152C370.962 272.888 367.322 273.756 363.122 273.756ZM363.122 267.12C366.818 267.12 369.758 265.832 371.942 263.256C374.126 260.68 375.218 256.872 375.218 251.832C375.218 246.792 374.126 243.012 371.942 240.492C369.758 237.916 366.818 236.628 363.122 236.628C359.482 236.628 356.57 237.916 354.386 240.492C352.202 243.012 351.11 246.792 351.11 251.832C351.11 256.872 352.174 260.68 354.302 263.256C356.486 265.832 359.426 267.12 363.122 267.12ZM395.896 283.332L392.2 280.476C393.824 278.74 394.916 277.144 395.476 275.688C396.092 274.232 396.4 272.72 396.4 271.152L398.248 273H391.612V263.004H401.608V269.808C401.608 272.328 401.188 274.652 400.348 276.78C399.508 278.964 398.024 281.148 395.896 283.332ZM56.384 357V314.664H94.352V357H85.952V321.3H64.784V357H56.384ZM107.415 375.144V324.828C107.415 323.204 107.331 321.552 107.163 319.872C107.051 318.136 106.911 316.4 106.743 314.664H114.975L115.815 324.24H114.891C115.787 321.048 117.579 318.528 120.267 316.68C123.011 314.832 126.259 313.908 130.011 313.908C133.763 313.908 137.039 314.804 139.839 316.596C142.639 318.332 144.795 320.824 146.307 324.072C147.875 327.32 148.659 331.24 148.659 335.832C148.659 340.368 147.875 344.288 146.307 347.592C144.795 350.896 142.639 353.416 139.839 355.152C137.039 356.888 133.763 357.756 130.011 357.756C126.315 357.756 123.095 356.86 120.351 355.068C117.663 353.22 115.871 350.728 114.975 347.592H115.899V375.144H107.415ZM127.911 351.12C131.607 351.12 134.547 349.832 136.731 347.256C138.971 344.68 140.091 340.872 140.091 335.832C140.091 330.792 138.971 327.012 136.731 324.492C134.547 321.916 131.607 320.628 127.911 320.628C124.215 320.628 121.247 321.916 119.007 324.492C116.823 327.012 115.731 330.792 115.731 335.832C115.731 340.872 116.823 344.68 119.007 347.256C121.247 349.832 124.215 351.12 127.911 351.12ZM177.731 357.756C173.531 357.756 169.891 356.888 166.811 355.152C163.731 353.36 161.351 350.84 159.671 347.592C157.991 344.288 157.151 340.368 157.151 335.832C157.151 331.296 157.991 327.404 159.671 324.156C161.351 320.852 163.731 318.332 166.811 316.596C169.891 314.804 173.531 313.908 177.731 313.908C181.931 313.908 185.571 314.804 188.651 316.596C191.787 318.332 194.195 320.852 195.875 324.156C197.611 327.404 198.479 331.296 198.479 335.832C198.479 340.368 197.611 344.288 195.875 347.592C194.195 350.84 191.787 353.36 188.651 355.152C185.571 356.888 181.931 357.756 177.731 357.756ZM177.731 351.12C181.427 351.12 184.367 349.832 186.551 347.256C188.735 344.68 189.827 340.872 189.827 335.832C189.827 330.792 188.735 327.012 186.551 324.492C184.367 321.916 181.427 320.628 177.731 320.628C174.091 320.628 171.179 321.916 168.995 324.492C166.811 327.012 165.719 330.792 165.719 335.832C165.719 340.872 166.783 344.68 168.911 347.256C171.095 349.832 174.035 351.12 177.731 351.12ZM227.862 357.756C223.606 357.756 219.882 356.888 216.69 355.152C213.554 353.36 211.118 350.812 209.382 347.508C207.702 344.148 206.862 340.172 206.862 335.58C206.862 331.044 207.73 327.152 209.466 323.904C211.202 320.656 213.638 318.192 216.774 316.512C219.91 314.776 223.606 313.908 227.862 313.908C230.606 313.908 233.266 314.384 235.842 315.336C238.418 316.232 240.546 317.52 242.226 319.2L239.454 325.164C237.886 323.652 236.122 322.532 234.162 321.804C232.202 321.02 230.298 320.628 228.45 320.628C224.418 320.628 221.254 321.916 218.958 324.492C216.662 327.068 215.514 330.792 215.514 335.664C215.514 340.592 216.662 344.372 218.958 347.004C221.254 349.636 224.418 350.952 228.45 350.952C230.242 350.952 232.118 350.616 234.078 349.944C236.038 349.216 237.83 348.068 239.454 346.5L242.226 352.464C240.49 354.144 238.306 355.46 235.674 356.412C233.098 357.308 230.494 357.756 227.862 357.756ZM260.936 357V321.468H245.984V314.664H284.372V321.468H269.336V357H260.936ZM309.391 357.756C305.191 357.756 301.551 356.888 298.471 355.152C295.391 353.36 293.011 350.84 291.331 347.592C289.651 344.288 288.811 340.368 288.811 335.832C288.811 331.296 289.651 327.404 291.331 324.156C293.011 320.852 295.391 318.332 298.471 316.596C301.551 314.804 305.191 313.908 309.391 313.908C313.591 313.908 317.231 314.804 320.311 316.596C323.447 318.332 325.855 320.852 327.535 324.156C329.271 327.404 330.139 331.296 330.139 335.832C330.139 340.368 329.271 344.288 327.535 347.592C325.855 350.84 323.447 353.36 320.311 355.152C317.231 356.888 313.591 357.756 309.391 357.756ZM309.391 351.12C313.087 351.12 316.027 349.832 318.211 347.256C320.395 344.68 321.487 340.872 321.487 335.832C321.487 330.792 320.395 327.012 318.211 324.492C316.027 321.916 313.087 320.628 309.391 320.628C305.751 320.628 302.839 321.916 300.655 324.492C298.471 327.012 297.379 330.792 297.379 335.832C297.379 340.872 298.443 344.68 300.571 347.256C302.755 349.832 305.695 351.12 309.391 351.12ZM342.166 367.332L338.47 364.476C340.094 362.74 341.186 361.144 341.746 359.688C342.362 358.232 342.67 356.72 342.67 355.152L344.518 357H337.882V347.004H347.878V353.808C347.878 356.328 347.458 358.652 346.618 360.78C345.778 362.964 344.294 365.148 342.166 367.332ZM396.338 357.756C392.642 357.756 389.17 357.308 385.922 356.412C382.674 355.46 380.014 354.116 377.942 352.38L380.546 346.668C382.618 348.292 384.998 349.524 387.686 350.364C390.374 351.148 393.258 351.54 396.338 351.54C400.202 351.54 403.002 350.98 404.738 349.86C406.53 348.684 407.426 347.032 407.426 344.904C407.426 342.832 406.698 341.264 405.242 340.2C403.786 339.136 401.658 338.604 398.858 338.604H388.442V332.556H398.018C400.538 332.556 402.498 332.024 403.898 330.96C405.298 329.896 405.998 328.412 405.998 326.508C405.998 324.492 405.186 322.924 403.562 321.804C401.938 320.684 399.418 320.124 396.002 320.124C393.09 320.124 390.43 320.488 388.022 321.216C385.614 321.944 383.318 323.036 381.134 324.492L378.614 319.032C380.91 317.296 383.626 316.008 386.762 315.168C389.898 314.328 393.286 313.908 396.926 313.908C402.414 313.908 406.586 314.944 409.442 317.016C412.298 319.032 413.726 321.944 413.726 325.752C413.726 328.384 412.83 330.624 411.038 332.472C409.302 334.32 406.95 335.44 403.982 335.832V334.74C407.398 334.908 410.114 335.944 412.13 337.848C414.202 339.696 415.238 342.16 415.238 345.24C415.238 349.048 413.614 352.1 410.366 354.396C407.174 356.636 402.498 357.756 396.338 357.756ZM425.45 375.144V324.828C425.45 323.204 425.366 321.552 425.198 319.872C425.086 318.136 424.946 316.4 424.778 314.664H433.01L433.85 324.24H432.926C433.822 321.048 435.614 318.528 438.302 316.68C441.046 314.832 444.294 313.908 448.046 313.908C451.798 313.908 455.074 314.804 457.874 316.596C460.674 318.332 462.83 320.824 464.342 324.072C465.91 327.32 466.694 331.24 466.694 335.832C466.694 340.368 465.91 344.288 464.342 347.592C462.83 350.896 460.674 353.416 457.874 355.152C455.074 356.888 451.798 357.756 448.046 357.756C444.35 357.756 441.13 356.86 438.386 355.068C435.698 353.22 433.906 350.728 433.01 347.592H433.934V375.144H425.45ZM445.946 351.12C449.642 351.12 452.582 349.832 454.766 347.256C457.006 344.68 458.126 340.872 458.126 335.832C458.126 330.792 457.006 327.012 454.766 324.492C452.582 321.916 449.642 320.628 445.946 320.628C442.25 320.628 439.282 321.916 437.042 324.492C434.858 327.012 433.766 330.792 433.766 335.832C433.766 340.872 434.858 344.68 437.042 347.256C439.282 349.832 442.25 351.12 445.946 351.12ZM475.788 376.068L473.772 369.18C476.404 368.62 478.588 367.948 480.324 367.164C482.116 366.38 483.6 365.344 484.776 364.056C485.952 362.824 486.96 361.228 487.8 359.268L489.9 354.312L489.732 357.756L471.336 314.664H480.408L494.688 349.944H492.42L506.7 314.664H515.436L496.032 360.024C494.8 362.824 493.484 365.176 492.084 367.08C490.684 368.984 489.172 370.524 487.548 371.7C485.924 372.876 484.132 373.8 482.172 374.472C480.212 375.144 478.084 375.676 475.788 376.068ZM549.78 357V340.62C548.212 341.46 546.532 342.132 544.74 342.636C542.948 343.084 541.044 343.308 539.028 343.308C532.924 343.308 528.388 341.88 525.42 339.024C522.508 336.112 521.052 331.772 521.052 326.004V314.664H529.452V325.332C529.452 329.196 530.32 331.996 532.056 333.732C533.792 335.468 536.536 336.336 540.288 336.336C542.192 336.336 543.872 336.14 545.328 335.748C546.784 335.3 548.212 334.628 549.612 333.732V314.664H558.096V357H549.78ZM570.802 357V314.664H579.202V331.884H600.622V314.664H609.022V357H600.622V338.52H579.202V357H570.802ZM640.305 357.756C636.105 357.756 632.465 356.888 629.385 355.152C626.305 353.36 623.925 350.84 622.245 347.592C620.565 344.288 619.725 340.368 619.725 335.832C619.725 331.296 620.565 327.404 622.245 324.156C623.925 320.852 626.305 318.332 629.385 316.596C632.465 314.804 636.105 313.908 640.305 313.908C644.505 313.908 648.145 314.804 651.225 316.596C654.361 318.332 656.769 320.852 658.449 324.156C660.185 327.404 661.053 331.296 661.053 335.832C661.053 340.368 660.185 344.288 658.449 347.592C656.769 350.84 654.361 353.36 651.225 355.152C648.145 356.888 644.505 357.756 640.305 357.756ZM640.305 351.12C644.001 351.12 646.941 349.832 649.125 347.256C651.309 344.68 652.401 340.872 652.401 335.832C652.401 330.792 651.309 327.012 649.125 324.492C646.941 321.916 644.001 320.628 640.305 320.628C636.665 320.628 633.753 321.916 631.569 324.492C629.385 327.012 628.293 330.792 628.293 335.832C628.293 340.872 629.357 344.68 631.485 347.256C633.669 349.832 636.609 351.12 640.305 351.12ZM672.544 340.62L669.856 297.78H680.356L677.752 340.62H672.544ZM670.108 357V347.004H680.104V357H670.108Z" fill="white"/>
<path d="M80 131.1C71.5333 131.1 65 127.933 60.4 121.6C55.8667 115.2 53.6 106.2 53.6 94.6C53.6 82.8 55.8667 73.8333 60.4 67.7C65 61.5 71.5333 58.4 80 58.4C88.5333 58.4 95.0667 61.5 99.6 67.7C104.133 73.8333 106.4 82.7667 106.4 94.5C106.4 106.167 104.133 115.2 99.6 121.6C95.0667 127.933 88.5333 131.1 80 131.1ZM80 118.5C83.8667 118.5 86.7333 116.6 88.6 112.8C90.5333 108.933 91.5 102.833 91.5 94.5C91.5 86.1667 90.5333 80.1667 88.6 76.5C86.7333 72.8333 83.8667 71 80 71C76.1333 71 73.2333 72.8333 71.3 76.5C69.4333 80.1667 68.5 86.1333 68.5 94.4C68.5 102.8 69.4667 108.933 71.4 112.8C73.3333 116.6 76.2 118.5 80 118.5ZM117.261 130V118.5L139.661 95.2C142.461 92.2667 144.494 89.6667 145.761 87.4C147.028 85.1333 147.661 82.8 147.661 80.4C147.661 77.4 146.694 75.1333 144.761 73.6C142.828 72.0667 140.061 71.3 136.461 71.3C133.461 71.3 130.494 71.8667 127.561 73C124.694 74.0667 121.861 75.7333 119.061 78L114.161 66.6C117.094 64.0667 120.728 62.0667 125.061 60.6C129.394 59.1333 133.894 58.4 138.561 58.4C146.428 58.4 152.461 60.1667 156.661 63.7C160.861 67.1667 162.961 72.1333 162.961 78.6C162.961 82.9333 161.961 87.0667 159.961 91C157.961 94.9333 154.728 99.1 150.261 103.5L132.261 121.2V117.2H165.661V130H117.261Z" fill="white"/>
</svg>
