<svg width="32" height="32" viewBox="0 0 32 32" fill="none" xmlns="http://www.w3.org/2000/svg">
<path d="M4.8479 15.0575C4.59794 15.3076 4.45752 15.6466 4.45752 16.0002C4.45752 16.3537 4.59794 16.6928 4.8479 16.9429L12.3906 24.4855C12.5136 24.6129 12.6607 24.7145 12.8234 24.7843C12.986 24.8542 13.161 24.891 13.338 24.8925C13.5151 24.8941 13.6906 24.8603 13.8545 24.7933C14.0184 24.7262 14.1672 24.6272 14.2924 24.5021C14.4176 24.3769 14.5166 24.228 14.5837 24.0641C14.6507 23.9003 14.6844 23.7247 14.6829 23.5477C14.6814 23.3706 14.6446 23.1957 14.5747 23.033C14.5048 22.8703 14.4032 22.7232 14.2759 22.6002L9.00923 17.3335L26.6666 17.3335C27.0202 17.3335 27.3593 17.1931 27.6094 16.943C27.8594 16.693 27.9999 16.3538 27.9999 16.0002C27.9999 15.6466 27.8594 15.3074 27.6094 15.0574C27.3593 14.8073 27.0202 14.6669 26.6666 14.6669L9.00924 14.6669L14.2759 9.40019C14.5188 9.14872 14.6532 8.81192 14.6501 8.46233C14.6471 8.11273 14.5069 7.77831 14.2597 7.5311C14.0124 7.28389 13.678 7.14367 13.3284 7.14063C12.9788 7.13759 12.642 7.27198 12.3906 7.51486L4.8479 15.0575Z" fill="#007AFF"/>
</svg>
