<svg width="16" height="16" viewBox="0 0 16 16" fill="none" xmlns="http://www.w3.org/2000/svg">
<path d="M0 1.45455C0 0.651222 0.651222 0 1.45455 0H5.81818C6.62151 0 7.27273 0.651222 7.27273 1.45455V6.54545C7.27273 6.94712 6.94712 7.27273 6.54545 7.27273H1.45455C0.651222 7.27273 0 6.62151 0 5.81818V1.45455Z" fill="#FF9500"/>
<path d="M0 10.1818C0 9.37849 0.651222 8.72727 1.45455 8.72727H6.54545C6.94712 8.72727 7.27273 9.05288 7.27273 9.45455V14.5455C7.27273 15.3488 6.62151 16 5.81818 16H1.45455C0.651222 16 0 15.3488 0 14.5455V10.1818Z" fill="#FF9500"/>
<path d="M8.72727 9.45455C8.72727 9.05288 9.05288 8.72727 9.45455 8.72727H14.5455C15.3488 8.72727 16 9.37849 16 10.1818V14.5455C16 15.3488 15.3488 16 14.5455 16H10.1818C9.37849 16 8.72727 15.3488 8.72727 14.5455V9.45455Z" fill="#FF9500"/>
<path d="M8.72727 1.45455C8.72727 0.651222 9.37849 0 10.1818 0H14.5455C15.3488 0 16 0.651222 16 1.45455V5.81818C16 6.62151 15.3488 7.27273 14.5455 7.27273H9.45455C9.05288 7.27273 8.72727 6.94712 8.72727 6.54545V1.45455Z" fill="#FF9500"/>
</svg>
