<svg width="28" height="28" viewBox="0 0 28 28" fill="none" xmlns="http://www.w3.org/2000/svg">
<path d="M7.00008 19.8333C7.61892 19.8333 8.21241 20.0792 8.65 20.5168C9.08758 20.9543 9.33341 21.5478 9.33341 22.1667C9.33341 22.7855 9.08758 23.379 8.65 23.8166C8.21241 24.2542 7.61892 24.5 7.00008 24.5C6.38124 24.5 5.78775 24.2542 5.35017 23.8166C4.91258 23.379 4.66675 22.7855 4.66675 22.1667C4.66675 21.5478 4.91258 20.9543 5.35017 20.5168C5.78775 20.0792 6.38124 19.8333 7.00008 19.8333ZM7.00008 19.8333H19.8334M7.00008 19.8333V3.5H4.66675M19.8334 19.8333C20.4523 19.8333 21.0457 20.0792 21.4833 20.5168C21.9209 20.9543 22.1667 21.5478 22.1667 22.1667C22.1667 22.7855 21.9209 23.379 21.4833 23.8166C21.0457 24.2542 20.4523 24.5 19.8334 24.5C19.2146 24.5 18.6211 24.2542 18.1835 23.8166C17.7459 23.379 17.5001 22.7855 17.5001 22.1667C17.5001 21.5478 17.7459 20.9543 18.1835 20.5168C18.6211 20.0792 19.2146 19.8333 19.8334 19.8333ZM7.00008 5.83333L23.3334 7L22.1667 15.1667H7.00008" stroke="white" stroke-width="2" stroke-linecap="round" stroke-linejoin="round"/>
</svg>
