<svg width="28" height="28" viewBox="0 0 28 28" fill="none" xmlns="http://www.w3.org/2000/svg">
<path d="M16.3332 4.66675H23.3332V11.6667H16.3332V4.66675Z" stroke="#FF9500" stroke-width="2" stroke-linecap="round" stroke-linejoin="round"/>
<path d="M4.6665 16.3334H11.6665V23.3334H4.6665V16.3334Z" stroke="#FF9500" stroke-width="2" stroke-linecap="round" stroke-linejoin="round"/>
<path d="M16.3332 19.8334C16.3332 20.7617 16.7019 21.6519 17.3583 22.3083C18.0147 22.9647 18.9049 23.3334 19.8332 23.3334C20.7614 23.3334 21.6517 22.9647 22.308 22.3083C22.9644 21.6519 23.3332 20.7617 23.3332 19.8334C23.3332 18.9052 22.9644 18.0149 22.308 17.3585C21.6517 16.7022 20.7614 16.3334 19.8332 16.3334C18.9049 16.3334 18.0147 16.7022 17.3583 17.3585C16.7019 18.0149 16.3332 18.9052 16.3332 19.8334Z" stroke="#FF9500" stroke-width="2" stroke-linecap="round" stroke-linejoin="round"/>
<path d="M4.6665 8.16675C4.6665 8.62637 4.75703 9.0815 4.93293 9.50614C5.10882 9.93078 5.36663 10.3166 5.69163 10.6416C6.01664 10.9666 6.40247 11.2244 6.82711 11.4003C7.25175 11.5762 7.70688 11.6667 8.1665 11.6667C8.62613 11.6667 9.08126 11.5762 9.5059 11.4003C9.93054 11.2244 10.3164 10.9666 10.6414 10.6416C10.9664 10.3166 11.2242 9.93078 11.4001 9.50614C11.576 9.0815 11.6665 8.62637 11.6665 8.16675C11.6665 7.70712 11.576 7.252 11.4001 6.82736C11.2242 6.40272 10.9664 6.01688 10.6414 5.69187C10.3164 5.36687 9.93054 5.10906 9.5059 4.93317C9.08126 4.75728 8.62613 4.66675 8.1665 4.66675C7.70688 4.66675 7.25175 4.75728 6.82711 4.93317C6.40247 5.10906 6.01664 5.36687 5.69163 5.69187C5.36663 6.01688 5.10882 6.40272 4.93293 6.82736C4.75703 7.252 4.6665 7.70712 4.6665 8.16675Z" stroke="#FF9500" stroke-width="2" stroke-linecap="round" stroke-linejoin="round"/>
</svg>
