<svg width="28" height="28" viewBox="0 0 28 28" fill="none" xmlns="http://www.w3.org/2000/svg">
<path d="M4.66683 13.9999C4.66683 16.4753 5.65016 18.8492 7.4005 20.5996C9.15084 22.3499 11.5248 23.3333 14.0002 23.3333M4.66683 13.9999C4.66683 11.5246 5.65016 9.15059 7.4005 7.40026C9.15084 5.64992 11.5248 4.66659 14.0002 4.66659M4.66683 13.9999H2.3335M14.0002 23.3333C16.4755 23.3333 18.8495 22.3499 20.5998 20.5996C22.3502 18.8492 23.3335 16.4753 23.3335 13.9999M14.0002 23.3333V25.6666M23.3335 13.9999C23.3335 11.5246 22.3502 9.15059 20.5998 7.40026C18.8495 5.64992 16.4755 4.66659 14.0002 4.66659M23.3335 13.9999H25.6668M14.0002 4.66659V2.33325M10.5002 13.9999C10.5002 14.9282 10.8689 15.8184 11.5253 16.4748C12.1817 17.1312 13.0719 17.4999 14.0002 17.4999C14.9284 17.4999 15.8187 17.1312 16.475 16.4748C17.1314 15.8184 17.5002 14.9282 17.5002 13.9999C17.5002 13.0717 17.1314 12.1814 16.475 11.525C15.8187 10.8687 14.9284 10.4999 14.0002 10.4999C13.0719 10.4999 12.1817 10.8687 11.5253 11.525C10.8689 12.1814 10.5002 13.0717 10.5002 13.9999Z" stroke="#FF9500" stroke-width="2" stroke-linecap="round" stroke-linejoin="round"/>
</svg>
