<svg width="28" height="28" viewBox="0 0 28 28" fill="none" xmlns="http://www.w3.org/2000/svg">
<path d="M6.99984 16.3334C6.35817 16.3334 5.80886 16.1049 5.35192 15.648C4.89498 15.1911 4.6665 14.6417 4.6665 14.0001C4.6665 13.3584 4.89498 12.8091 5.35192 12.3522C5.80886 11.8952 6.35817 11.6667 6.99984 11.6667C7.6415 11.6667 8.19081 11.8952 8.64775 12.3522C9.1047 12.8091 9.33317 13.3584 9.33317 14.0001C9.33317 14.6417 9.1047 15.1911 8.64775 15.648C8.19081 16.1049 7.6415 16.3334 6.99984 16.3334ZM13.9998 16.3334C13.3582 16.3334 12.8089 16.1049 12.3519 15.648C11.895 15.1911 11.6665 14.6417 11.6665 14.0001C11.6665 13.3584 11.895 12.8091 12.3519 12.3522C12.8089 11.8952 13.3582 11.6667 13.9998 11.6667C14.6415 11.6667 15.1908 11.8952 15.6478 12.3522C16.1047 12.8091 16.3332 13.3584 16.3332 14.0001C16.3332 14.6417 16.1047 15.1911 15.6478 15.648C15.1908 16.1049 14.6415 16.3334 13.9998 16.3334ZM20.9998 16.3334C20.3582 16.3334 19.8089 16.1049 19.3519 15.648C18.895 15.1911 18.6665 14.6417 18.6665 14.0001C18.6665 13.3584 18.895 12.8091 19.3519 12.3522C19.8089 11.8952 20.3582 11.6667 20.9998 11.6667C21.6415 11.6667 22.1908 11.8952 22.6478 12.3522C23.1047 12.8091 23.3332 13.3584 23.3332 14.0001C23.3332 14.6417 23.1047 15.1911 22.6478 15.648C22.1908 16.1049 21.6415 16.3334 20.9998 16.3334Z" fill="#FF9500"/>
</svg>
