<svg width="723" height="205" viewBox="0 0 723 205" fill="none" xmlns="http://www.w3.org/2000/svg">
<g clip-path="url(#clip0_295_1103)">
<path d="M622.87 9.56C646.87 9.56 669.43 18.91 686.4 35.88C703.37 52.85 712.72 75.41 712.72 99.41V105.6C712.72 129.6 703.37 152.16 686.4 169.13C669.43 186.1 646.87 195.45 622.87 195.45H99.41C75.41 195.45 52.85 186.1 35.88 169.13C18.91 152.16 9.56 129.6 9.56 105.6V99.41C9.56 75.41 18.91 52.85 35.88 35.88C52.84 18.91 75.41 9.56 99.41 9.56H622.87ZM622.87 0H99.41C44.51 0 0 44.51 0 99.41V105.6C0 160.49 44.51 205 99.41 205H622.88C677.78 205 722.29 160.49 722.29 105.59V99.4C722.28 44.51 677.77 0 622.87 0Z" fill="#139787"/>
<path d="M126.85 138.11C121.29 140.8 114.02 142.15 105.06 142.15C93.3699 142.15 84.1699 138.71 77.4699 131.84C70.7699 124.97 67.4199 115.81 67.4199 104.36C67.4199 92.1701 71.1799 82.2801 78.7099 74.7001C86.2399 67.1201 96.0099 63.3201 108.02 63.3201C115.46 63.3201 121.73 64.2601 126.84 66.1401V82.6701C121.74 79.6201 115.93 78.1001 109.41 78.1001C102.25 78.1001 96.4799 80.3501 92.0799 84.8501C87.6899 89.3501 85.4899 95.4501 85.4899 103.13C85.4899 110.5 87.5599 116.37 91.7099 120.75C95.8599 125.13 101.44 127.31 108.45 127.31C115.15 127.31 121.28 125.68 126.84 122.42V138.11H126.85Z" fill="#139787"/>
<path d="M228.939 140.82H210.229L204.809 123.86H177.699L172.329 140.82H153.729L181.479 64.6001H201.839L228.939 140.82ZM200.869 110.68L192.679 85.0601C192.079 83.1501 191.649 80.8601 191.399 78.2001H190.969C190.789 80.4301 190.349 82.6501 189.639 84.8401L181.35 110.67H200.869V110.68Z" fill="#139787"/>
<path d="M277.39 114.56V140.82H260.22V64.5901H287.12C306.33 64.5901 315.93 72.6901 315.93 88.8801C315.93 96.5301 313.17 102.73 307.66 107.46C302.15 112.19 294.79 114.56 285.57 114.56H277.39ZM277.39 77.7801V101.54H284.14C293.28 101.54 297.85 97.5401 297.85 89.5301C297.85 81.7001 293.28 77.7801 284.14 77.7801H277.39Z" fill="#139787"/>
<path d="M345.35 137.89V120.88C348.43 123.47 351.78 125.41 355.4 126.7C359.01 127.99 362.66 128.64 366.35 128.64C368.51 128.64 370.4 128.45 372.01 128.06C373.62 127.67 374.97 127.13 376.05 126.44C377.13 125.75 377.94 124.93 378.47 123.99C379 123.05 379.27 122.03 379.27 120.93C379.27 119.44 378.84 118.11 377.99 116.94C377.14 115.77 375.98 114.69 374.51 113.7C373.04 112.71 371.29 111.75 369.27 110.83C367.25 109.91 365.07 108.97 362.73 108.01C356.78 105.53 352.34 102.5 349.41 98.9201C346.49 95.3401 345.02 91.0201 345.02 85.9501C345.02 81.9801 345.82 78.5701 347.41 75.7201C349 72.8701 351.17 70.5201 353.92 68.6801C356.67 66.8401 359.85 65.4801 363.46 64.6101C367.07 63.7401 370.9 63.3101 374.94 63.3101C378.91 63.3101 382.43 63.5501 385.49 64.0301C388.55 64.5101 391.38 65.2401 393.97 66.2401V82.1301C392.69 81.2401 391.3 80.4601 389.8 79.7901C388.29 79.1201 386.74 78.5601 385.15 78.1201C383.56 77.6801 381.97 77.3501 380.39 77.1401C378.81 76.9301 377.32 76.8201 375.9 76.8201C373.95 76.8201 372.18 77.0101 370.58 77.3801C368.99 77.7501 367.64 78.2801 366.54 78.9501C365.44 79.6201 364.59 80.4301 363.99 81.3701C363.39 82.3101 363.09 83.3601 363.09 84.5301C363.09 85.8101 363.43 86.9501 364.1 87.9601C364.77 88.9701 365.73 89.9301 366.97 90.8301C368.21 91.7301 369.72 92.6201 371.49 93.4901C373.26 94.3601 375.26 95.2501 377.5 96.1701C380.55 97.4501 383.28 98.8001 385.71 100.24C388.14 101.68 390.22 103.3 391.96 105.1C393.7 106.91 395.02 108.97 395.95 111.29C396.87 113.61 397.33 116.31 397.33 119.4C397.33 123.65 396.52 127.22 394.91 130.11C393.3 133 391.11 135.34 388.35 137.13C385.59 138.92 382.37 140.2 378.7 140.98C375.03 141.76 371.16 142.15 367.09 142.15C362.91 142.15 358.93 141.8 355.16 141.09C351.39 140.37 348.12 139.31 345.35 137.89Z" fill="#139787"/>
<path d="M493.79 107.81C493.79 130.7 483.12 142.15 461.79 142.15C441.09 142.15 430.75 130.97 430.75 108.61V64.5901H447.97V108.81C447.97 121.14 452.79 127.31 462.43 127.31C471.89 127.31 476.62 121.36 476.62 109.45V64.5901H493.79V107.81Z" fill="#139787"/>
<path d="M577.54 140.82H532.15V64.5901H549.32V126.89H577.54V140.82Z" fill="#139787"/>
<path d="M655.28 140.82H609.57V64.5901H653.53V78.5701H626.74V95.5301H651.67V109.46H626.74V126.89H655.28V140.82Z" fill="#139787"/>
<path d="M366.98 9.03003H355.83V38.24H366.98V9.03003Z" fill="#139787"/>
<path d="M366.98 166.76H355.83V195.97H366.98V166.76Z" fill="#139787"/>
</g>
<defs>
<clipPath id="clip0_295_1103">
<rect width="722.28" height="205" fill="white"/>
</clipPath>
</defs>
</svg>
