<svg width="873" height="318" viewBox="0 0 873 318" fill="none" xmlns="http://www.w3.org/2000/svg">
<rect width="873" height="318" rx="30" fill="#E5E5EA"/>
<path d="M381.268 173V146.21H399.546V149.06H384.688V157.914H393.01C395.898 157.914 398.14 158.547 399.736 159.814C401.357 161.055 402.168 162.917 402.168 165.4C402.168 167.883 401.357 169.77 399.736 171.062C398.14 172.354 395.898 173 393.01 173H381.268ZM384.688 170.188H392.63C394.707 170.188 396.227 169.795 397.19 169.01C398.178 168.225 398.672 167.034 398.672 165.438C398.672 163.842 398.178 162.664 397.19 161.904C396.227 161.119 394.707 160.726 392.63 160.726H384.688V170.188ZM414.202 173.342C412.53 173.342 411.061 172.949 409.794 172.164C408.527 171.379 407.539 170.239 406.83 168.744C406.121 167.249 405.766 165.476 405.766 163.424C405.766 161.372 406.121 159.611 406.83 158.142C407.539 156.647 408.527 155.507 409.794 154.722C411.061 153.937 412.53 153.544 414.202 153.544C415.899 153.544 417.369 153.975 418.61 154.836C419.877 155.672 420.713 156.825 421.118 158.294H420.662L421.08 153.886H424.424C424.348 154.646 424.272 155.406 424.196 156.166C424.145 156.926 424.12 157.673 424.12 158.408V173H420.662V168.63H421.08C420.675 170.074 419.839 171.227 418.572 172.088C417.331 172.924 415.874 173.342 414.202 173.342ZM415 170.606C416.723 170.606 418.103 169.998 419.142 168.782C420.181 167.566 420.7 165.78 420.7 163.424C420.7 161.068 420.181 159.295 419.142 158.104C418.103 156.913 416.723 156.318 415 156.318C413.277 156.318 411.884 156.913 410.82 158.104C409.781 159.295 409.262 161.068 409.262 163.424C409.262 165.78 409.781 167.566 410.82 168.782C411.859 169.998 413.252 170.606 415 170.606ZM430.208 173V153.886H433.628V161.79H443.736V153.886H447.156V173H443.736V164.526H433.628V173H430.208ZM461.884 173.342C458.844 173.342 456.437 172.468 454.664 170.72C452.916 168.972 452.042 166.565 452.042 163.5C452.042 161.473 452.422 159.725 453.182 158.256C453.967 156.761 455.044 155.609 456.412 154.798C457.78 153.962 459.376 153.544 461.2 153.544C462.948 153.544 464.43 153.924 465.646 154.684C466.862 155.419 467.786 156.47 468.42 157.838C469.053 159.206 469.37 160.827 469.37 162.702V163.842H454.74V161.79H467.014L466.368 162.284C466.368 160.308 465.924 158.775 465.038 157.686C464.176 156.597 462.897 156.052 461.2 156.052C459.35 156.052 457.919 156.698 456.906 157.99C455.892 159.257 455.386 160.992 455.386 163.196V163.538C455.386 165.869 455.956 167.629 457.096 168.82C458.261 170.011 459.87 170.606 461.922 170.606C463.062 170.606 464.126 170.441 465.114 170.112C466.102 169.783 467.052 169.238 467.964 168.478L469.104 170.872C468.242 171.657 467.166 172.265 465.874 172.696C464.607 173.127 463.277 173.342 461.884 173.342ZM474.297 181.208V158.408C474.297 157.673 474.271 156.926 474.221 156.166C474.17 155.406 474.094 154.646 473.993 153.886H477.337L477.755 158.294H477.337C477.717 156.825 478.527 155.672 479.769 154.836C481.01 153.975 482.492 153.544 484.215 153.544C485.912 153.544 487.394 153.937 488.661 154.722C489.927 155.507 490.903 156.647 491.587 158.142C492.296 159.611 492.651 161.372 492.651 163.424C492.651 165.476 492.296 167.249 491.587 168.744C490.903 170.239 489.927 171.379 488.661 172.164C487.394 172.949 485.912 173.342 484.215 173.342C482.517 173.342 481.048 172.924 479.807 172.088C478.591 171.227 477.767 170.074 477.337 168.63H477.755V181.208H474.297ZM483.417 170.606C485.165 170.606 486.558 169.998 487.597 168.782C488.635 167.566 489.155 165.78 489.155 163.424C489.155 161.068 488.635 159.295 487.597 158.104C486.558 156.913 485.165 156.318 483.417 156.318C481.669 156.318 480.275 156.913 479.237 158.104C478.223 159.295 477.717 161.068 477.717 163.424C477.717 165.78 478.223 167.566 479.237 168.782C480.275 169.998 481.669 170.606 483.417 170.606Z" fill="black"/>
</svg>
