<svg width="119" height="118" viewBox="0 0 119 118" fill="none" xmlns="http://www.w3.org/2000/svg">
<rect x="0.5" width="118" height="118" rx="59" fill="#007AFF" fill-opacity="0.15"/>
<path fill-rule="evenodd" clip-rule="evenodd" d="M47.3609 35.8609C48.3924 34.8295 49.7913 34.25 51.25 34.25H67.75C69.2087 34.25 70.6076 34.8295 71.6391 35.8609C72.6705 36.8924 73.25 38.2913 73.25 39.75C73.25 40.4793 73.5397 41.1788 74.0555 41.6945C74.5712 42.2103 75.2707 42.5 76 42.5H78.75C80.938 42.5 83.0365 43.3692 84.5836 44.9164C86.1308 46.4635 87 48.562 87 50.75V60.375C87 61.8938 85.7688 63.125 84.25 63.125C82.7312 63.125 81.5 61.8938 81.5 60.375V50.75C81.5 50.0207 81.2103 49.3212 80.6945 48.8055C80.1788 48.2897 79.4793 48 78.75 48H76C73.812 48 71.7135 47.1308 70.1664 45.5836C68.6192 44.0365 67.75 41.938 67.75 39.75L51.25 39.75C51.25 41.938 50.3808 44.0365 48.8336 45.5836C47.2865 47.1308 45.188 48 43 48H40.25C39.5207 48 38.8212 48.2897 38.3055 48.8055C37.7897 49.3212 37.5 50.0207 37.5 50.75V75.5C37.5 76.2293 37.7897 76.9288 38.3055 77.4445C38.8212 77.9603 39.5207 78.25 40.25 78.25H59.5C61.0188 78.25 62.25 79.4812 62.25 81C62.25 82.5188 61.0188 83.75 59.5 83.75H40.25C38.062 83.75 35.9635 82.8808 34.4164 81.3336C32.8692 79.7865 32 77.688 32 75.5V50.75C32 48.562 32.8692 46.4635 34.4164 44.9164C35.9635 43.3692 38.062 42.5 40.25 42.5H43C43.7293 42.5 44.4288 42.2103 44.9445 41.6945C45.4603 41.1788 45.75 40.4793 45.75 39.75C45.75 38.2913 46.3295 36.8924 47.3609 35.8609ZM51.7218 53.9718C53.7847 51.9089 56.5826 50.75 59.5 50.75C62.4174 50.75 65.2153 51.9089 67.2782 53.9718C69.3411 56.0347 70.5 58.8326 70.5 61.75C70.5 64.6674 69.3411 67.4653 67.2782 69.5282C65.2153 71.5911 62.4174 72.75 59.5 72.75C56.5826 72.75 53.7847 71.5911 51.7218 69.5282C49.6589 67.4653 48.5 64.6674 48.5 61.75C48.5 58.8326 49.6589 56.0347 51.7218 53.9718ZM59.5 56.25C58.0413 56.25 56.6424 56.8295 55.6109 57.8609C54.5795 58.8924 54 60.2913 54 61.75C54 63.2087 54.5795 64.6076 55.6109 65.6391C56.6424 66.6705 58.0413 67.25 59.5 67.25C60.9587 67.25 62.3576 66.6705 63.3891 65.6391C64.4205 64.6076 65 63.2087 65 61.75C65 60.2913 64.4205 58.8924 63.3891 57.8609C62.3576 56.8295 60.9587 56.25 59.5 56.25ZM78.75 67.25C80.2688 67.25 81.5 68.4812 81.5 70V75.5H87C88.5188 75.5 89.75 76.7312 89.75 78.25C89.75 79.7688 88.5188 81 87 81H81.5V86.5C81.5 88.0188 80.2688 89.25 78.75 89.25C77.2312 89.25 76 88.0188 76 86.5V81H70.5C68.9812 81 67.75 79.7688 67.75 78.25C67.75 76.7312 68.9812 75.5 70.5 75.5H76V70C76 68.4812 77.2312 67.25 78.75 67.25Z" fill="#007AFF"/>
</svg>
