<svg width="26" height="26" viewBox="0 0 26 26" fill="none" xmlns="http://www.w3.org/2000/svg">
<path d="M5.23527 6.64697H3.82351C3.07467 6.64697 2.3565 6.94445 1.82699 7.47396C1.29748 8.00347 1 8.72164 1 9.47048V22.1763C1 22.9251 1.29748 23.6433 1.82699 24.1728C2.3565 24.7023 3.07467 24.9998 3.82351 24.9998H16.5293C17.2782 24.9998 17.9963 24.7023 18.5258 24.1728C19.0553 23.6433 19.3528 22.9251 19.3528 22.1763V20.7645" stroke="#FF9500" stroke-width="2" stroke-linecap="round" stroke-linejoin="round"/>
<path d="M17.9409 3.82366L22.1762 8.05893M24.1314 6.0613C24.6875 5.50528 24.9998 4.75116 24.9998 3.96484C24.9998 3.17851 24.6875 2.4244 24.1314 1.86838C23.5754 1.31237 22.8213 1 22.035 1C21.2487 1 20.4945 1.31237 19.9385 1.86838L8.05859 13.706V17.9412H12.2939L24.1314 6.0613Z" stroke="#FF9500" stroke-width="2" stroke-linecap="round" stroke-linejoin="round"/>
</svg>
