<svg width="32" height="32" viewBox="0 0 32 32" fill="none" xmlns="http://www.w3.org/2000/svg">
<path d="M13.3333 10.6667V8.00004C13.3333 7.2928 13.6143 6.61452 14.1144 6.11442C14.6145 5.61433 15.2928 5.33337 16 5.33337H25.3333C26.0406 5.33337 26.7189 5.61433 27.219 6.11442C27.719 6.61452 28 7.2928 28 8.00004V24C28 24.7073 27.719 25.3856 27.219 25.8857C26.7189 26.3858 26.0406 26.6667 25.3333 26.6667H16C15.2928 26.6667 14.6145 26.3858 14.1144 25.8857C13.6143 25.3856 13.3333 24.7073 13.3333 24V21.3334M20 16H4M4 16L8 12M4 16L8 20" stroke="#FF9500" stroke-width="2" stroke-linecap="round" stroke-linejoin="round"/>
</svg>
