<svg width="21" height="19" viewBox="0 0 21 19" fill="none" xmlns="http://www.w3.org/2000/svg">
<path d="M18.4998 10.5717L10.9998 17.9997L3.49981 10.5717C3.00512 10.0903 2.61546 9.5117 2.35536 8.87232C2.09527 8.23295 1.97037 7.54664 1.98855 6.85662C2.00673 6.1666 2.16758 5.48782 2.46097 4.86303C2.75436 4.23823 3.17395 3.68094 3.6933 3.22627C4.21265 2.77159 4.82052 2.42938 5.47862 2.22117C6.13673 2.01296 6.83082 1.94327 7.51718 2.01649C8.20354 2.08971 8.86731 2.30425 9.46669 2.64659C10.0661 2.98894 10.5881 3.45169 10.9998 4.00569C11.4133 3.45571 11.9359 2.99701 12.5349 2.65829C13.1339 2.31958 13.7963 2.10814 14.4807 2.03721C15.1652 1.96628 15.8569 2.03739 16.5126 2.24608C17.1683 2.45477 17.7738 2.79656 18.2914 3.25005C18.8089 3.70354 19.2272 4.25897 19.5202 4.88158C19.8132 5.50419 19.9746 6.18057 19.9941 6.8684C20.0137 7.55622 19.8911 8.24068 19.6339 8.87894C19.3768 9.5172 18.9907 10.0955 18.4998 10.5777" stroke="#0E3E75" stroke-width="2" stroke-linecap="round" stroke-linejoin="round"/>
</svg>
