<svg width="32" height="32" viewBox="0 0 32 32" fill="none" xmlns="http://www.w3.org/2000/svg">
<path d="M19.6003 18C18.1337 15.3333 17.679 14.6666 16.0003 14.6666C14.3217 14.6666 13.6857 15.6733 12.219 18.3293C10.963 20.6 8.42434 20.7893 7.79101 22.7173C7.66167 23.0706 7.59767 23.62 7.60034 24C7.60034 25.568 8.64967 26.6666 10.0003 26.6666C11.679 26.6666 14.0003 25.3333 16.0003 25.3333C18.0003 25.3333 20.3217 26.6666 22.0003 26.6666C23.351 26.6666 24.4003 25.5693 24.4003 24C24.4003 23.62 24.335 23.0706 24.2057 22.7173C23.5723 20.7826 20.8563 20.2706 19.6003 18Z" stroke="#FF9500" stroke-width="2" stroke-linecap="round" stroke-linejoin="round"/>
<path d="M26.9176 10.776C26.7463 10.7036 26.5622 10.6664 26.3762 10.6666H26.3562C25.3762 10.6826 24.2762 11.6666 23.6989 13.1546C23.0069 14.9346 23.3256 16.7546 24.4162 17.224C24.5882 17.2973 24.7722 17.3333 24.9576 17.3333C25.9429 17.3333 27.0576 16.344 27.6389 14.8453C28.3269 13.0653 28.0016 11.2453 26.9176 10.776Z" stroke="#FF9500" stroke-width="2" stroke-linecap="round" stroke-linejoin="round"/>
<path d="M12.6314 12C12.7048 12 12.7768 12 12.8488 11.9853C14.1074 11.8146 14.8928 10.1906 14.6088 8.35598C14.3381 6.62665 13.2128 5.33331 12.0328 5.33331C11.9594 5.33331 11.8874 5.33331 11.8154 5.34798C10.5568 5.51865 9.77144 7.14265 10.0554 8.97731C10.3274 10.7013 11.4528 12 12.6328 12H12.6314Z" stroke="#FF9500" stroke-width="2" stroke-linecap="round" stroke-linejoin="round"/>
<path d="M21.9412 8.97732C22.2265 7.14265 21.4412 5.51865 20.1812 5.34798C20.1096 5.33807 20.0374 5.33317 19.9652 5.33332C18.7852 5.33332 17.6612 6.62665 17.3919 8.35598C17.1065 10.1906 17.8919 11.8146 19.1519 11.9853C19.2239 11.9946 19.2959 12 19.3679 12C20.5479 12 21.6745 10.7013 21.9412 8.97732Z" stroke="#FF9500" stroke-width="2" stroke-linecap="round" stroke-linejoin="round"/>
<path d="M7.58643 17.224C8.67443 16.7546 8.99176 14.932 8.3011 13.1546C7.71976 11.656 6.60643 10.6666 5.62243 10.6666C5.43576 10.6666 5.2531 10.7026 5.07976 10.776C3.99176 11.2453 3.67443 13.068 4.3651 14.8453C4.94643 16.344 6.05976 17.3333 7.04376 17.3333C7.23043 17.3333 7.4131 17.2973 7.58643 17.224Z" stroke="#FF9500" stroke-width="2" stroke-linecap="round" stroke-linejoin="round"/>
</svg>
