<svg width="32" height="32" viewBox="0 0 32 32" fill="none" xmlns="http://www.w3.org/2000/svg">
<path d="M12 20L10.6667 16L16 13.3334M16 13.3334L21.3333 14.6667H26M16 13.3334V22.6667M10.6667 26.6667H20L21.3333 21.3334L26.6667 18.6667M24 26.6667H28M4 25.3334C4 25.687 4.14048 26.0261 4.39052 26.2762C4.64057 26.5262 4.97971 26.6667 5.33333 26.6667C5.68696 26.6667 6.02609 26.5262 6.27614 26.2762C6.52619 26.0261 6.66667 25.687 6.66667 25.3334C6.66667 24.9797 6.52619 24.6406 6.27614 24.3905C6.02609 24.1405 5.68696 24 5.33333 24C4.97971 24 4.64057 24.1405 4.39052 24.3905C4.14048 24.6406 4 24.9797 4 25.3334ZM14.6667 8.00002C14.6667 8.35364 14.8071 8.69278 15.0572 8.94283C15.3072 9.19288 15.6464 9.33335 16 9.33335C16.3536 9.33335 16.6928 9.19288 16.9428 8.94283C17.1929 8.69278 17.3333 8.35364 17.3333 8.00002C17.3333 7.6464 17.1929 7.30726 16.9428 7.05721C16.6928 6.80716 16.3536 6.66669 16 6.66669C15.6464 6.66669 15.3072 6.80716 15.0572 7.05721C14.8071 7.30726 14.6667 7.6464 14.6667 8.00002Z" stroke="#FF9500" stroke-width="2" stroke-linecap="round" stroke-linejoin="round"/>
</svg>
