<svg width="32" height="32" viewBox="0 0 32 32" fill="none" xmlns="http://www.w3.org/2000/svg">
<path fill-rule="evenodd" clip-rule="evenodd" d="M7.54767 9.42725C6.75079 9.13339 6.18254 8.36718 6.18254 7.46826V5.0873C6.18254 3.93452 7.11706 3 8.26985 3H18.5873C19.7401 3 20.6746 3.93452 20.6746 5.0873V7.46826C20.6746 8.42792 20.027 9.23632 19.1449 9.48024C19.168 9.51569 19.1918 9.55092 19.2164 9.58581C19.5159 10.0111 19.8517 10.2825 20.1937 10.368C21.1627 10.6103 21.8504 11.0785 22.2483 11.7946C22.6156 12.4558 22.6587 13.2033 22.6587 13.8174C22.6587 14.3127 22.2572 14.7143 21.7619 14.7143C21.2666 14.7143 20.8651 14.3127 20.8651 13.8174C20.8651 13.2401 20.8088 12.897 20.6803 12.6657C20.5818 12.4883 20.3762 12.2625 19.7587 12.1081C18.8305 11.8761 18.1744 11.2213 17.7499 10.6185C17.5008 10.2647 17.3057 9.89315 17.1618 9.55556H9.49696C9.35306 9.89315 9.158 10.2647 8.90886 10.6185C8.48439 11.2213 7.82821 11.8761 6.90005 12.1081C6.28258 12.2625 6.07694 12.4883 5.97841 12.6657C5.84993 12.897 5.79365 13.2401 5.79365 13.8174V15.3016H17.7937C18.289 15.3016 18.6905 15.7031 18.6905 16.1984C18.6905 16.6937 18.289 17.0953 17.7937 17.0953H5.79365V24.0318H11.246C11.7413 24.0318 12.1429 24.4333 12.1429 24.9286C12.1429 25.4239 11.7413 25.8254 11.246 25.8254H5.79365V26.7143C5.79365 26.7623 5.80069 26.8345 5.81997 26.9132C5.83932 26.9921 5.86692 27.0608 5.89811 27.1113C5.92632 27.1571 5.94755 27.1742 5.96111 27.1824C5.97241 27.1891 6.00552 27.2063 6.0873 27.2063H12.8333C13.3286 27.2063 13.7302 27.6079 13.7302 28.1032C13.7302 28.5985 13.3286 29 12.8333 29H6.0873C5.25578 29 4.68894 28.5673 4.37173 28.0533C4.08358 27.5864 4 27.064 4 26.7143V13.8174C4 13.2033 4.04315 12.4558 4.41048 11.7946C4.80832 11.0785 5.49606 10.6103 6.46503 10.368C6.80703 10.2825 7.14288 10.0111 7.44233 9.58581C7.47912 9.53358 7.51423 9.48057 7.54767 9.42725ZM8.26985 4.79365C8.10767 4.79365 7.97619 4.92512 7.97619 5.0873V7.46826C7.97619 7.63044 8.10767 7.76191 8.26985 7.76191H18.5873C18.7495 7.76191 18.881 7.63044 18.881 7.46826V5.0873C18.881 4.92512 18.7495 4.79365 18.5873 4.79365H8.26985Z" fill="#FF9500"/>
<path fill-rule="evenodd" clip-rule="evenodd" d="M26.2671 22.8013C27.7954 21.2731 27.7954 18.7954 26.2671 17.2671C24.7389 15.7389 22.2611 15.7389 20.7329 17.2671L18.3235 19.6765L19.2428 20.5957L22.9385 24.2915L23.8578 25.2107L26.2671 22.8013ZM22.3207 24.9093L18.6249 21.2136L17.7057 20.2943L15.2671 22.7329C13.7388 24.2612 13.7388 26.7389 15.2671 28.2672C16.7953 29.7954 19.2731 29.7954 20.8013 28.2672L23.2399 25.8285L22.3207 24.9093ZM17.7057 22.1328L16.1863 23.6522C15.1657 24.6727 15.1657 26.3274 16.1863 27.3479C17.2069 28.3685 18.8615 28.3685 19.8821 27.3479L21.4014 25.8285L17.7057 22.1328ZM23.8578 23.3722L25.3479 21.8821C26.3684 20.8616 26.3684 19.2069 25.3479 18.1864C24.3273 17.1658 22.6727 17.1658 21.6521 18.1864L20.162 19.6765L23.8578 23.3722Z" fill="#FF9500"/>
</svg>
