<svg width="22" height="22" viewBox="0 0 22 22" fill="none" xmlns="http://www.w3.org/2000/svg">
<path d="M7.23642 7.32505L0.856418 8.25005L0.743418 8.27305C0.572357 8.31846 0.416413 8.40845 0.29151 8.53385C0.166608 8.65924 0.0772217 8.81553 0.0324804 8.98677C-0.0122609 9.15801 -0.0107545 9.33805 0.0368458 9.50852C0.0844462 9.67898 0.176435 9.83376 0.303418 9.95705L4.92542 14.456L3.83542 20.811L3.82242 20.921C3.81195 21.098 3.84868 21.2745 3.92887 21.4326C4.00905 21.5906 4.1298 21.7245 4.27875 21.8206C4.42771 21.9166 4.59951 21.9713 4.77657 21.9792C4.95363 21.987 5.12958 21.9476 5.28642 21.865L10.9924 18.865L16.6854 21.865L16.7854 21.911C16.9505 21.9761 17.1299 21.996 17.3052 21.9688C17.4805 21.9416 17.6454 21.8683 17.783 21.7563C17.9206 21.6444 18.026 21.4978 18.0883 21.3317C18.1505 21.1656 18.1675 20.9859 18.1374 20.811L17.0464 14.456L21.6704 9.95605L21.7484 9.87105C21.8598 9.73381 21.9329 9.5695 21.9601 9.39484C21.9874 9.22018 21.9678 9.04142 21.9035 8.87678C21.8392 8.71213 21.7323 8.56748 21.5939 8.45756C21.4555 8.34764 21.2904 8.27638 21.1154 8.25105L14.7354 7.32505L11.8834 1.54505C11.8009 1.37758 11.6731 1.23656 11.5146 1.13795C11.3561 1.03934 11.1731 0.987076 10.9864 0.987076C10.7997 0.987076 10.6168 1.03934 10.4582 1.13795C10.2997 1.23656 10.1719 1.37758 10.0894 1.54505L7.23642 7.32505Z" fill="#0C0B0B"/>
<path d="M7.23642 7.32505L0.856418 8.25005L0.743418 8.27305C0.572357 8.31846 0.416413 8.40845 0.29151 8.53385C0.166608 8.65924 0.0772217 8.81553 0.0324804 8.98677C-0.0122609 9.15801 -0.0107545 9.33805 0.0368458 9.50852C0.0844462 9.67898 0.176435 9.83376 0.303418 9.95705L4.92542 14.456L3.83542 20.811L3.82242 20.921C3.81195 21.098 3.84868 21.2745 3.92887 21.4326C4.00905 21.5906 4.1298 21.7245 4.27875 21.8206C4.42771 21.9166 4.59951 21.9713 4.77657 21.9792C4.95363 21.987 5.12958 21.9476 5.28642 21.865L10.9924 18.865L16.6854 21.865L16.7854 21.911C16.9505 21.9761 17.1299 21.996 17.3052 21.9688C17.4805 21.9416 17.6454 21.8683 17.783 21.7563C17.9206 21.6444 18.026 21.4978 18.0883 21.3317C18.1505 21.1656 18.1675 20.9859 18.1374 20.811L17.0464 14.456L21.6704 9.95605L21.7484 9.87105C21.8598 9.73381 21.9329 9.5695 21.9601 9.39484C21.9874 9.22018 21.9678 9.04142 21.9035 8.87678C21.8392 8.71213 21.7323 8.56748 21.5939 8.45756C21.4555 8.34764 21.2904 8.27638 21.1154 8.25105L14.7354 7.32505L11.8834 1.54505C11.8009 1.37758 11.6731 1.23656 11.5146 1.13795C11.3561 1.03934 11.1731 0.987076 10.9864 0.987076C10.7997 0.987076 10.6168 1.03934 10.4582 1.13795C10.2997 1.23656 10.1719 1.37758 10.0894 1.54505L7.23642 7.32505Z" fill="#E5E7EB"/>
</svg>
