<svg width="32" height="32" viewBox="0 0 32 32" fill="none" xmlns="http://www.w3.org/2000/svg">
<path d="M13.3332 8V12M18.6665 8V12M6.6665 14.6667C6.6665 13.9594 6.94746 13.2811 7.44755 12.781C7.94765 12.281 8.62593 12 9.33317 12H22.6665C23.3737 12 24.052 12.281 24.5521 12.781C25.0522 13.2811 25.3332 13.9594 25.3332 14.6667V25.3333C25.3332 26.0406 25.0522 26.7189 24.5521 27.219C24.052 27.719 23.3737 28 22.6665 28H9.33317C8.62593 28 7.94765 27.719 7.44755 27.219C6.94746 26.7189 6.6665 26.0406 6.6665 25.3333V14.6667ZM13.3332 20C13.3332 20.7072 13.6141 21.3855 14.1142 21.8856C14.6143 22.3857 15.2926 22.6667 15.9998 22.6667C16.7071 22.6667 17.3854 22.3857 17.8855 21.8856C18.3856 21.3855 18.6665 20.7072 18.6665 20C18.6665 19.2928 18.3856 18.6145 17.8855 18.1144C17.3854 17.6143 16.7071 17.3333 15.9998 17.3333C15.2926 17.3333 14.6143 17.6143 14.1142 18.1144C13.6141 18.6145 13.3332 19.2928 13.3332 20ZM11.9998 4H19.9998V8H11.9998V4Z" stroke="#FF9500" stroke-width="2" stroke-linecap="round" stroke-linejoin="round"/>
</svg>
