<svg width="32" height="32" viewBox="0 0 32 32" fill="none" xmlns="http://www.w3.org/2000/svg">
<path d="M2.6665 6.66667H5.99984L8.17584 13.196C8.70678 14.7892 9.72562 16.1749 11.088 17.1568C12.4504 18.1386 14.0872 18.6669 15.7665 18.6667H19.3332C21.2781 18.6667 23.1434 17.8941 24.5186 16.5188C25.8939 15.1435 26.6665 13.2783 26.6665 11.3333C26.6665 9.38841 25.8939 7.52315 24.5186 6.14788C23.1434 4.77262 21.2781 4 19.3332 4H18.6665V12M7.99984 12H26.6665M11.9998 22.6667L13.3332 18.6667M21.3332 18.6667L22.6665 22.6667M7.99984 25.3333C7.99984 26.0406 8.28079 26.7189 8.78089 27.219C9.28098 27.719 9.95926 28 10.6665 28C11.3737 28 12.052 27.719 12.5521 27.219C13.0522 26.7189 13.3332 26.0406 13.3332 25.3333C13.3332 24.6261 13.0522 23.9478 12.5521 23.4477C12.052 22.9476 11.3737 22.6667 10.6665 22.6667C9.95926 22.6667 9.28098 22.9476 8.78089 23.4477C8.28079 23.9478 7.99984 24.6261 7.99984 25.3333ZM21.3332 25.3333C21.3332 26.0406 21.6141 26.7189 22.1142 27.219C22.6143 27.719 23.2926 28 23.9998 28C24.7071 28 25.3854 27.719 25.8855 27.219C26.3856 26.7189 26.6665 26.0406 26.6665 25.3333C26.6665 24.6261 26.3856 23.9478 25.8855 23.4477C25.3854 22.9476 24.7071 22.6667 23.9998 22.6667C23.2926 22.6667 22.6143 22.9476 22.1142 23.4477C21.6141 23.9478 21.3332 24.6261 21.3332 25.3333Z" stroke="#FF9500" stroke-width="2" stroke-linecap="round" stroke-linejoin="round"/>
</svg>
