<svg width="32" height="32" viewBox="0 0 32 32" fill="none" xmlns="http://www.w3.org/2000/svg">
<path d="M8 5.33333H6.66667C5.95942 5.33333 5.28115 5.61428 4.78105 6.11438C4.28095 6.61448 4 7.29276 4 8V12.6667C4 14.6116 4.77262 16.4769 6.14788 17.8521C7.52315 19.2274 9.38841 20 11.3333 20C13.2783 20 15.1435 19.2274 16.5188 17.8521C17.894 16.4769 18.6667 14.6116 18.6667 12.6667V8C18.6667 7.29276 18.3857 6.61448 17.8856 6.11438C17.3855 5.61428 16.7072 5.33333 16 5.33333H14.6667M10.6667 20C10.6667 21.0506 10.8736 22.0909 11.2756 23.0615C11.6777 24.0321 12.2669 24.914 13.0098 25.6569C13.7527 26.3997 14.6346 26.989 15.6052 27.391C16.5758 27.7931 17.6161 28 18.6667 28C19.7172 28 20.7575 27.7931 21.7281 27.391C22.6987 26.989 23.5807 26.3997 24.3235 25.6569C25.0664 24.914 25.6557 24.0321 26.0577 23.0615C26.4597 22.0909 26.6667 21.0506 26.6667 20V16M26.6667 16C25.9594 16 25.2811 15.719 24.781 15.219C24.281 14.7189 24 14.0406 24 13.3333C24 12.6261 24.281 11.9478 24.781 11.4477C25.2811 10.9476 25.9594 10.6667 26.6667 10.6667C27.3739 10.6667 28.0522 10.9476 28.5523 11.4477C29.0524 11.9478 29.3333 12.6261 29.3333 13.3333C29.3333 14.0406 29.0524 14.7189 28.5523 15.219C28.0522 15.719 27.3739 16 26.6667 16ZM14.6667 4V6.66667M8 4V6.66667" stroke="#FF9500" stroke-width="2" stroke-linecap="round" stroke-linejoin="round"/>
</svg>
