<svg width="32" height="32" viewBox="0 0 32 32" fill="none" xmlns="http://www.w3.org/2000/svg">
<path d="M18.6668 8C19.0205 8 19.3596 7.85952 19.6096 7.60948C19.8597 7.35943 20.0002 7.02029 20.0002 6.66667V5.33333C20.0002 4.97971 19.8597 4.64057 19.6096 4.39052C19.3596 4.14048 19.0205 4 18.6668 4H13.3335C12.9799 4 12.6407 4.14048 12.3907 4.39052C12.1406 4.64057 12.0002 4.97971 12.0002 5.33333V6.66667C12.0002 7.02029 12.1406 7.35943 12.3907 7.60948C12.6407 7.85952 12.9799 8 13.3335 8M18.6668 8H13.3335M18.6668 8V9.30667C18.667 9.87309 18.8681 10.4211 19.2343 10.8532C19.6005 11.2853 20.1081 11.5736 20.6668 11.6667C21.8215 11.8587 22.6668 12.8573 22.6668 14.0267V25.3333C22.6668 26.0406 22.3859 26.7189 21.8858 27.219C21.3857 27.719 20.7074 28 20.0002 28H12.0002C11.2929 28 10.6146 27.719 10.1145 27.219C9.61445 26.7189 9.3335 26.0406 9.3335 25.3333V14.0267C9.3335 12.8573 10.1788 11.8587 11.3335 11.6667C12.4882 11.4747 13.3335 10.476 13.3335 9.30667V8M9.3335 16H22.6668M9.3335 24H22.6668M14.6668 20H17.3335" stroke="#FF9500" stroke-width="2" stroke-linecap="round" stroke-linejoin="round"/>
</svg>
