<svg width="32" height="32" viewBox="0 0 32 32" fill="none" xmlns="http://www.w3.org/2000/svg">
<path d="M2.6665 16H3.99984M11.9998 16H19.9998M29.3332 16H27.9998M7.99984 10.6667H5.33317C4.97955 10.6667 4.64041 10.8071 4.39036 11.0572C4.14031 11.3072 3.99984 11.6464 3.99984 12V20C3.99984 20.3536 4.14031 20.6928 4.39036 20.9428C4.64041 21.1929 4.97955 21.3333 5.33317 21.3333H7.99984V22.6667C7.99984 23.0203 8.14031 23.3594 8.39036 23.6095C8.64041 23.8595 8.97955 24 9.33317 24H10.6665C11.0201 24 11.3593 23.8595 11.6093 23.6095C11.8594 23.3594 11.9998 23.0203 11.9998 22.6667V9.33333C11.9998 8.97971 11.8594 8.64057 11.6093 8.39052C11.3593 8.14048 11.0201 8 10.6665 8H9.33317C8.97955 8 8.64041 8.14048 8.39036 8.39052C8.14031 8.64057 7.99984 8.97971 7.99984 9.33333V10.6667ZM19.9998 9.33333V22.6667C19.9998 23.0203 20.1403 23.3594 20.3904 23.6095C20.6404 23.8595 20.9795 24 21.3332 24H22.6665C23.0201 24 23.3593 23.8595 23.6093 23.6095C23.8594 23.3594 23.9998 23.0203 23.9998 22.6667V21.3333H26.6665C27.0201 21.3333 27.3593 21.1929 27.6093 20.9428C27.8594 20.6928 27.9998 20.3536 27.9998 20V12C27.9998 11.6464 27.8594 11.3072 27.6093 11.0572C27.3593 10.8071 27.0201 10.6667 26.6665 10.6667H23.9998V9.33333C23.9998 8.97971 23.8594 8.64057 23.6093 8.39052C23.3593 8.14048 23.0201 8 22.6665 8H21.3332C20.9795 8 20.6404 8.14048 20.3904 8.39052C20.1403 8.64057 19.9998 8.97971 19.9998 9.33333Z" stroke="#FF9500" stroke-width="2" stroke-linecap="round" stroke-linejoin="round"/>
</svg>
