<svg width="24" height="18" viewBox="0 0 24 18" fill="none" xmlns="http://www.w3.org/2000/svg">
<path d="M23.1521 9.94272C23.4021 9.69268 23.5425 9.3536 23.5425 9.00005C23.5425 8.6465 23.4021 8.30742 23.1521 8.05738L15.6094 0.514717C15.4864 0.38737 15.3393 0.285793 15.1766 0.215915C15.014 0.146036 14.839 0.109254 14.662 0.107716C14.4849 0.106178 14.3094 0.139913 14.1455 0.206955C13.9816 0.273996 13.8328 0.373 13.7076 0.49819C13.5824 0.623381 13.4834 0.772249 13.4163 0.936111C13.3493 1.09997 13.3156 1.27555 13.3171 1.45259C13.3186 1.62962 13.3554 1.80458 13.4253 1.96726C13.4952 2.12993 13.5968 2.27705 13.7241 2.40005L18.9908 7.66672L1.33343 7.66672C0.97981 7.66672 0.64067 7.80719 0.390621 8.05724C0.140573 8.30729 9.88089e-05 8.64643 9.87934e-05 9.00005C9.8778e-05 9.35367 0.140573 9.69281 0.390621 9.94286C0.64067 10.1929 0.97981 10.3334 1.33343 10.3334L18.9908 10.3334L13.7241 15.6001C13.4812 15.8515 13.3468 16.1883 13.3499 16.5379C13.3529 16.8875 13.4931 17.2219 13.7403 17.4691C13.9875 17.7164 14.322 17.8566 14.6716 17.8596C15.0212 17.8627 15.358 17.7283 15.6094 17.4854L23.1521 9.94272Z" fill="#007AFF"/>
</svg>
