<svg width="24" height="24" viewBox="0 0 24 24" fill="none" xmlns="http://www.w3.org/2000/svg">
<path d="M7 9.99353V8.13153C7 5.29353 9.239 2.99353 12 2.99353C14.761 2.99353 17 5.29353 17 8.13153V9.99353M10.485 17.5705C10.822 17.8605 11.185 17.9935 12 17.9935H12.413C12.736 17.9935 13.046 17.8605 13.275 17.6255C13.5044 17.3877 13.6321 17.0699 13.631 16.7395C13.631 16.4075 13.503 16.0895 13.275 15.8535C13.1633 15.7376 13.0294 15.6453 12.8813 15.5821C12.7332 15.5189 12.574 15.4861 12.413 15.4855H11.587C11.4262 15.4852 11.2672 15.4525 11.1192 15.3894C10.9713 15.3264 10.8376 15.2343 10.726 15.1185C10.4966 14.8807 10.3689 14.5629 10.37 14.2325C10.37 13.9005 10.498 13.5815 10.726 13.3465C10.8375 13.2306 10.9712 13.1383 11.1191 13.0751C11.267 13.0119 11.4261 12.979 11.587 12.9785H12C12.816 12.9785 13.178 13.1115 13.515 13.4015M4 11.9935C4 11.4631 4.21071 10.9544 4.58579 10.5793C4.96086 10.2042 5.46957 9.99353 6 9.99353H18C18.5304 9.99353 19.0391 10.2042 19.4142 10.5793C19.7893 10.9544 20 11.4631 20 11.9935V18.9935C20 19.524 19.7893 20.0327 19.4142 20.4077C19.0391 20.7828 18.5304 20.9935 18 20.9935H6C5.46957 20.9935 4.96086 20.7828 4.58579 20.4077C4.21071 20.0327 4 19.524 4 18.9935V11.9935Z" stroke="white" stroke-width="2" stroke-linecap="round" stroke-linejoin="round"/>
</svg>
