<svg width="24" height="24" viewBox="0 0 24 24" fill="none" xmlns="http://www.w3.org/2000/svg">
<path d="M3 20.9935V18.9935C3 17.9327 3.42143 16.9153 4.17157 16.1651C4.92172 15.415 5.93913 14.9935 7 14.9935H11C12.0609 14.9935 13.0783 15.415 13.8284 16.1651C14.5786 16.9153 15 17.9327 15 18.9935V20.9935M16 3.12355C16.8604 3.34385 17.623 3.84425 18.1676 4.54586C18.7122 5.24747 19.0078 6.11038 19.0078 6.99855C19.0078 7.88672 18.7122 8.74963 18.1676 9.45124C17.623 10.1528 16.8604 10.6532 16 10.8736M21 20.9935V18.9935C20.9949 18.1107 20.6979 17.2543 20.1553 16.5579C19.6126 15.8615 18.8548 15.3642 18 15.1435M5 6.99355C5 8.05441 5.42143 9.07183 6.17157 9.82197C6.92172 10.5721 7.93913 10.9935 9 10.9935C10.0609 10.9935 11.0783 10.5721 11.8284 9.82197C12.5786 9.07183 13 8.05441 13 6.99355C13 5.93268 12.5786 4.91526 11.8284 4.16512C11.0783 3.41497 10.0609 2.99355 9 2.99355C7.93913 2.99355 6.92172 3.41497 6.17157 4.16512C5.42143 4.91526 5 5.93268 5 6.99355Z" stroke="white" stroke-width="2" stroke-linecap="round" stroke-linejoin="round"/>
</svg>
