<svg width="36" height="36" viewBox="0 0 36 36" fill="none" xmlns="http://www.w3.org/2000/svg">
<rect x="1" y="1" width="34" height="34" rx="17" stroke="#0E3E75" stroke-width="2"/>
<path d="M24.6706 18.5051L18.0074 25L11.3442 18.5051C10.9047 18.0842 10.5585 17.5783 10.3274 17.0192C10.0963 16.4602 9.98539 15.8601 10.0015 15.2568C10.0177 14.6534 10.1606 14.0599 10.4213 13.5136C10.6819 12.9673 11.0547 12.48 11.5161 12.0825C11.9775 11.6849 12.5175 11.3857 13.1022 11.2036C13.6869 11.0216 14.3035 10.9606 14.9133 11.0247C15.5231 11.0887 16.1128 11.2763 16.6453 11.5756C17.1778 11.875 17.6416 12.2796 18.0074 12.764C18.3748 12.2831 18.8391 11.882 19.3712 11.5858C19.9034 11.2897 20.4919 11.1048 21.1 11.0428C21.708 10.9808 22.3226 11.0429 22.9051 11.2254C23.4876 11.4079 24.0256 11.7067 24.4854 12.1033C24.9452 12.4998 25.3169 12.9854 25.5772 13.5298C25.8375 14.0742 25.9808 14.6656 25.9982 15.2671C26.0156 15.8685 25.9067 16.467 25.6782 17.025C25.4498 17.5831 25.1068 18.0888 24.6706 18.5104" stroke="#0E3E75" stroke-width="2" stroke-linecap="round" stroke-linejoin="round"/>
</svg>
