<svg width="142" height="42" viewBox="0 0 142 42" fill="none" xmlns="http://www.w3.org/2000/svg">
<path d="M141 37.7898C141 40.1159 139.185 42 136.94 42H4.06559C1.82152 42 0 40.1159 0 37.7898V4.21561C0 1.8907 1.82152 0 4.06559 0H136.939C139.185 0 140.999 1.8907 140.999 4.21561L141 37.7898Z" fill="#0D1E31"/>
<path d="M31.5711 20.7745C31.5407 17.3903 34.3365 15.7439 34.4644 15.6673C32.881 13.3541 30.4268 13.0381 29.5644 13.0129C27.5031 12.7955 25.5037 14.2487 24.4537 14.2487C23.3828 14.2487 21.7659 13.0339 20.0232 13.0695C17.7806 13.1042 15.6828 14.4051 14.5322 16.4253C12.1577 20.5445 13.9286 26.5977 16.2036 29.9273C17.3416 31.5579 18.6714 33.3787 20.4119 33.3146C22.1148 33.2443 22.7509 32.2268 24.8058 32.2268C26.8419 32.2268 27.4392 33.3146 29.2143 33.2737C31.0419 33.2443 32.1925 31.6357 33.2907 29.9903C34.6058 28.1213 35.134 26.2807 35.1549 26.1861C35.112 26.1715 31.6057 24.8306 31.5711 20.7745Z" fill="white"/>
<path d="M28.2178 10.8226C29.1337 9.67499 29.7603 8.11359 29.5864 6.52917C28.2608 6.58797 26.603 7.44792 25.6484 8.57039C24.8038 9.55945 24.0492 11.1807 24.2441 12.7053C25.7332 12.8166 27.2621 11.9524 28.2178 10.8226Z" fill="white"/>
<path d="M56.2158 33.0797H53.836L52.5324 28.9753H48.0013L46.7595 33.0797H44.4426L48.9318 19.1063H51.7046L56.2158 33.0797ZM52.1394 27.2533L50.9606 23.6045C50.8359 23.2318 50.6022 22.354 50.2574 20.9722H50.2155C50.0782 21.5665 49.8571 22.4443 49.5532 23.6045L48.3953 27.2533H52.1394Z" fill="white"/>
<path d="M67.7608 27.9171C67.7608 29.6307 67.2987 30.9853 66.3745 31.9796C65.5466 32.8647 64.5186 33.3068 63.2915 33.3068C61.9669 33.3068 61.0154 32.8301 60.4359 31.8767H60.394V37.1845H58.1599V26.3201C58.1599 25.2428 58.1316 24.1371 58.0771 23.0031H60.0419L60.1666 24.6002H60.2085C60.9536 23.3969 62.0843 22.7963 63.6016 22.7963C64.7879 22.7963 65.7782 23.2657 66.5704 24.2054C67.3647 25.1462 67.7608 26.3831 67.7608 27.9171ZM65.4848 27.9991C65.4848 27.0183 65.2647 26.2099 64.8225 25.5735C64.3394 24.9099 63.6907 24.5781 62.8776 24.5781C62.3263 24.5781 61.8255 24.7629 61.378 25.1273C60.9295 25.4948 60.6361 25.9747 60.4988 26.5689C60.4296 26.8461 60.3951 27.0729 60.3951 27.2515V28.9315C60.3951 29.6643 60.6194 30.2828 61.0678 30.7879C61.5163 31.2929 62.099 31.5449 62.8157 31.5449C63.6572 31.5449 64.3121 31.2194 64.7806 30.5705C65.25 29.9205 65.4848 29.0637 65.4848 27.9991Z" fill="white"/>
<path d="M79.3269 27.9171C79.3269 29.6307 78.8648 30.9853 77.9394 31.9796C77.113 32.8647 76.0851 33.3068 74.8577 33.3068C73.5333 33.3068 72.5815 32.8301 72.0031 31.8767H71.9616V37.1845H69.727V26.3201C69.727 25.2428 69.6993 24.1371 69.6445 23.0031H71.6097L71.7344 24.6002H71.7759C72.5199 23.3969 73.6503 22.7963 75.1694 22.7963C76.3545 22.7963 77.3444 23.2657 78.1389 24.2054C78.9299 25.1462 79.3269 26.3831 79.3269 27.9171ZM77.0514 27.9991C77.0514 27.0183 76.8297 26.2099 76.3878 25.5735C75.905 24.9099 75.258 24.5781 74.4441 24.5781C73.8914 24.5781 73.3919 24.7629 72.9431 25.1273C72.4949 25.4948 72.2026 25.9747 72.0655 26.5689C71.9969 26.8461 71.9616 27.0729 71.9616 27.2515V28.9315C71.9616 29.6643 72.186 30.2828 72.6321 30.7879C73.0809 31.2919 73.6635 31.5449 74.3818 31.5449C75.2234 31.5449 75.8787 31.2194 76.3469 30.5705C76.8166 29.9205 77.0514 29.0637 77.0514 27.9991Z" fill="white"/>
<path d="M92.2578 29.16C92.2578 30.3486 91.8464 31.3157 91.0193 32.0622C90.1105 32.8781 88.8457 33.2855 87.2206 33.2855C85.7203 33.2855 84.5171 32.9957 83.6062 32.415L84.1243 30.5492C85.1052 31.1435 86.1809 31.4417 87.3536 31.4417C88.1952 31.4417 88.8498 31.2506 89.3208 30.8705C89.7891 30.4904 90.0225 29.9801 90.0225 29.3438C90.0225 28.7768 89.83 28.299 89.4434 27.9116C89.0583 27.5242 88.4162 27.164 87.5192 26.8312C85.0775 25.9187 83.8576 24.582 83.8576 22.8244C83.8576 21.6756 84.2857 20.7338 85.1419 20.0009C85.9946 19.267 87.1327 18.9005 88.5554 18.9005C89.8244 18.9005 90.8787 19.122 91.7203 19.5641L91.162 21.389C90.3758 20.9606 89.4871 20.7464 88.4931 20.7464C87.7069 20.7464 87.0925 20.9406 86.6526 21.327C86.2807 21.6725 86.0943 22.0936 86.0943 22.5923C86.0943 23.1446 86.307 23.6014 86.7344 23.9604C87.1063 24.2922 87.7824 24.6514 88.7632 25.0388C89.963 25.5228 90.844 26.0888 91.4114 26.7377C91.9759 27.3845 92.2578 28.194 92.2578 29.16Z" fill="white"/>
<path d="M99.6445 24.6817H97.182V29.5737C97.182 30.8179 97.6157 31.4395 98.485 31.4395C98.8846 31.4395 99.2158 31.4049 99.4776 31.3356L99.5392 33.0355C99.0994 33.2004 98.5196 33.2833 97.802 33.2833C96.9195 33.2833 96.2303 33.0135 95.7323 32.4748C95.237 31.9351 94.9876 31.03 94.9876 29.7585V24.6796H93.5205V22.9996H94.9876V21.1548L97.182 20.4912V22.9996H99.6445V24.6817Z" fill="white"/>
<path d="M110.756 27.9571C110.756 29.5058 110.314 30.7773 109.432 31.7717C108.507 32.7955 107.279 33.3057 105.748 33.3057C104.272 33.3057 103.097 32.8154 102.221 31.8347C101.345 30.854 100.907 29.6161 100.907 28.124C100.907 26.5627 101.357 25.2837 102.262 24.2894C103.164 23.294 104.382 22.7963 105.913 22.7963C107.389 22.7963 108.576 23.2867 109.472 24.2684C110.329 25.2207 110.756 26.4503 110.756 27.9571ZM108.438 28.0295C108.438 27.1003 108.24 26.3033 107.839 25.6387C107.371 24.8343 106.701 24.4333 105.834 24.4333C104.935 24.4333 104.253 24.8354 103.785 25.6387C103.384 26.3043 103.185 27.1139 103.185 28.0715C103.185 29.0007 103.384 29.7977 103.785 30.4613C104.267 31.2656 104.943 31.6667 105.814 31.6667C106.666 31.6667 107.336 31.2572 107.819 30.4403C108.231 29.7631 108.438 28.9577 108.438 28.0295Z" fill="white"/>
<path d="M118.017 24.9719C117.796 24.9309 117.56 24.9099 117.313 24.9099C116.527 24.9099 115.919 25.2071 115.491 25.8025C115.119 26.3275 114.933 26.9911 114.933 27.7922V33.0789H112.7L112.72 26.1763C112.72 25.0149 112.693 23.9576 112.636 23.0042H114.583L114.665 24.932H114.726C114.962 24.2695 115.334 23.7361 115.844 23.336C116.341 22.9759 116.878 22.7963 117.458 22.7963C117.665 22.7963 117.851 22.811 118.017 22.8373V24.9719Z" fill="white"/>
<path d="M128.008 27.5638C128.008 27.9649 127.981 28.303 127.926 28.5791H121.224C121.25 29.5745 121.573 30.3358 122.196 30.8608C122.761 31.3301 123.492 31.5653 124.388 31.5653C125.38 31.5653 126.286 31.4068 127.1 31.0887L127.45 32.6427C126.498 33.0585 125.376 33.2653 124.079 33.2653C122.52 33.2653 121.296 32.8054 120.405 31.8867C119.516 30.9679 119.071 29.7341 119.071 28.1865C119.071 26.6671 119.485 25.4019 120.314 24.3928C121.181 23.3155 122.354 22.7769 123.83 22.7769C125.279 22.7769 126.376 23.3155 127.121 24.3928C127.711 25.2485 128.008 26.3069 128.008 27.5638ZM125.877 26.9831C125.892 26.3195 125.746 25.7463 125.443 25.2622C125.057 24.6395 124.463 24.3287 123.663 24.3287C122.933 24.3287 122.338 24.6322 121.884 25.2412C121.513 25.7253 121.292 26.3059 121.224 26.9821H125.877V26.9831Z" fill="white"/>
<path d="M50.0892 6.44946C50.4319 6.44946 50.7519 6.49265 51.0493 6.57902C51.3531 6.65875 51.615 6.78167 51.8348 6.94777C52.0611 7.11387 52.2388 7.31986 52.3681 7.56567C52.4975 7.81147 52.5621 8.09387 52.5621 8.41278C52.5621 8.74501 52.4942 9.03403 52.3584 9.27984C52.2227 9.52564 52.0384 9.73166 51.8057 9.89773C52.0966 10.0705 52.3261 10.2964 52.4942 10.5754C52.6688 10.8479 52.756 11.1734 52.756 11.5521C52.756 11.891 52.6849 12.1899 52.5427 12.4491C52.4069 12.7016 52.2162 12.9175 51.9705 13.0969C51.7313 13.2696 51.4469 13.4025 51.1171 13.4955C50.7939 13.5818 50.448 13.6251 50.0795 13.6251C49.6399 13.6251 49.2585 13.5619 48.9352 13.4357C48.6119 13.3028 48.3404 13.1433 48.1206 12.9573C47.9073 12.7646 47.7456 12.562 47.6357 12.3494C47.5258 12.1301 47.4676 11.9374 47.4612 11.7714C47.4547 11.7116 47.4741 11.6617 47.5194 11.6219C47.5646 11.5754 47.6163 11.5521 47.6745 11.5521H48.1206C48.237 11.5521 48.321 11.6252 48.3727 11.7714C48.4115 11.891 48.4762 12.0072 48.5667 12.1202C48.6637 12.2331 48.7833 12.3361 48.9255 12.4291C49.0677 12.5155 49.2358 12.5886 49.4298 12.6484C49.6237 12.7016 49.8403 12.7281 50.0795 12.7281C50.3187 12.7281 50.545 12.7048 50.7583 12.6583C50.9717 12.6052 51.1559 12.5288 51.3111 12.4291C51.4727 12.3295 51.5988 12.2065 51.6893 12.0604C51.7863 11.9142 51.8348 11.7448 51.8348 11.5521C51.8348 11.3661 51.7895 11.2033 51.699 11.0638C51.615 10.9176 51.4953 10.7947 51.3402 10.695C51.1915 10.5954 51.0137 10.519 50.8068 10.4658C50.6064 10.4126 50.3898 10.3827 50.1571 10.3761H49.5849C49.5138 10.3761 49.4524 10.3496 49.4007 10.2964C49.3489 10.2432 49.3231 10.1801 49.3231 10.107V9.74824C49.3231 9.67513 49.3489 9.61206 49.4007 9.55889C49.4524 9.50571 49.5138 9.47916 49.5849 9.47916H50.0892C50.3026 9.47916 50.5029 9.45588 50.6905 9.4094C50.878 9.36291 51.0428 9.29642 51.185 9.21007C51.3272 9.11703 51.4372 9.00413 51.5147 8.87123C51.5988 8.73832 51.6408 8.58555 51.6408 8.41278C51.6408 8.24002 51.5988 8.08725 51.5147 7.95434C51.4372 7.82144 51.3272 7.71181 51.185 7.62546C51.0428 7.53242 50.878 7.46266 50.6905 7.41617C50.5029 7.36969 50.3026 7.34641 50.0892 7.34641C49.8759 7.34641 49.6819 7.37631 49.5074 7.43611C49.3392 7.48928 49.1906 7.56232 49.0613 7.65536C48.9385 7.74171 48.835 7.84137 48.7509 7.95434C48.6734 8.06732 48.6152 8.18356 48.5764 8.30316C48.5246 8.4493 48.4406 8.52241 48.3243 8.52241H47.8782C47.82 8.52241 47.7682 8.50248 47.723 8.46261C47.6778 8.41613 47.6584 8.36295 47.6648 8.30316C47.6713 8.13708 47.723 7.94772 47.82 7.73509C47.9234 7.51584 48.0721 7.31317 48.2661 7.12716C48.4665 6.93448 48.7154 6.77502 49.0128 6.64878C49.3167 6.5159 49.6755 6.44946 50.0892 6.44946ZM53.6265 12.2198C53.6265 11.9541 53.6783 11.7215 53.7817 11.5222C53.8852 11.3229 54.0274 11.1535 54.2084 11.0139C54.3894 10.8744 54.5995 10.7614 54.8387 10.6751C55.0844 10.5887 55.343 10.5223 55.6145 10.4758L56.9819 10.2465V10.117C56.9819 9.77814 56.872 9.52564 56.6522 9.35956C56.4388 9.18679 56.1705 9.10045 55.8473 9.10045C55.5629 9.10045 55.3463 9.15362 55.1975 9.2599C55.0553 9.36618 54.9325 9.49247 54.829 9.63862C54.7902 9.69179 54.7483 9.72831 54.703 9.74824C54.6577 9.76817 54.5963 9.77814 54.5187 9.77814H54.2278C54.1567 9.77814 54.092 9.75159 54.0338 9.69841C53.9822 9.64524 53.9595 9.58216 53.9659 9.50906C53.9789 9.36291 54.0338 9.21342 54.1308 9.06058C54.2343 8.90774 54.3701 8.77156 54.5381 8.65197C54.7127 8.53238 54.9099 8.43606 55.1297 8.36295C55.356 8.28323 55.5951 8.24336 55.8473 8.24336C56.1382 8.24336 56.4065 8.28657 56.6522 8.37292C56.9043 8.45927 57.1177 8.58555 57.2922 8.75163C57.4733 8.91771 57.6122 9.12372 57.7092 9.36953C57.8127 9.61534 57.8644 9.89773 57.8644 10.2166V13.2563C57.8644 13.3294 57.8385 13.3925 57.7868 13.4457C57.7351 13.4988 57.6737 13.5254 57.6025 13.5254H57.2437C57.1727 13.5254 57.1112 13.4988 57.0595 13.4457C57.0078 13.3925 56.9819 13.3294 56.9819 13.2563V12.8477C56.9237 12.9739 56.8332 13.0869 56.7104 13.1865C56.5875 13.2796 56.4453 13.3593 56.2837 13.4257C56.1285 13.4922 55.9636 13.542 55.7891 13.5752C55.621 13.6085 55.4626 13.6251 55.3139 13.6251C55.0618 13.6251 54.829 13.5885 54.6157 13.5154C54.4088 13.4423 54.231 13.346 54.0823 13.2264C53.9401 13.1002 53.827 12.9507 53.7429 12.7779C53.6653 12.6052 53.6265 12.4192 53.6265 12.2198ZM55.4109 12.768C55.6436 12.768 55.857 12.7315 56.0509 12.6583C56.2449 12.5852 56.4097 12.4856 56.5455 12.3594C56.6878 12.2265 56.7944 12.0703 56.8655 11.891C56.9431 11.7116 56.9819 11.5122 56.9819 11.293V11.0438L55.8376 11.2332C55.4303 11.2996 55.1071 11.406 54.8678 11.5521C54.6286 11.6983 54.509 11.8876 54.509 12.1202C54.509 12.1933 54.5252 12.2663 54.5575 12.3394C54.5898 12.4125 54.6416 12.4823 54.7127 12.5487C54.7838 12.6151 54.8743 12.6683 54.9842 12.7082C55.1006 12.748 55.2428 12.768 55.4109 12.768ZM60.1617 11.3428V12.6583H61.8006C62.1239 12.6583 62.3825 12.6119 62.5764 12.5188C62.7704 12.4192 62.8673 12.2431 62.8673 11.9906C62.8673 11.7381 62.7736 11.5687 62.5861 11.4823C62.4051 11.3893 62.153 11.3428 61.8297 11.3428H60.1617ZM60.1617 9.21007V10.4758H61.7521C62.0754 10.4758 62.3243 10.4326 62.4988 10.3462C62.6734 10.2532 62.7607 10.0805 62.7607 9.82797C62.7607 9.57547 62.6637 9.40939 62.4697 9.32967C62.2822 9.24994 62.0269 9.21007 61.7036 9.21007H60.1617ZM59.4732 13.5254C59.4214 13.5254 59.3762 13.5055 59.3374 13.4656C59.2986 13.4257 59.2792 13.3792 59.2792 13.3261V8.54234C59.2792 8.48917 59.2986 8.44268 59.3374 8.40282C59.3762 8.36295 59.4214 8.34302 59.4732 8.34302H61.8782C62.4342 8.34302 62.8673 8.46924 63.1777 8.72173C63.488 8.97423 63.6431 9.30973 63.6431 9.72831C63.6431 9.88115 63.6237 10.014 63.585 10.127C63.5526 10.2399 63.5074 10.3396 63.4492 10.4259C63.3974 10.5123 63.3361 10.5887 63.2649 10.6552C63.2003 10.7216 63.1324 10.7814 63.0613 10.8345C63.3264 10.9874 63.5074 11.1634 63.6044 11.3628C63.7013 11.5621 63.7498 11.7913 63.7498 12.0504C63.7498 12.5288 63.5882 12.8942 63.2649 13.1467C62.9482 13.3992 62.5215 13.5254 61.9849 13.5254H59.4732ZM64.6216 12.2198C64.6216 11.9541 64.6732 11.7215 64.7767 11.5222C64.8801 11.3229 65.0223 11.1535 65.2034 11.0139C65.3844 10.8744 65.5945 10.7614 65.8338 10.6751C66.0794 10.5887 66.338 10.5223 66.6096 10.4758L67.9769 10.2465V10.117C67.9769 9.77814 67.867 9.52564 67.6472 9.35956C67.4338 9.18679 67.1655 9.10045 66.8423 9.10045C66.5578 9.10045 66.3412 9.15362 66.1926 9.2599C66.0503 9.36618 65.9275 9.49247 65.8241 9.63862C65.7853 9.69179 65.7432 9.72831 65.698 9.74824C65.6527 9.76817 65.5913 9.77814 65.5137 9.77814H65.2228C65.1517 9.77814 65.087 9.75159 65.0289 9.69841C64.9771 9.64524 64.9545 9.58216 64.961 9.50906C64.9739 9.36291 65.0289 9.21342 65.1258 9.06058C65.2292 8.90774 65.365 8.77156 65.5331 8.65197C65.7077 8.53238 65.9048 8.43606 66.1247 8.36295C66.3509 8.28323 66.5902 8.24336 66.8423 8.24336C67.1332 8.24336 67.4015 8.28657 67.6472 8.37292C67.8993 8.45927 68.1127 8.58555 68.2872 8.75163C68.4682 8.91771 68.6073 9.12372 68.7042 9.36953C68.8076 9.61534 68.8594 9.89773 68.8594 10.2166V13.2563C68.8594 13.3294 68.8335 13.3925 68.7818 13.4457C68.7301 13.4988 68.6686 13.5254 68.5976 13.5254H68.2387C68.1676 13.5254 68.1062 13.4988 68.0545 13.4457C68.0028 13.3925 67.9769 13.3294 67.9769 13.2563V12.8477C67.9187 12.9739 67.8282 13.0869 67.7054 13.1865C67.5825 13.2796 67.4403 13.3593 67.2787 13.4257C67.1235 13.4922 66.9587 13.542 66.7841 13.5752C66.616 13.6085 66.4576 13.6251 66.3089 13.6251C66.0568 13.6251 65.8241 13.5885 65.6107 13.5154C65.4038 13.4423 65.226 13.346 65.0773 13.2264C64.9351 13.1002 64.8219 12.9507 64.7379 12.7779C64.6603 12.6052 64.6216 12.4192 64.6216 12.2198ZM66.4059 12.768C66.6386 12.768 66.852 12.7315 67.0459 12.6583C67.2399 12.5852 67.4048 12.4856 67.5405 12.3594C67.6827 12.2265 67.7894 12.0703 67.8605 11.891C67.9381 11.7116 67.9769 11.5122 67.9769 11.293V11.0438L66.8326 11.2332C66.4253 11.2996 66.102 11.406 65.8628 11.5521C65.6236 11.6983 65.504 11.8876 65.504 12.1202C65.504 12.1933 65.5202 12.2663 65.5525 12.3394C65.5848 12.4125 65.6365 12.4823 65.7077 12.5487C65.7788 12.6151 65.8693 12.6683 65.9792 12.7082C66.0956 12.748 66.2378 12.768 66.4059 12.768ZM74.5118 8.34302C74.5832 8.34302 74.6448 8.36957 74.6961 8.42275C74.748 8.47593 74.7737 8.539 74.7737 8.61211V13.2563C74.7737 13.3294 74.748 13.3925 74.6961 13.4457C74.6448 13.4988 74.5832 13.5254 74.5118 13.5254H74.153C74.0824 13.5254 74.0207 13.4988 73.9688 13.4457C73.9175 13.3925 73.8912 13.3294 73.8912 13.2563V11.3129H71.1565V13.2563C71.1565 13.3294 71.1308 13.3925 71.0789 13.4457C71.0276 13.4988 70.966 13.5254 70.8946 13.5254H70.5358C70.4652 13.5254 70.4035 13.5021 70.3516 13.4556C70.3003 13.4025 70.274 13.336 70.274 13.2563V8.61211C70.274 8.539 70.3003 8.47593 70.3516 8.42275C70.4035 8.36957 70.4652 8.34302 70.5358 8.34302H70.8946C70.966 8.34302 71.0276 8.36957 71.0789 8.42275C71.1308 8.47593 71.1565 8.539 71.1565 8.61211V10.4558H73.8912V8.61211C73.8912 8.539 73.9175 8.47593 73.9688 8.42275C74.0207 8.36957 74.0824 8.34302 74.153 8.34302H74.5118ZM80.1489 8.34302C80.2202 8.34302 80.2812 8.36957 80.3331 8.42275C80.3851 8.47593 80.4107 8.539 80.4107 8.61211V8.93102C80.4107 9.00413 80.3851 9.0672 80.3331 9.12038C80.2812 9.17355 80.2202 9.20011 80.1489 9.20011H78.4712V13.2563C78.4712 13.3294 78.4456 13.3925 78.3936 13.4457C78.3417 13.4988 78.2807 13.5254 78.2094 13.5254H77.8506C77.7792 13.5254 77.7183 13.4988 77.6663 13.4457C77.6143 13.3925 77.5887 13.3294 77.5887 13.2563V9.20011H75.911C75.8397 9.20011 75.7787 9.17355 75.7268 9.12038C75.6748 9.0672 75.6492 9.00413 75.6492 8.93102V8.61211C75.6492 8.539 75.6748 8.47593 75.7268 8.42275C75.7787 8.36957 75.8397 8.34302 75.911 8.34302H80.1489ZM80.8533 12.2198C80.8533 11.9541 80.9053 11.7215 81.0085 11.5222C81.1124 11.3229 81.2544 11.1535 81.4352 11.0139C81.6167 10.8744 81.8266 10.7614 82.0655 10.6751C82.3114 10.5887 82.5698 10.5223 82.8413 10.4758L84.2087 10.2465V10.117C84.2087 9.77814 84.0992 9.52564 83.879 9.35956C83.6656 9.18679 83.3976 9.10045 83.0741 9.10045C82.7901 9.10045 82.5733 9.15362 82.4243 9.2599C82.2823 9.36618 82.1597 9.49247 82.0558 9.63862C82.017 9.69179 81.9755 9.72831 81.9298 9.74824C81.8847 9.76817 81.8231 9.77814 81.7455 9.77814H81.4546C81.3839 9.77814 81.3188 9.75159 81.2606 9.69841C81.2094 9.64524 81.1865 9.58216 81.1927 9.50906C81.2059 9.36291 81.2606 9.21342 81.3576 9.06058C81.4615 8.90774 81.5973 8.77156 81.7649 8.65197C81.9395 8.53238 82.1369 8.43606 82.3565 8.36295C82.583 8.28323 82.8219 8.24336 83.0741 8.24336C83.365 8.24336 83.6338 8.28657 83.879 8.37292C84.1311 8.45927 84.3445 8.58555 84.519 8.75163C84.7005 8.91771 84.839 9.12372 84.936 9.36953C85.0399 9.61534 85.0912 9.89773 85.0912 10.2166V13.2563C85.0912 13.3294 85.0655 13.3925 85.0136 13.4457C84.9623 13.4988 84.9007 13.5254 84.8293 13.5254H84.4705C84.3999 13.5254 84.3382 13.4988 84.2863 13.4457C84.235 13.3925 84.2087 13.3294 84.2087 13.2563V12.8477C84.1505 12.9739 84.0605 13.0869 83.9372 13.1865C83.8146 13.2796 83.6726 13.3593 83.5105 13.4257C83.3553 13.4922 83.1904 13.542 83.0159 13.5752C82.8483 13.6085 82.6896 13.6251 82.5407 13.6251C82.2886 13.6251 82.0558 13.5885 81.8425 13.5154C81.6361 13.4423 81.458 13.346 81.3091 13.2264C81.1671 13.1002 81.0542 12.9507 80.9697 12.7779C80.8921 12.6052 80.8533 12.4192 80.8533 12.2198ZM82.6377 12.768C82.8704 12.768 83.0838 12.7315 83.2777 12.6583C83.4717 12.5852 83.6365 12.4856 83.7723 12.3594C83.915 12.2265 84.0217 12.0703 84.0923 11.891C84.1699 11.7116 84.2087 11.5122 84.2087 11.293V11.0438L83.0644 11.2332C82.6571 11.2996 82.3343 11.406 82.0946 11.5521C81.8556 11.6983 81.7358 11.8876 81.7358 12.1202C81.7358 12.1933 81.7524 12.2663 81.7843 12.3394C81.8169 12.4125 81.8688 12.4823 81.9395 12.5487C82.0108 12.6151 82.1015 12.6683 82.211 12.7082C82.3274 12.748 82.4701 12.768 82.6377 12.768ZM86.8554 8.34302C86.9392 8.34302 87.0044 8.3663 87.0494 8.41278C87.1013 8.45927 87.1401 8.49913 87.1658 8.53238L88.4167 10.1469V8.61211C88.4167 8.539 88.4424 8.47593 88.4943 8.42275C88.5463 8.36957 88.6072 8.34302 88.6786 8.34302H89.0374C89.1087 8.34302 89.1697 8.36957 89.2216 8.42275C89.2736 8.47593 89.2992 8.539 89.2992 8.61211V10.1469L90.5502 8.53238C90.5758 8.49913 90.6119 8.45927 90.6569 8.41278C90.7088 8.3663 90.7767 8.34302 90.8605 8.34302H91.326C91.3904 8.34302 91.4458 8.3663 91.4909 8.41278C91.5359 8.45927 91.5587 8.51245 91.5587 8.57224C91.5587 8.62542 91.5456 8.6719 91.52 8.71177L89.8423 10.8744L91.6169 13.1566C91.6426 13.1965 91.6557 13.243 91.6557 13.2962C91.6557 13.356 91.6329 13.4091 91.5878 13.4556C91.5428 13.5021 91.4874 13.5254 91.423 13.5254H90.9769C90.8931 13.5254 90.8252 13.5021 90.7733 13.4556C90.7282 13.4091 90.6922 13.3693 90.6666 13.336L89.2992 11.572V13.2563C89.2992 13.3294 89.2736 13.3925 89.2216 13.4457C89.1697 13.4988 89.1087 13.5254 89.0374 13.5254H88.6786C88.6072 13.5254 88.5463 13.4988 88.4943 13.4457C88.4424 13.3925 88.4167 13.3294 88.4167 13.2563V11.572L87.0494 13.336C87.0238 13.3693 86.985 13.4091 86.933 13.4556C86.888 13.5021 86.8229 13.5254 86.7391 13.5254H86.293C86.2286 13.5254 86.1731 13.5021 86.1281 13.4556C86.0831 13.4091 86.0602 13.356 86.0602 13.2962C86.0602 13.243 86.0734 13.1965 86.099 13.1566L87.8737 10.8744L86.196 8.71177C86.1704 8.6719 86.1572 8.62542 86.1572 8.57224C86.1572 8.51245 86.1801 8.45927 86.2251 8.41278C86.2701 8.3663 86.3255 8.34302 86.3899 8.34302H86.8554ZM96.5412 13.5254C96.4699 13.5254 96.4082 13.4988 96.357 13.4457C96.305 13.3925 96.2794 13.3294 96.2794 13.2563V9.91767L93.4574 13.4158C93.4054 13.4889 93.3341 13.5254 93.244 13.5254H92.9143C92.843 13.5254 92.7813 13.4988 92.7301 13.4457C92.6844 13.3925 92.6622 13.3294 92.6622 13.2563V8.61211C92.6622 8.539 92.6878 8.47593 92.7398 8.42275C92.791 8.36957 92.8527 8.34302 92.924 8.34302H93.2828C93.3535 8.34302 93.4151 8.36957 93.4671 8.42275C93.5183 8.47593 93.5447 8.539 93.5447 8.61211V11.9806L96.3667 8.45265C96.3985 8.4194 96.4276 8.39285 96.4539 8.37292C96.4858 8.35299 96.5281 8.34302 96.58 8.34302H96.9C96.9707 8.34302 97.0323 8.36957 97.0843 8.42275C97.1355 8.47593 97.1619 8.539 97.1619 8.61211V13.2563C97.1619 13.3294 97.1355 13.3925 97.0843 13.4457C97.0323 13.4988 96.9707 13.5254 96.9 13.5254H96.5412ZM102.536 8.34302C102.608 8.34302 102.669 8.36957 102.721 8.42275C102.773 8.47593 102.798 8.539 102.798 8.61211V8.93102C102.798 9.00413 102.773 9.0672 102.721 9.12038C102.669 9.17355 102.608 9.20011 102.536 9.20011H100.859V13.2563C100.859 13.3294 100.833 13.3925 100.781 13.4457C100.73 13.4988 100.668 13.5254 100.597 13.5254H100.238C100.167 13.5254 100.106 13.4988 100.054 13.4457C100.003 13.3925 99.9762 13.3294 99.9762 13.2563V9.20011H98.2986C98.2279 9.20011 98.1662 9.17355 98.1143 9.12038C98.063 9.0672 98.0367 9.00413 98.0367 8.93102V8.61211C98.0367 8.539 98.063 8.47593 98.1143 8.42275C98.1662 8.36957 98.2279 8.34302 98.2986 8.34302H102.536ZM107.555 13.5254C107.484 13.5254 107.423 13.4988 107.371 13.4457C107.319 13.3925 107.293 13.3294 107.293 13.2563V9.91767L104.471 13.4158C104.419 13.4889 104.348 13.5254 104.258 13.5254H103.928C103.857 13.5254 103.796 13.4988 103.744 13.4457C103.699 13.3925 103.676 13.3294 103.676 13.2563V8.61211C103.676 8.539 103.701 8.47593 103.753 8.42275C103.805 8.36957 103.866 8.34302 103.938 8.34302H104.296C104.368 8.34302 104.429 8.36957 104.481 8.42275C104.533 8.47593 104.558 8.539 104.558 8.61211V11.9806L107.38 8.45265C107.413 8.4194 107.442 8.39285 107.468 8.37292C107.5 8.35299 107.542 8.34302 107.594 8.34302H107.914C107.985 8.34302 108.046 8.36957 108.098 8.42275C108.15 8.47593 108.176 8.539 108.176 8.61211V13.2563C108.176 13.3294 108.15 13.3925 108.098 13.4457C108.046 13.4988 107.985 13.5254 107.914 13.5254H107.555ZM112.883 11.3428V12.6583H114.522C114.845 12.6583 115.104 12.6119 115.298 12.5188C115.492 12.4192 115.589 12.2431 115.589 11.9906C115.589 11.7381 115.494 11.5687 115.307 11.4823C115.126 11.3893 114.874 11.3428 114.551 11.3428H112.883ZM112.883 9.21007V10.4758H114.473C114.796 10.4758 115.046 10.4326 115.22 10.3462C115.395 10.2532 115.482 10.0805 115.482 9.82797C115.482 9.57547 115.385 9.40939 115.191 9.32967C115.003 9.24994 114.748 9.21007 114.425 9.21007H112.883ZM112.194 13.5254C112.143 13.5254 112.097 13.5055 112.059 13.4656C112.02 13.4257 112.001 13.3792 112.001 13.3261V8.54234C112.001 8.48917 112.02 8.44268 112.059 8.40282C112.097 8.36295 112.143 8.34302 112.194 8.34302H114.599C115.155 8.34302 115.589 8.46924 115.899 8.72173C116.209 8.97423 116.364 9.30973 116.364 9.72831C116.364 9.88115 116.345 10.014 116.306 10.127C116.274 10.2399 116.229 10.3396 116.17 10.4259C116.119 10.5123 116.057 10.5887 115.986 10.6552C115.921 10.7216 115.853 10.7814 115.783 10.8345C116.047 10.9874 116.229 11.1634 116.326 11.3628C116.423 11.5621 116.471 11.7913 116.471 12.0504C116.471 12.5288 116.309 12.8942 115.986 13.1467C115.669 13.3992 115.242 13.5254 114.706 13.5254H112.194Z" fill="white"/>
</svg>
