<svg width="142" height="42" viewBox="0 0 142 42" fill="none" xmlns="http://www.w3.org/2000/svg">
<g clip-path="url(#clip0_1636_2835)">
<path d="M136.707 42H5.25797C2.3674 42 0 39.6362 0 36.75V5.25C0 2.36382 2.3674 0 5.25797 0H136.707C139.598 0 141.965 2.36382 141.965 5.25V36.75C141.965 39.6362 139.598 42 136.707 42Z" fill="#0D1E31"/>
<path d="M71.6503 22.841C69.18 22.841 67.1622 24.7179 67.1622 27.3074C67.1622 29.876 69.18 31.7726 71.6503 31.7726C74.1248 31.7726 76.1427 29.876 76.1427 27.3074C76.1427 24.7179 74.1248 22.841 71.6503 22.841ZM71.6503 30.0138C70.295 30.0138 69.1287 28.8969 69.1287 27.3074C69.1287 25.697 70.295 24.5998 71.6503 24.5998C73.0048 24.5998 74.1763 25.697 74.1763 27.3074C74.1763 28.8969 73.0048 30.0138 71.6503 30.0138ZM61.8582 22.841C59.3831 22.841 57.3706 24.7179 57.3706 27.3074C57.3706 29.876 59.3831 31.7726 61.8582 31.7726C64.3321 31.7726 66.3459 29.876 66.3459 27.3074C66.3459 24.7179 64.3321 22.841 61.8582 22.841ZM61.8582 30.0138C60.5017 30.0138 59.3318 28.8969 59.3318 27.3074C59.3318 25.697 60.5017 24.5998 61.8582 24.5998C63.2135 24.5998 64.3794 25.697 64.3794 27.3074C64.3794 28.8969 63.2135 30.0138 61.8582 30.0138ZM50.2066 24.2099V26.1078H54.7456C54.6128 27.1683 54.2579 27.9479 53.7136 28.4913C53.0512 29.1476 52.0193 29.876 50.2066 29.876C47.4133 29.876 45.226 27.625 45.226 24.836C45.226 22.0469 47.4133 19.796 50.2066 19.796C51.7169 19.796 52.8159 20.3853 53.6269 21.1492L54.9664 19.8118C53.832 18.7302 52.3229 17.8994 50.2066 17.8994C46.3762 17.8994 43.157 21.0114 43.157 24.836C43.157 28.6606 46.3762 31.7726 50.2066 31.7726C52.2769 31.7726 53.832 31.0953 55.0544 29.8248C56.3072 28.574 56.6976 26.8152 56.6976 25.3951C56.6976 24.9541 56.6608 24.5486 56.5951 24.2099H50.2066ZM97.852 25.6812C97.4824 24.6824 96.3429 22.841 94.0215 22.841C91.721 22.841 89.8054 24.6509 89.8054 27.3074C89.8054 29.809 91.7015 31.7726 94.2422 31.7726C96.2963 31.7726 97.4824 30.5218 97.9697 29.7933L96.4453 28.7788C95.9364 29.5216 95.2438 30.0138 94.2422 30.0138C93.2468 30.0138 92.5333 29.5584 92.076 28.6606L98.0581 26.1892L97.852 25.6812ZM91.7523 27.1683C91.7015 25.4463 93.0923 24.5643 94.0883 24.5643C94.8694 24.5643 95.5313 24.9541 95.7527 25.5119L91.7523 27.1683ZM86.8902 31.5009H88.8566V18.3759H86.8902V31.5009ZM83.6694 23.8359H83.604C83.162 23.3135 82.3197 22.841 81.252 22.841C79.0127 22.841 76.9641 24.8045 76.9641 27.3219C76.9641 29.8248 79.0127 31.7726 81.252 31.7726C82.3197 31.7726 83.162 31.2961 83.604 30.758H83.6694V31.3985C83.6694 33.106 82.7562 34.0235 81.2826 34.0235C80.0812 34.0235 79.3357 33.1572 79.028 32.4288L77.3177 33.1415C77.8112 34.3254 79.1164 35.7822 81.2826 35.7822C83.588 35.7822 85.5335 34.4278 85.5335 31.132V23.1127H83.6694V23.8359ZM81.4204 30.0138C80.0651 30.0138 78.9305 28.8811 78.9305 27.3219C78.9305 25.7482 80.0651 24.5998 81.4204 24.5998C82.7562 24.5998 83.8087 25.7482 83.8087 27.3219C83.8087 28.8811 82.7562 30.0138 81.4204 30.0138ZM107.058 18.3759H102.355V31.5009H104.317V26.5278H107.058C109.236 26.5278 111.373 24.9541 111.373 22.4512C111.373 19.9496 109.232 18.3759 107.058 18.3759ZM107.11 24.7021H104.317V20.2016H107.11C108.574 20.2016 109.41 21.4156 109.41 22.4512C109.41 23.467 108.574 24.7021 107.11 24.7021ZM119.233 22.816C117.816 22.816 116.343 23.4408 115.736 24.8255L117.477 25.5539C117.852 24.8255 118.54 24.5892 119.269 24.5892C120.286 24.5892 121.318 25.1996 121.334 26.2771V26.4149C120.979 26.2102 120.219 25.907 119.284 25.907C117.41 25.907 115.5 26.9373 115.5 28.8601C115.5 30.6189 117.035 31.7516 118.762 31.7516C120.081 31.7516 120.809 31.157 121.267 30.4653H121.334V31.4799H123.228V26.4451C123.228 24.118 121.487 22.816 119.233 22.816ZM118.997 30.0086C118.355 30.0086 117.461 29.6909 117.461 28.8969C117.461 27.881 118.576 27.4912 119.541 27.4912C120.404 27.4912 120.809 27.6815 121.334 27.9322C121.18 29.1476 120.132 30.0086 118.997 30.0086ZM130.129 23.1035L127.875 28.7932H127.808L125.477 23.1035H123.362L126.864 31.0546L124.866 35.479H126.915L132.311 23.1035H130.129ZM112.45 31.5009H114.417V18.3759H112.45V31.5009Z" fill="white"/>
<path d="M10.9723 7.91631C10.6634 8.23921 10.4846 8.74193 10.4846 9.39293V32.6137C10.4846 33.2647 10.6634 33.7674 10.9723 34.0902L11.0485 34.1611L24.0804 21.1542V20.8471L11.0485 7.84021L10.9723 7.91631Z" fill="url(#paint0_linear_1636_2835)"/>
<path d="M28.4219 25.4909L24.0828 21.1531V20.846L28.4271 16.5082L28.5244 16.5646L33.6693 19.4875C35.1376 20.317 35.1376 21.682 33.6693 22.5168L28.5244 25.4345L28.4219 25.4909Z" fill="url(#paint1_linear_1636_2835)"/>
<path d="M28.5239 25.4352L24.0823 21.0002L10.9741 34.0898C11.4618 34.6016 12.2571 34.6633 13.1615 34.1514L28.5239 25.4352Z" fill="url(#paint2_linear_1636_2835)"/>
<path d="M28.5239 16.5651L13.1615 7.84876C12.2571 7.34212 11.4618 7.40384 10.9741 7.91574L24.0823 21L28.5239 16.5651Z" fill="url(#paint3_linear_1636_2835)"/>
<path d="M46.1582 6.44946C46.5026 6.44946 46.8242 6.49265 47.123 6.57902C47.4284 6.65875 47.6915 6.78167 47.9124 6.94777C48.1398 7.11387 48.3184 7.31986 48.4483 7.56567C48.5783 7.81147 48.6432 8.09387 48.6432 8.41278C48.6432 8.74501 48.575 9.03403 48.4386 9.27984C48.3022 9.52564 48.117 9.73166 47.8831 9.89773C48.1755 10.0705 48.4061 10.2964 48.575 10.5754C48.7504 10.8479 48.8381 11.1734 48.8381 11.5521C48.8381 11.891 48.7667 12.1899 48.6238 12.4491C48.4873 12.7016 48.2957 12.9175 48.0488 13.0969C47.8084 13.2696 47.5226 13.4025 47.1912 13.4955C46.8664 13.5818 46.5188 13.6251 46.1485 13.6251C45.7067 13.6251 45.3234 13.5619 44.9986 13.4357C44.6737 13.3028 44.4009 13.1433 44.18 12.9573C43.9656 12.7646 43.8032 12.562 43.6927 12.3494C43.5823 12.1301 43.5238 11.9374 43.5173 11.7714C43.5109 11.7116 43.5303 11.6617 43.5758 11.6219C43.6212 11.5754 43.6732 11.5521 43.7317 11.5521H44.18C44.2969 11.5521 44.3814 11.6252 44.4334 11.7714C44.4723 11.891 44.5373 12.0072 44.6283 12.1202C44.7257 12.2331 44.8459 12.3361 44.9888 12.4291C45.1317 12.5155 45.3007 12.5886 45.4956 12.6484C45.6905 12.7016 45.9081 12.7281 46.1485 12.7281C46.3889 12.7281 46.6163 12.7048 46.8307 12.6583C47.045 12.6052 47.2302 12.5288 47.3861 12.4291C47.5485 12.3295 47.6752 12.2065 47.7662 12.0604C47.8636 11.9142 47.9124 11.7448 47.9124 11.5521C47.9124 11.3661 47.8669 11.2033 47.7759 11.0638C47.6915 10.9176 47.5713 10.7947 47.4154 10.695C47.2659 10.5954 47.0873 10.519 46.8794 10.4658C46.678 10.4126 46.4603 10.3827 46.2265 10.3761H45.6515C45.58 10.3761 45.5183 10.3496 45.4663 10.2964C45.4143 10.2432 45.3884 10.1801 45.3884 10.107V9.74824C45.3884 9.67513 45.4143 9.61206 45.4663 9.55889C45.5183 9.50571 45.58 9.47916 45.6515 9.47916H46.1582C46.3726 9.47916 46.574 9.45588 46.7624 9.4094C46.9509 9.36291 47.1165 9.29642 47.2594 9.21007C47.4023 9.11703 47.5128 9.00413 47.5908 8.87123C47.6752 8.73832 47.7175 8.58555 47.7175 8.41278C47.7175 8.24002 47.6752 8.08725 47.5908 7.95434C47.5128 7.82144 47.4023 7.71181 47.2594 7.62546C47.1165 7.53242 46.9509 7.46266 46.7624 7.41617C46.574 7.36969 46.3726 7.34641 46.1582 7.34641C45.9438 7.34641 45.749 7.37631 45.5735 7.43611C45.4046 7.48928 45.2552 7.56232 45.1253 7.65536C45.0019 7.74171 44.8979 7.84137 44.8134 7.95434C44.7355 8.06732 44.677 8.18356 44.638 8.30316C44.586 8.4493 44.5016 8.52241 44.3846 8.52241H43.9364C43.8779 8.52241 43.8259 8.50248 43.7804 8.46261C43.735 8.41613 43.7155 8.36295 43.722 8.30316C43.7284 8.13708 43.7804 7.94772 43.8779 7.73509C43.9818 7.51584 44.1313 7.31317 44.3262 7.12716C44.5275 6.93448 44.7777 6.77502 45.0765 6.64878C45.3819 6.5159 45.7425 6.44946 46.1582 6.44946ZM49.7129 12.2198C49.7129 11.9541 49.7649 11.7215 49.8688 11.5222C49.9728 11.3229 50.1157 11.1535 50.2976 11.0139C50.4796 10.8744 50.6907 10.7614 50.931 10.6751C51.1779 10.5887 51.4378 10.5223 51.7107 10.4758L53.0847 10.2465V10.117C53.0847 9.77814 52.9743 9.52564 52.7534 9.35956C52.539 9.18679 52.2694 9.10045 51.9445 9.10045C51.6587 9.10045 51.4411 9.15362 51.2916 9.2599C51.1487 9.36618 51.0253 9.49247 50.9213 9.63862C50.8823 9.69179 50.8401 9.72831 50.7946 9.74824C50.7492 9.76817 50.6874 9.77814 50.6095 9.77814H50.3171C50.2457 9.77814 50.1807 9.75159 50.1222 9.69841C50.0703 9.64524 50.0475 9.58216 50.054 9.50906C50.067 9.36291 50.1222 9.21342 50.2197 9.06058C50.3236 8.90774 50.4601 8.77156 50.629 8.65197C50.8044 8.53238 51.0025 8.43606 51.2234 8.36295C51.4508 8.28323 51.6912 8.24336 51.9445 8.24336C52.2369 8.24336 52.5065 8.28657 52.7534 8.37292C53.0068 8.45927 53.2211 8.58555 53.3966 8.75163C53.5785 8.91771 53.7181 9.12372 53.8156 9.36953C53.9196 9.61534 53.9715 9.89773 53.9715 10.2166V13.2563C53.9715 13.3294 53.9456 13.3925 53.8936 13.4457C53.8416 13.4988 53.7799 13.5254 53.7084 13.5254H53.3478C53.2764 13.5254 53.2147 13.4988 53.1627 13.4457C53.1107 13.3925 53.0847 13.3294 53.0847 13.2563V12.8477C53.0262 12.9739 52.9353 13.0869 52.8118 13.1865C52.6884 13.2796 52.5455 13.3593 52.3831 13.4257C52.2271 13.4922 52.0615 13.542 51.8861 13.5752C51.7172 13.6085 51.558 13.6251 51.4086 13.6251C51.1552 13.6251 50.9213 13.5885 50.7069 13.5154C50.4991 13.4423 50.3204 13.346 50.1709 13.2264C50.028 13.1002 49.9144 12.9507 49.8299 12.7779C49.7519 12.6052 49.7129 12.4192 49.7129 12.2198ZM51.506 12.768C51.7399 12.768 51.9543 12.7315 52.1492 12.6583C52.3441 12.5852 52.5098 12.4856 52.6462 12.3594C52.7892 12.2265 52.8964 12.0703 52.9678 11.891C53.0457 11.7116 53.0847 11.5122 53.0847 11.293V11.0438L51.9348 11.2332C51.5255 11.2996 51.2007 11.406 50.9603 11.5521C50.7199 11.6983 50.5997 11.8876 50.5997 12.1202C50.5997 12.1933 50.616 12.2663 50.6484 12.3394C50.6809 12.4125 50.7329 12.4823 50.8044 12.5487C50.8758 12.6151 50.9668 12.6683 51.0772 12.7082C51.1942 12.748 51.3371 12.768 51.506 12.768ZM56.2801 11.3428V12.6583H57.9271C58.2519 12.6583 58.5118 12.6119 58.7067 12.5188C58.9016 12.4192 58.999 12.2431 58.999 11.9906C58.999 11.7381 58.9048 11.5687 58.7164 11.4823C58.5345 11.3893 58.2811 11.3428 57.9563 11.3428H56.2801ZM56.2801 9.21007V10.4758H57.8783C58.2032 10.4758 58.4533 10.4326 58.6287 10.3462C58.8041 10.2532 58.8918 10.0805 58.8918 9.82797C58.8918 9.57547 58.7944 9.40939 58.5995 9.32967C58.411 9.24994 58.1545 9.21007 57.8296 9.21007H56.2801ZM55.5882 13.5254C55.5362 13.5254 55.4908 13.5055 55.4518 13.4656C55.4128 13.4257 55.3933 13.3792 55.3933 13.3261V8.54234C55.3933 8.48917 55.4128 8.44268 55.4518 8.40282C55.4908 8.36295 55.5362 8.34302 55.5882 8.34302H58.005C58.5638 8.34302 58.999 8.46924 59.3109 8.72173C59.6227 8.97423 59.7786 9.30973 59.7786 9.72831C59.7786 9.88115 59.7591 10.014 59.7202 10.127C59.6876 10.2399 59.6422 10.3396 59.5837 10.4259C59.5317 10.5123 59.47 10.5887 59.3986 10.6552C59.3336 10.7216 59.2654 10.7814 59.1939 10.8345C59.4603 10.9874 59.6422 11.1634 59.7396 11.3628C59.8371 11.5621 59.8858 11.7913 59.8858 12.0504C59.8858 12.5288 59.7234 12.8942 59.3986 13.1467C59.0802 13.3992 58.6515 13.5254 58.1122 13.5254H55.5882ZM60.7618 12.2198C60.7618 11.9541 60.8138 11.7215 60.9178 11.5222C61.0217 11.3229 61.1646 11.1535 61.3465 11.0139C61.5284 10.8744 61.7395 10.7614 61.98 10.6751C62.2268 10.5887 62.4867 10.5223 62.7596 10.4758L64.1336 10.2465V10.117C64.1336 9.77814 64.0232 9.52564 63.8023 9.35956C63.5879 9.18679 63.3183 9.10045 62.9935 9.10045C62.7076 9.10045 62.4899 9.15362 62.3405 9.2599C62.1976 9.36618 62.0742 9.49247 61.9702 9.63862C61.9312 9.69179 61.889 9.72831 61.8435 9.74824C61.798 9.76817 61.7363 9.77814 61.6584 9.77814H61.366C61.2945 9.77814 61.2296 9.75159 61.1711 9.69841C61.1191 9.64524 61.0964 9.58216 61.1029 9.50906C61.1159 9.36291 61.1711 9.21342 61.2686 9.06058C61.3725 8.90774 61.5089 8.77156 61.6779 8.65197C61.8533 8.53238 62.0514 8.43606 62.2723 8.36295C62.4997 8.28323 62.7401 8.24336 62.9935 8.24336C63.2858 8.24336 63.5554 8.28657 63.8023 8.37292C64.0557 8.45927 64.2701 8.58555 64.4455 8.75163C64.6274 8.91771 64.7671 9.12372 64.8645 9.36953C64.9684 9.61534 65.0204 9.89773 65.0204 10.2166V13.2563C65.0204 13.3294 64.9944 13.3925 64.9425 13.4457C64.8905 13.4988 64.8287 13.5254 64.7573 13.5254H64.3968C64.3253 13.5254 64.2635 13.4988 64.2116 13.4457C64.1596 13.3925 64.1336 13.3294 64.1336 13.2563V12.8477C64.0752 12.9739 63.9842 13.0869 63.8608 13.1865C63.7373 13.2796 63.5944 13.3593 63.432 13.4257C63.2761 13.4922 63.1104 13.542 62.935 13.5752C62.7661 13.6085 62.6069 13.6251 62.4575 13.6251C62.2041 13.6251 61.9702 13.5885 61.7558 13.5154C61.5479 13.4423 61.3692 13.346 61.2199 13.2264C61.0769 13.1002 60.9632 12.9507 60.8788 12.7779C60.8008 12.6052 60.7618 12.4192 60.7618 12.2198ZM62.5549 12.768C62.7888 12.768 63.0032 12.7315 63.1981 12.6583C63.393 12.5852 63.5587 12.4856 63.6951 12.3594C63.838 12.2265 63.9452 12.0703 64.0167 11.891C64.0947 11.7116 64.1336 11.5122 64.1336 11.293V11.0438L62.9837 11.2332C62.5744 11.2996 62.2496 11.406 62.0092 11.5521C61.7688 11.6983 61.6486 11.8876 61.6486 12.1202C61.6486 12.1933 61.6649 12.2663 61.6974 12.3394C61.7298 12.4125 61.7818 12.4823 61.8533 12.5487C61.9247 12.6151 62.0157 12.6683 62.1261 12.7082C62.2431 12.748 62.386 12.768 62.5549 12.768ZM70.7006 8.34302C70.7723 8.34302 70.8342 8.36957 70.8857 8.42275C70.9379 8.47593 70.9637 8.539 70.9637 8.61211V13.2563C70.9637 13.3294 70.9379 13.3925 70.8857 13.4457C70.8342 13.4988 70.7723 13.5254 70.7006 13.5254H70.34C70.269 13.5254 70.2071 13.4988 70.1549 13.4457C70.1033 13.3925 70.0769 13.3294 70.0769 13.2563V11.3129H67.329V13.2563C67.329 13.3294 67.303 13.3925 67.251 13.4457C67.1991 13.4988 67.1374 13.5254 67.0659 13.5254H66.7053C66.6339 13.5254 66.5721 13.5021 66.5201 13.4556C66.4682 13.4025 66.4422 13.336 66.4422 13.2563V8.61211C66.4422 8.539 66.4682 8.47593 66.5201 8.42275C66.5721 8.36957 66.6339 8.34302 66.7053 8.34302H67.0659C67.1374 8.34302 67.1991 8.36957 67.251 8.42275C67.303 8.47593 67.329 8.539 67.329 8.61211V10.4558H70.0769V8.61211C70.0769 8.539 70.1033 8.47593 70.1549 8.42275C70.2071 8.36957 70.269 8.34302 70.34 8.34302H70.7006ZM76.3653 8.34302C76.437 8.34302 76.4982 8.36957 76.5504 8.42275C76.6026 8.47593 76.6284 8.539 76.6284 8.61211V8.93102C76.6284 9.00413 76.6026 9.0672 76.5504 9.12038C76.4982 9.17355 76.437 9.20011 76.3653 9.20011H74.6794V13.2563C74.6794 13.3294 74.6536 13.3925 74.6014 13.4457C74.5492 13.4988 74.4879 13.5254 74.4162 13.5254H74.0557C73.984 13.5254 73.9227 13.4988 73.8705 13.4457C73.8183 13.3925 73.7926 13.3294 73.7926 13.2563V9.20011H72.1067C72.035 9.20011 71.9737 9.17355 71.9215 9.12038C71.8693 9.0672 71.8435 9.00413 71.8435 8.93102V8.61211C71.8435 8.539 71.8693 8.47593 71.9215 8.42275C71.9737 8.36957 72.035 8.34302 72.1067 8.34302H76.3653ZM77.0732 12.2198C77.0732 11.9541 77.1254 11.7215 77.2291 11.5222C77.3335 11.3229 77.4762 11.1535 77.6579 11.0139C77.8403 10.8744 78.0512 10.7614 78.2913 10.6751C78.5384 10.5887 78.7981 10.5223 79.0709 10.4758L80.445 10.2465V10.117C80.445 9.77814 80.335 9.52564 80.1137 9.35956C79.8993 9.18679 79.6299 9.10045 79.3048 9.10045C79.0194 9.10045 78.8015 9.15362 78.6519 9.2599C78.5092 9.36618 78.386 9.49247 78.2816 9.63862C78.2426 9.69179 78.2008 9.72831 78.1549 9.74824C78.1096 9.76817 78.0477 9.77814 77.9697 9.77814H77.6774C77.6064 9.77814 77.5409 9.75159 77.4825 9.69841C77.431 9.64524 77.408 9.58216 77.4143 9.50906C77.4275 9.36291 77.4825 9.21342 77.5799 9.06058C77.6843 8.90774 77.8208 8.77156 77.9892 8.65197C78.1646 8.53238 78.363 8.43606 78.5837 8.36295C78.8113 8.28323 79.0514 8.24336 79.3048 8.24336C79.5972 8.24336 79.8672 8.28657 80.1137 8.37292C80.367 8.45927 80.5814 8.58555 80.7568 8.75163C80.9392 8.91771 81.0784 9.12372 81.1759 9.36953C81.2803 9.61534 81.3318 9.89773 81.3318 10.2166V13.2563C81.3318 13.3294 81.306 13.3925 81.2538 13.4457C81.2023 13.4988 81.1404 13.5254 81.0687 13.5254H80.7081C80.6371 13.5254 80.5751 13.4988 80.5229 13.4457C80.4714 13.3925 80.445 13.3294 80.445 13.2563V12.8477C80.3865 12.9739 80.296 13.0869 80.1721 13.1865C80.0489 13.2796 79.9062 13.3593 79.7433 13.4257C79.5874 13.4922 79.4217 13.542 79.2463 13.5752C79.0779 13.6085 78.9185 13.6251 78.7688 13.6251C78.5155 13.6251 78.2816 13.5885 78.0672 13.5154C77.8597 13.4423 77.6809 13.346 77.5312 13.2264C77.3885 13.1002 77.275 12.9507 77.1901 12.7779C77.1122 12.6052 77.0732 12.4192 77.0732 12.2198ZM78.8663 12.768C79.1002 12.768 79.3145 12.7315 79.5095 12.6583C79.7044 12.5852 79.87 12.4856 80.0065 12.3594C80.1498 12.2265 80.257 12.0703 80.328 11.891C80.406 11.7116 80.445 11.5122 80.445 11.293V11.0438L79.2951 11.2332C78.8858 11.2996 78.5614 11.406 78.3205 11.5521C78.0804 11.6983 77.96 11.8876 77.96 12.1202C77.96 12.1933 77.9767 12.2663 78.0087 12.3394C78.0414 12.4125 78.0936 12.4823 78.1646 12.5487C78.2363 12.6151 78.3275 12.6683 78.4375 12.7082C78.5544 12.748 78.6978 12.768 78.8663 12.768ZM83.1047 8.34302C83.1889 8.34302 83.2544 8.3663 83.2996 8.41278C83.3518 8.45927 83.3908 8.49913 83.4165 8.53238L84.6737 10.1469V8.61211C84.6737 8.539 84.6994 8.47593 84.7516 8.42275C84.8038 8.36957 84.8651 8.34302 84.9368 8.34302H85.2973C85.369 8.34302 85.4303 8.36957 85.4825 8.42275C85.5347 8.47593 85.5605 8.539 85.5605 8.61211V10.1469L86.8176 8.53238C86.8433 8.49913 86.8795 8.45927 86.9248 8.41278C86.977 8.3663 87.0452 8.34302 87.1294 8.34302H87.5972C87.6619 8.34302 87.7176 8.3663 87.7629 8.41278C87.8081 8.45927 87.8311 8.51245 87.8311 8.57224C87.8311 8.62542 87.8178 8.6719 87.7921 8.71177L86.1062 10.8744L87.8895 13.1566C87.9153 13.1965 87.9285 13.243 87.9285 13.2962C87.9285 13.356 87.9056 13.4091 87.8603 13.4556C87.8151 13.5021 87.7594 13.5254 87.6946 13.5254H87.2464C87.1621 13.5254 87.0939 13.5021 87.0417 13.4556C86.9965 13.4091 86.9603 13.3693 86.9345 13.336L85.5605 11.572V13.2563C85.5605 13.3294 85.5347 13.3925 85.4825 13.4457C85.4303 13.4988 85.369 13.5254 85.2973 13.5254H84.9368C84.8651 13.5254 84.8038 13.4988 84.7516 13.4457C84.6994 13.3925 84.6737 13.3294 84.6737 13.2563V11.572L83.2996 13.336C83.2738 13.3693 83.2349 13.4091 83.1827 13.4556C83.1374 13.5021 83.072 13.5254 82.9878 13.5254H82.5395C82.4748 13.5254 82.4191 13.5021 82.3738 13.4556C82.3286 13.4091 82.3056 13.356 82.3056 13.2962C82.3056 13.243 82.3188 13.1965 82.3446 13.1566L84.1279 10.8744L82.442 8.71177C82.4163 8.6719 82.4031 8.62542 82.4031 8.57224C82.4031 8.51245 82.426 8.45927 82.4713 8.41278C82.5165 8.3663 82.5722 8.34302 82.6369 8.34302H83.1047ZM92.838 13.5254C92.7663 13.5254 92.7043 13.4988 92.6528 13.4457C92.6006 13.3925 92.5748 13.3294 92.5748 13.2563V9.91767L89.739 13.4158C89.6868 13.4889 89.6151 13.5254 89.5246 13.5254H89.1933C89.1216 13.5254 89.0597 13.4988 89.0081 13.4457C88.9622 13.3925 88.9399 13.3294 88.9399 13.2563V8.61211C88.9399 8.539 88.9657 8.47593 89.0179 8.42275C89.0694 8.36957 89.1313 8.34302 89.203 8.34302H89.5636C89.6346 8.34302 89.6966 8.36957 89.7488 8.42275C89.8003 8.47593 89.8267 8.539 89.8267 8.61211V11.9806L92.6626 8.45265C92.6946 8.4194 92.7238 8.39285 92.7503 8.37292C92.7823 8.35299 92.8247 8.34302 92.8769 8.34302H93.1985C93.2695 8.34302 93.3315 8.36957 93.3837 8.42275C93.4352 8.47593 93.4616 8.539 93.4616 8.61211V13.2563C93.4616 13.3294 93.4352 13.3925 93.3837 13.4457C93.3315 13.4988 93.2695 13.5254 93.1985 13.5254H92.838ZM98.8625 8.34302C98.9342 8.34302 98.9962 8.36957 99.0477 8.42275C99.0999 8.47593 99.1256 8.539 99.1256 8.61211V8.93102C99.1256 9.00413 99.0999 9.0672 99.0477 9.12038C98.9962 9.17355 98.9342 9.20011 98.8625 9.20011H97.1766V13.2563C97.1766 13.3294 97.1509 13.3925 97.0987 13.4457C97.0471 13.4988 96.9852 13.5254 96.9135 13.5254H96.5529C96.4819 13.5254 96.42 13.4988 96.3678 13.4457C96.3163 13.3925 96.2898 13.3294 96.2898 13.2563V9.20011H94.6039C94.5329 9.20011 94.471 9.17355 94.4188 9.12038C94.3672 9.0672 94.3408 9.00413 94.3408 8.93102V8.61211C94.3408 8.539 94.3672 8.47593 94.4188 8.42275C94.471 8.36957 94.5329 8.34302 94.6039 8.34302H98.8625ZM103.906 13.5254C103.834 13.5254 103.773 13.4988 103.72 13.4457C103.668 13.3925 103.642 13.3294 103.642 13.2563V9.91767L100.807 13.4158C100.754 13.4889 100.683 13.5254 100.592 13.5254H100.261C100.189 13.5254 100.128 13.4988 100.076 13.4457C100.031 13.3925 100.008 13.3294 100.008 13.2563V8.61211C100.008 8.539 100.033 8.47593 100.086 8.42275C100.138 8.36957 100.199 8.34302 100.271 8.34302H100.631C100.703 8.34302 100.764 8.36957 100.816 8.42275C100.869 8.47593 100.894 8.539 100.894 8.61211V11.9806L103.73 8.45265C103.763 8.4194 103.792 8.39285 103.818 8.37292C103.851 8.35299 103.892 8.34302 103.945 8.34302H104.266C104.338 8.34302 104.399 8.36957 104.451 8.42275C104.504 8.47593 104.529 8.539 104.529 8.61211V13.2563C104.529 13.3294 104.504 13.3925 104.451 13.4457C104.399 13.4988 104.338 13.5254 104.266 13.5254H103.906ZM109.26 11.3428V12.6583H110.907C111.231 12.6583 111.491 12.6119 111.686 12.5188C111.881 12.4192 111.979 12.2431 111.979 11.9906C111.979 11.7381 111.884 11.5687 111.696 11.4823C111.514 11.3893 111.26 11.3428 110.936 11.3428H109.26ZM109.26 9.21007V10.4758H110.858C111.182 10.4758 111.433 10.4326 111.608 10.3462C111.784 10.2532 111.872 10.0805 111.872 9.82797C111.872 9.57547 111.774 9.40939 111.579 9.32967C111.391 9.24994 111.134 9.21007 110.809 9.21007H109.26ZM108.568 13.5254C108.516 13.5254 108.47 13.5055 108.432 13.4656C108.393 13.4257 108.373 13.3792 108.373 13.3261V8.54234C108.373 8.48917 108.393 8.44268 108.432 8.40282C108.47 8.36295 108.516 8.34302 108.568 8.34302H110.985C111.543 8.34302 111.979 8.46924 112.291 8.72173C112.602 8.97423 112.758 9.30973 112.758 9.72831C112.758 9.88115 112.739 10.014 112.7 10.127C112.667 10.2399 112.622 10.3396 112.563 10.4259C112.511 10.5123 112.449 10.5887 112.378 10.6552C112.313 10.7216 112.245 10.7814 112.174 10.8345C112.44 10.9874 112.622 11.1634 112.719 11.3628C112.817 11.5621 112.866 11.7913 112.866 12.0504C112.866 12.5288 112.703 12.8942 112.378 13.1467C112.059 13.3992 111.631 13.5254 111.092 13.5254H108.568Z" fill="white"/>
</g>
<defs>
<linearGradient id="paint0_linear_1636_2835" x1="22.9233" y1="32.8555" x2="5.30184" y2="15.2072" gradientUnits="userSpaceOnUse">
<stop stop-color="#00A0FF"/>
<stop offset="0.0066" stop-color="#00A1FF"/>
<stop offset="0.2601" stop-color="#00BEFF"/>
<stop offset="0.5122" stop-color="#00D2FF"/>
<stop offset="0.7604" stop-color="#00DFFF"/>
<stop offset="1" stop-color="#00E3FF"/>
</linearGradient>
<linearGradient id="paint1_linear_1636_2835" x1="35.5813" y1="20.998" x2="10.136" y2="20.998" gradientUnits="userSpaceOnUse">
<stop stop-color="#FFE000"/>
<stop offset="0.4087" stop-color="#FFBD00"/>
<stop offset="0.7754" stop-color="#FFA500"/>
<stop offset="1" stop-color="#FF9C00"/>
</linearGradient>
<linearGradient id="paint2_linear_1636_2835" x1="26.1087" y1="18.5893" x2="2.2125" y2="-5.34316" gradientUnits="userSpaceOnUse">
<stop stop-color="#FF3A44"/>
<stop offset="1" stop-color="#C31162"/>
</linearGradient>
<linearGradient id="paint3_linear_1636_2835" x1="7.67457" y1="41.815" x2="18.3453" y2="31.1282" gradientUnits="userSpaceOnUse">
<stop stop-color="#32A071"/>
<stop offset="0.0685" stop-color="#2DA771"/>
<stop offset="0.4762" stop-color="#15CF74"/>
<stop offset="0.8009" stop-color="#06E775"/>
<stop offset="1" stop-color="#00F076"/>
</linearGradient>
<clipPath id="clip0_1636_2835">
<rect width="142" height="42" fill="white"/>
</clipPath>
</defs>
</svg>
