<svg width="32" height="33" viewBox="0 0 32 33" fill="none" xmlns="http://www.w3.org/2000/svg">
<path d="M12 7.16667H9.33329C8.62605 7.16667 7.94777 7.44762 7.44767 7.94772C6.94758 8.44781 6.66663 9.12609 6.66663 9.83333V25.8333C6.66663 26.5406 6.94758 27.2189 7.44767 27.719C7.94777 28.219 8.62605 28.5 9.33329 28.5H22.6666C23.3739 28.5 24.0521 28.219 24.5522 27.719C25.0523 27.2189 25.3333 26.5406 25.3333 25.8333V9.83333C25.3333 9.12609 25.0523 8.44781 24.5522 7.94772C24.0521 7.44762 23.3739 7.16667 22.6666 7.16667H20M12 7.16667C12 6.45942 12.2809 5.78115 12.781 5.28105C13.2811 4.78095 13.9594 4.5 14.6666 4.5H17.3333C18.0405 4.5 18.7188 4.78095 19.2189 5.28105C19.719 5.78115 20 6.45942 20 7.16667M12 7.16667C12 7.87391 12.2809 8.55219 12.781 9.05229C13.2811 9.55238 13.9594 9.83333 14.6666 9.83333H17.3333C18.0405 9.83333 18.7188 9.55238 19.2189 9.05229C19.719 8.55219 20 7.87391 20 7.16667M12 19.1667H12.0133M12 23.1667H12.0133M16 21.8333L17.3333 23.1667L21.3333 19.1667" stroke="#FF9500" stroke-width="2" stroke-linecap="round" stroke-linejoin="round"/>
</svg>
