<svg width="32" height="32" viewBox="0 0 32 32" fill="none" xmlns="http://www.w3.org/2000/svg">
<path d="M8.23527 9.64697H6.82351C6.07467 9.64697 5.3565 9.94445 4.82699 10.474C4.29748 11.0035 4 11.7216 4 12.4705V25.1763C4 25.9251 4.29748 26.6433 4.82699 27.1728C5.3565 27.7023 6.07467 27.9998 6.82351 27.9998H19.5293C20.2782 27.9998 20.9963 27.7023 21.5258 27.1728C22.0553 26.6433 22.3528 25.9251 22.3528 25.1763V23.7645" stroke="#0D1E31" stroke-width="2" stroke-linecap="round" stroke-linejoin="round"/>
<path d="M20.9409 6.82366L25.1762 11.0589M27.1314 9.0613C27.6875 8.50528 27.9998 7.75116 27.9998 6.96484C27.9998 6.17851 27.6875 5.4244 27.1314 4.86838C26.5754 4.31237 25.8213 4 25.035 4C24.2487 4 23.4945 4.31237 22.9385 4.86838L11.0586 16.706V20.9412H15.2939L27.1314 9.0613Z" stroke="#0D1E31" stroke-width="2" stroke-linecap="round" stroke-linejoin="round"/>
</svg>
