<svg width="16" height="16" viewBox="0 0 16 16" fill="none" xmlns="http://www.w3.org/2000/svg">
<path d="M12.2427 3.09087C13.3443 4.19229 13.9743 5.67894 13.9995 7.23648C14.0248 8.79401 13.4433 10.3003 12.378 11.4369L12.2427 11.5769L9.41404 14.4049C9.05512 14.7636 8.57329 14.9724 8.06614 14.9891C7.55899 15.0058 7.06445 14.8291 6.6827 14.4949L6.5867 14.4049L3.75737 11.5762C2.63215 10.451 2 8.92484 2 7.33353C2 5.74222 2.63215 4.21609 3.75737 3.09087C4.8826 1.96564 6.40873 1.3335 8.00004 1.3335C9.59135 1.3335 11.1175 1.96564 12.2427 3.09087ZM8.00004 5.33353C7.73739 5.33353 7.47732 5.38526 7.23467 5.48577C6.99202 5.58628 6.77154 5.7336 6.58582 5.91932C6.40011 6.10504 6.25279 6.32552 6.15228 6.56817C6.05177 6.81082 6.00004 7.07089 6.00004 7.33353C6.00004 7.59618 6.05177 7.85625 6.15228 8.0989C6.25279 8.34155 6.40011 8.56203 6.58582 8.74775C6.77154 8.93346 6.99202 9.08078 7.23467 9.18129C7.47732 9.2818 7.73739 9.33353 8.00004 9.33353C8.53047 9.33353 9.03918 9.12282 9.41425 8.74775C9.78932 8.37267 10 7.86397 10 7.33353C10 6.8031 9.78932 6.29439 9.41425 5.91932C9.03918 5.54425 8.53047 5.33353 8.00004 5.33353Z" fill="#007AFF"/>
</svg>
