<svg width="172" height="49" viewBox="0 0 172 49" fill="none" xmlns="http://www.w3.org/2000/svg">
<g clip-path="url(#clip0_611_16838)">
<path d="M148.327 2.28507C154.042 2.28507 159.415 4.51995 163.456 8.57619C167.497 12.6324 169.723 18.0248 169.723 23.7614V25.241C169.723 30.9776 167.497 36.37 163.456 40.4262C159.415 44.4824 154.042 46.7173 148.327 46.7173H23.673C17.9577 46.7173 12.5854 44.4824 8.54428 40.4262C4.50313 36.37 2.27657 30.9776 2.27657 25.241V23.7614C2.27657 18.0248 4.50313 12.6324 8.54428 8.57619C12.583 4.51995 17.9577 2.28507 23.673 2.28507H148.327ZM148.327 0H23.673C10.5994 0 0 10.639 0 23.7614V25.241C0 38.361 10.5994 49 23.673 49H148.329C161.403 49 172.002 38.361 172.002 25.2386V23.759C172 10.639 161.401 0 148.327 0Z" fill="#007AFF"/>
<path d="M30.2074 33.0119C28.8834 33.6548 27.1521 33.9775 25.0184 33.9775C22.2347 33.9775 20.0438 33.1553 18.4483 31.5132C16.8528 29.8711 16.0551 27.6816 16.0551 24.9448C16.0551 22.0311 16.9504 19.6671 18.7436 17.8553C20.5368 16.0435 22.8633 15.1352 25.7233 15.1352C27.495 15.1352 28.9882 15.3599 30.205 15.8093V19.7603C28.9905 19.0313 27.607 18.668 26.0543 18.668C24.3493 18.668 22.9753 19.2058 21.9275 20.2814C20.882 21.357 20.3581 22.8151 20.3581 24.6508C20.3581 26.4124 20.8511 27.8155 21.8393 28.8624C22.8276 29.9093 24.1564 30.4304 25.8257 30.4304C27.4212 30.4304 28.881 30.0408 30.205 29.2616V33.0119H30.2074Z" fill="#007AFF"/>
<path d="M54.5186 33.6594H50.0631L48.7724 29.6056H42.3166L41.0378 33.6594H36.6085L43.2167 15.441H48.0651L54.5186 33.6594ZM47.8341 26.4552L45.8838 20.3314C45.7409 19.8749 45.6385 19.3275 45.579 18.6917H45.4766C45.4337 19.2247 45.329 19.7554 45.1599 20.2788L43.1857 26.4528H47.8341V26.4552Z" fill="#007AFF"/>
<path d="M66.0562 27.3826V33.6594H61.9674V15.4386H68.3733C72.9478 15.4386 75.2339 17.3747 75.2339 21.2445C75.2339 23.073 74.5767 24.555 73.2646 25.6856C71.9524 26.8161 70.1998 27.3826 68.0042 27.3826H66.0562ZM66.0562 18.5913V24.2705H67.6636C69.8402 24.2705 70.9285 23.3144 70.9285 21.3999C70.9285 19.5283 69.8402 18.5913 67.6636 18.5913H66.0562Z" fill="#007AFF"/>
<path d="M82.2399 32.9591V28.8933C82.9733 29.5123 83.7711 29.9761 84.6331 30.2844C85.4928 30.5927 86.362 30.7481 87.2407 30.7481C87.7551 30.7481 88.2051 30.7027 88.5885 30.6095C88.9719 30.5162 89.2934 30.3872 89.5506 30.2222C89.8078 30.0573 90.0007 29.8613 90.1269 29.6366C90.2531 29.412 90.3174 29.1681 90.3174 28.9052C90.3174 28.5491 90.215 28.2312 90.0126 27.9515C89.8102 27.6719 89.5339 27.4137 89.1839 27.1771C88.8338 26.9404 88.4171 26.711 87.936 26.4911C87.455 26.2712 86.9359 26.0465 86.3786 25.817C84.9617 25.2242 83.9044 24.5 83.2067 23.6443C82.5113 22.7886 82.1613 21.756 82.1613 20.5441C82.1613 19.5952 82.3518 18.7801 82.7304 18.0989C83.109 17.4177 83.6258 16.856 84.2807 16.4162C84.9355 15.9764 85.6928 15.6513 86.5525 15.4434C87.4121 15.2354 88.3242 15.1326 89.2863 15.1326C90.2317 15.1326 91.0699 15.19 91.7986 15.3047C92.5273 15.4195 93.2012 15.594 93.818 15.833V19.6311C93.5132 19.4183 93.1821 19.2319 92.8249 19.0718C92.4654 18.9116 92.0962 18.7778 91.7176 18.6726C91.339 18.5674 90.9603 18.4885 90.5841 18.4383C90.2078 18.3881 89.853 18.3619 89.5149 18.3619C89.0505 18.3619 88.629 18.4073 88.248 18.4957C87.8694 18.5841 87.5479 18.7108 87.2859 18.871C87.024 19.0311 86.8216 19.2247 86.6787 19.4494C86.5358 19.6741 86.4644 19.9251 86.4644 20.2047C86.4644 20.5107 86.5453 20.7832 86.7049 21.0246C86.8644 21.266 87.093 21.4955 87.3883 21.7106C87.6836 21.9257 88.0432 22.1384 88.4647 22.3464C88.8862 22.5543 89.3625 22.7671 89.8959 22.987C90.6222 23.2929 91.2723 23.6156 91.851 23.9598C92.4296 24.304 92.925 24.6912 93.3393 25.1215C93.7537 25.5541 94.068 26.0465 94.2895 26.601C94.5086 27.1556 94.6181 27.8009 94.6181 28.5395C94.6181 29.5554 94.4252 30.4087 94.0418 31.0995C93.6584 31.7902 93.1369 32.3496 92.4796 32.7774C91.8224 33.2053 91.0556 33.5112 90.1816 33.6977C89.3077 33.8841 88.3861 33.9773 87.4169 33.9773C86.4215 33.9773 85.4737 33.8937 84.576 33.724C83.6782 33.5519 82.8995 33.2985 82.2399 32.9591Z" fill="#007AFF"/>
<path d="M117.589 25.7692C117.589 31.2405 115.048 33.9773 109.968 33.9773C105.039 33.9773 102.577 31.305 102.577 25.9604V15.4386H106.677V26.0082C106.677 28.9554 107.825 30.4302 110.121 30.4302C112.373 30.4302 113.5 29.008 113.5 26.1612V15.4386H117.589V25.7692Z" fill="#007AFF"/>
<path d="M137.532 33.6594H126.723V15.4386H130.812V30.3298H137.532V33.6594Z" fill="#007AFF"/>
<path d="M156.045 33.6594H145.16V15.4386H155.628V18.7801H149.249V22.834H155.185V26.1636H149.249V30.3298H156.045V33.6594Z" fill="#007AFF"/>
<path d="M87.3907 2.15839H84.7355V9.1403H87.3907V2.15839Z" fill="#007AFF"/>
<path d="M87.3907 39.8597H84.7355V46.8416H87.3907V39.8597Z" fill="#007AFF"/>
</g>
<defs>
<clipPath id="clip0_611_16838">
<rect width="172" height="49" fill="white"/>
</clipPath>
</defs>
</svg>
