<svg width="134" height="38" viewBox="0 0 134 38" fill="none" xmlns="http://www.w3.org/2000/svg">
<path d="M115.555 1.7721C120.008 1.7721 124.193 3.50527 127.342 6.65093C130.49 9.79659 132.225 13.9784 132.225 18.4272V19.5746C132.225 24.0234 130.49 28.2053 127.342 31.3509C124.193 34.4966 120.008 36.2298 115.555 36.2298H18.4426C13.9901 36.2298 9.80479 34.4966 6.6565 31.3509C3.5082 28.2053 1.77358 24.0234 1.77358 19.5746V18.4272C1.77358 13.9784 3.5082 9.79659 6.6565 6.65093C9.80293 3.50527 13.9901 1.7721 18.4426 1.7721H115.555ZM115.555 0H18.4426C8.25754 0 0 8.25063 0 18.4272V19.5746C0 29.7494 8.25754 38 18.4426 38H115.557C125.742 38 134 29.7494 134 19.5728V18.4254C133.998 8.25063 125.741 0 115.555 0Z" fill="#007AFF"/>
<path d="M23.5333 25.6009C22.5018 26.0995 21.1531 26.3498 19.4908 26.3498C17.3221 26.3498 15.6153 25.7121 14.3723 24.4386C13.1293 23.1652 12.5078 21.4672 12.5078 19.3448C12.5078 17.0852 13.2054 15.2519 14.6024 13.8468C15.9993 12.4418 17.8119 11.7374 20.04 11.7374C21.4203 11.7374 22.5835 11.9116 23.5315 12.2601V15.3242C22.5853 14.7588 21.5075 14.4771 20.2979 14.4771C18.9695 14.4771 17.8991 14.8941 17.0828 15.7283C16.2683 16.5624 15.8602 17.6932 15.8602 19.1168C15.8602 20.4829 16.2442 21.571 17.0141 22.3829C17.784 23.1948 18.8193 23.5989 20.1198 23.5989C21.3627 23.5989 22.5 23.2968 23.5315 22.6925V25.6009H23.5333Z" fill="#007AFF"/>
<path d="M42.4732 26.1032H39.0021L37.9966 22.9594H32.9671L31.9708 26.1032H28.5202L33.6684 11.9746H37.4456L42.4732 26.1032ZM37.2656 20.5163L35.7462 15.7672C35.6349 15.4132 35.5551 14.9887 35.5087 14.4956H35.429C35.3956 14.909 35.3139 15.3205 35.1822 15.7264L33.6442 20.5144H37.2656V20.5163Z" fill="#007AFF"/>
<path d="M51.4617 21.2355V26.1032H48.2763V11.9728H53.2668C56.8307 11.9728 58.6117 13.4742 58.6117 16.4753C58.6117 17.8934 58.0996 19.0426 57.0774 19.9194C56.0552 20.7962 54.6898 21.2355 52.9792 21.2355H51.4617ZM51.4617 14.4178V18.8221H52.714C54.4096 18.8221 55.2574 18.0806 55.2574 16.5958C55.2574 15.1444 54.4096 14.4178 52.714 14.4178H51.4617Z" fill="#007AFF"/>
<path d="M64.0697 25.5601V22.407C64.6411 22.8871 65.2626 23.2467 65.9342 23.4859C66.6039 23.725 67.2811 23.8455 67.9656 23.8455C68.3664 23.8455 68.717 23.8102 69.0157 23.738C69.3144 23.6657 69.5648 23.5656 69.7652 23.4377C69.9656 23.3098 70.1158 23.1578 70.2141 22.9835C70.3125 22.8093 70.3626 22.6202 70.3626 22.4163C70.3626 22.1401 70.2828 21.8936 70.1251 21.6767C69.9674 21.4598 69.7522 21.2596 69.4795 21.0761C69.2068 20.8926 68.8821 20.7146 68.5073 20.5441C68.1326 20.3736 67.7282 20.1993 67.294 20.0214C66.1902 19.5617 65.3665 19 64.8229 18.3364C64.2812 17.6728 64.0085 16.872 64.0085 15.9322C64.0085 15.1963 64.1569 14.5642 64.4519 14.0359C64.7468 13.5076 65.1494 13.072 65.6596 12.7309C66.1698 12.3899 66.7597 12.1378 67.4295 11.9765C68.0992 11.8152 68.8098 11.7355 69.5593 11.7355C70.2958 11.7355 70.9488 11.78 71.5165 11.869C72.0842 11.958 72.6092 12.0933 73.0897 12.2786V15.2241C72.8523 15.0591 72.5944 14.9145 72.3161 14.7903C72.036 14.6661 71.7484 14.5623 71.4534 14.4808C71.1584 14.3992 70.8635 14.338 70.5704 14.2991C70.2772 14.2602 70.0008 14.2398 69.7374 14.2398C69.3756 14.2398 69.0472 14.275 68.7504 14.3436C68.4554 14.4122 68.205 14.5104 68.0009 14.6346C67.7968 14.7588 67.6391 14.909 67.5278 15.0832C67.4165 15.2575 67.3608 15.4521 67.3608 15.669C67.3608 15.9062 67.4239 16.1176 67.5482 16.3048C67.6725 16.492 67.8506 16.67 68.0807 16.8368C68.3107 17.0036 68.5908 17.1686 68.9192 17.3299C69.2476 17.4911 69.6186 17.6561 70.0342 17.8266C70.6 18.0639 71.1065 18.3141 71.5573 18.5811C72.0081 18.848 72.394 19.1483 72.7168 19.482C73.0396 19.8175 73.2845 20.1993 73.4571 20.6294C73.6277 21.0594 73.7131 21.5599 73.7131 22.1327C73.7131 22.9205 73.5628 23.5822 73.2641 24.118C72.9654 24.6537 72.5591 25.0874 72.0471 25.4192C71.5351 25.751 70.9377 25.9883 70.2568 26.1329C69.576 26.2775 68.858 26.3498 68.1029 26.3498C67.3274 26.3498 66.5891 26.2849 65.8896 26.1533C65.1902 26.0198 64.5836 25.8233 64.0697 25.5601Z" fill="#007AFF"/>
<path d="M91.6084 19.9843C91.6084 24.2273 89.6289 26.3498 85.6718 26.3498C81.8315 26.3498 79.9132 24.2774 79.9132 20.1326V11.9728H83.1079V20.1697C83.1079 22.4552 84.0021 23.5989 85.7905 23.5989C87.5455 23.5989 88.423 22.496 88.423 20.2883V11.9728H91.6084V19.9843Z" fill="#007AFF"/>
<path d="M107.146 26.1032H98.725V11.9728H101.91V23.5211H107.146V26.1032Z" fill="#007AFF"/>
<path d="M121.568 26.1032H113.088V11.9728H121.244V14.5642H116.273V17.708H120.898V20.2901H116.273V23.5211H121.568V26.1032Z" fill="#007AFF"/>
<path d="M68.0825 1.67385H66.014V7.08839H68.0825V1.67385Z" fill="#007AFF"/>
<path d="M68.0825 30.9116H66.014V36.3261H68.0825V30.9116Z" fill="#007AFF"/>
</svg>
