<svg width="1230" height="442" viewBox="0 0 1230 442" fill="none" xmlns="http://www.w3.org/2000/svg">
<path d="M5.41494 295.587C27.3998 295.968 49.3847 296.349 71.3695 296.73C73.5837 296.769 76.4145 294.976 76.7733 292.616C84.9461 238.87 93.119 185.118 101.297 131.373C102.435 123.889 103.573 116.406 104.711 108.928C101.04 108.429 97.368 107.936 93.7019 107.437C94.7726 144.428 95.8489 181.419 96.9195 218.41C98.6292 277.374 100.339 336.339 102.049 395.303C102.441 408.841 102.833 422.383 103.226 435.921C103.399 441.93 113.226 443.914 114.235 437.412C121.091 393.347 127.952 349.287 134.807 305.222C135.799 298.86 136.786 292.492 137.778 286.13C135.979 287.503 134.174 288.871 132.374 290.244C160.778 290.222 189.175 290.2 217.578 290.172C219.849 290.172 222.562 288.445 222.982 286.057C228.223 256.404 233.47 226.756 238.711 197.103C235.04 196.604 231.368 196.111 227.702 195.612C231.94 243.265 236.178 290.923 240.415 338.575C241.026 345.425 241.632 352.27 242.243 359.12C242.764 364.96 251.912 367.259 253.252 360.611C258.493 334.595 263.734 308.58 268.981 282.565C267.182 283.938 265.377 285.306 263.577 286.679C272.137 286.618 280.702 286.55 289.262 286.489C312.564 286.315 335.866 286.141 359.168 285.967C393.631 285.71 428.099 285.452 462.562 285.199C504.615 284.886 546.668 284.572 588.715 284.258C634.775 283.916 680.836 283.574 726.902 283.226C773.4 282.879 819.892 282.531 866.39 282.189C909.743 281.864 953.096 281.545 996.444 281.22C1033.08 280.945 1069.71 280.676 1106.34 280.401C1132.67 280.205 1159.02 280.009 1185.35 279.813C1197.8 279.717 1210.29 279.936 1222.74 279.532C1223.27 279.515 1223.8 279.527 1224.33 279.521C1231.54 279.465 1231.56 268.254 1224.33 268.31C1215.77 268.372 1207.21 268.439 1198.65 268.501C1175.34 268.674 1152.04 268.848 1128.74 269.022C1094.28 269.28 1059.81 269.538 1025.35 269.79C983.293 270.104 941.24 270.418 899.193 270.732C853.133 271.074 807.072 271.415 761.006 271.763C714.508 272.111 668.016 272.458 621.518 272.8C578.165 273.125 534.812 273.445 491.464 273.77C454.832 274.044 418.2 274.314 381.568 274.588C355.233 274.784 328.893 274.981 302.558 275.177C290.108 275.272 277.614 275.053 265.169 275.457C264.642 275.474 264.11 275.463 263.577 275.468C261.257 275.485 258.656 277.184 258.174 279.583C252.932 305.598 247.691 331.613 242.445 357.628C246.116 358.127 249.788 358.621 253.454 359.12C249.216 311.467 244.978 263.809 240.74 216.156C240.129 209.306 239.524 202.462 238.913 195.612C238.397 189.81 229.087 187.428 227.904 194.121C222.663 223.774 217.416 253.422 212.175 283.075C213.974 281.702 215.779 280.334 217.578 278.961C189.175 278.983 160.778 279.005 132.374 279.033C130.149 279.033 127.341 280.754 126.971 283.148C120.115 327.213 113.254 371.272 106.398 415.337C105.406 421.7 104.42 428.068 103.428 434.43C107.099 434.929 110.771 435.422 114.437 435.921C113.366 398.93 112.29 361.939 111.219 324.948C109.51 265.984 107.8 207.019 106.09 148.055C105.698 134.517 105.305 120.974 104.913 107.437C104.739 101.428 94.8903 99.4436 93.9037 105.946C85.7309 159.692 77.558 213.443 69.3796 267.189C68.2416 274.672 67.1037 282.156 65.9658 289.633C67.7652 288.26 69.5702 286.892 71.3695 285.519C49.3847 285.138 27.3998 284.757 5.41494 284.375C-1.80498 284.252 -1.80498 295.463 5.41494 295.587Z" fill="#FF9500"/>
<path d="M1174.41 242.599C1181.88 245.586 1189.36 248.58 1196.83 251.567C1200.18 252.907 1201.63 247.487 1198.32 246.164C1190.85 243.176 1183.37 240.183 1175.9 237.195C1172.55 235.855 1171.09 241.27 1174.41 242.599Z" fill="#FF9500"/>
<path d="M1197.07 217.9C1200.99 223.13 1204.92 228.366 1208.84 233.596C1210.98 236.449 1215.85 233.657 1213.68 230.765C1209.76 225.535 1205.83 220.299 1201.91 215.069C1199.77 212.216 1194.9 215.008 1197.07 217.9Z" fill="#FF9500"/>
<path d="M477.742 236.845C473.7 236.845 470.27 235.331 467.444 232.304C464.614 229.277 463.207 225.639 463.207 221.401V183.239H362.346C357.699 183.239 354.067 181.826 351.444 179.001C348.815 176.176 347.357 172.897 347.054 169.158C346.752 165.425 347.71 162.039 349.93 159.012L465.925 6.9677C467.54 4.94971 469.406 3.33532 471.531 2.11892C473.65 0.908131 476.021 0.302734 478.65 0.302734C482.888 0.302734 486.324 1.81623 488.947 4.84321C491.571 7.87019 492.882 11.6091 492.882 16.0487V155.368H511.055C515.293 155.368 518.931 156.383 521.958 158.395C524.985 160.413 526.504 164.051 526.504 169.298C526.504 173.138 524.991 176.417 521.958 179.141C518.931 181.866 515.293 183.228 511.055 183.228H492.882V221.39C492.882 225.628 491.47 229.266 488.644 232.293C485.814 235.331 482.181 236.845 477.742 236.845ZM380.519 163.85L372.341 155.368H463.201V30.5894L472.59 42.7029L380.519 163.85Z" fill="#0E3E75"/>
<path d="M626.149 236.844C610.801 236.844 597.723 232.153 586.927 222.763C576.125 213.374 567.89 199.848 562.24 182.179C556.584 164.511 553.759 143.26 553.759 118.428C553.759 93.5896 556.584 72.3447 562.24 54.676C567.89 37.013 576.119 23.4813 586.927 14.092C597.723 4.69158 610.801 -0.000244141 626.149 -0.000244141C641.491 -0.000244141 654.569 4.79808 665.37 14.3835C676.172 23.9746 684.401 37.6072 690.057 55.2702C695.707 72.9388 698.538 93.9876 698.538 118.416C698.538 142.851 695.707 163.9 690.057 181.563C684.401 199.231 676.172 212.864 665.37 222.449C654.563 232.052 641.491 236.844 626.149 236.844ZM626.149 205.347C635.431 205.347 643.111 201.563 649.165 193.99C655.224 186.417 659.765 176.075 662.792 162.947C665.819 149.824 667.332 134.981 667.332 118.428C667.332 101.875 665.819 87.0311 662.792 73.9086C659.765 60.7861 655.219 50.3878 649.165 42.7139C643.105 35.0399 635.431 31.2057 626.149 31.2057C616.86 31.2057 609.186 34.9894 603.132 42.5625C597.073 50.1356 592.532 60.4834 589.505 73.6059C586.478 86.734 584.965 101.673 584.965 118.433C584.965 135.194 586.478 150.133 589.505 163.255C592.532 176.383 597.123 186.681 603.284 194.147C609.438 201.614 617.062 205.347 626.149 205.347Z" fill="#0E3E75"/>
<path d="M850.571 236.844C846.53 236.844 843.099 235.331 840.274 232.304C837.443 229.277 836.036 225.639 836.036 221.401V183.239H735.176C730.529 183.239 726.897 181.826 724.273 179.001C721.644 176.176 720.187 172.896 719.884 169.157C719.581 165.424 720.54 162.038 722.76 159.011L838.76 6.97283C840.375 4.95484 842.241 3.34045 844.366 2.12405C846.49 0.907652 848.856 0.307861 851.485 0.307861C855.723 0.307861 859.153 1.82135 861.782 4.84834C864.406 7.87532 865.717 11.6142 865.717 16.0538V155.373H883.89C888.128 155.373 891.766 156.388 894.793 158.4C897.82 160.418 899.339 164.056 899.339 169.303C899.339 173.143 897.826 176.422 894.793 179.147C891.766 181.871 888.128 183.233 883.89 183.233H865.717V221.395C865.717 225.633 864.305 229.271 861.48 232.298C858.643 235.331 855.005 236.844 850.571 236.844ZM753.349 163.849L745.171 155.368H836.031V30.5889L845.42 42.7024L753.349 163.849Z" fill="#0E3E75"/>
</svg>
