<svg width="14" height="12" viewBox="0 0 14 12" fill="none" xmlns="http://www.w3.org/2000/svg">
<path d="M13.7617 2.26446L5.14891 10.8773C5.0739 10.9526 4.98476 11.0123 4.88661 11.0531C4.78847 11.0938 4.68324 11.1148 4.57697 11.1148C4.4707 11.1148 4.36547 11.0938 4.26732 11.0531C4.16917 11.0123 4.08004 10.9526 4.00502 10.8773L0.236908 7.10918C0.161799 7.03407 0.102219 6.94491 0.0615703 6.84677C0.0209216 6.74864 1.11921e-09 6.64346 0 6.53724C-1.11921e-09 6.43102 0.0209216 6.32584 0.0615703 6.2277C0.102219 6.12957 0.161799 6.0404 0.236908 5.96529C0.312017 5.89018 0.401184 5.8306 0.499319 5.78995C0.597453 5.7493 0.702634 5.72838 0.808854 5.72838C0.915074 5.72838 1.02025 5.7493 1.11839 5.78995C1.21652 5.8306 1.30569 5.89018 1.3808 5.96529L4.57764 9.16213L12.6192 1.12192C12.7709 0.970228 12.9766 0.88501 13.1911 0.88501C13.4057 0.88501 13.6114 0.970228 13.7631 1.12192C13.9148 1.27361 14 1.47934 14 1.69386C14 1.90838 13.9148 2.11412 13.7631 2.26581L13.7617 2.26446Z" fill="white"/>
</svg>
