<svg width="200" height="200" viewBox="0 0 200 200" fill="none" xmlns="http://www.w3.org/2000/svg">
<rect x="0.5" y="0.5" width="199" height="199" rx="11.5" fill="#007AFF" fill-opacity="0.1"/>
<rect x="0.5" y="0.5" width="199" height="199" rx="11.5" stroke="#007AFF" stroke-dasharray="4 4"/>
<path d="M114.218 59.7247C111.691 53.0166 106.257 48.7681 98.0488 48.7681C87.6052 48.7681 80.2981 56.5229 79.6701 66.6402C74.6349 68.2506 71 73.3873 71 79.2054C71 86.3276 76.5988 92.3442 83.2243 92.3442H88.4607C89.4612 92.3442 90.2732 91.5322 90.2732 90.5317C90.2732 89.5303 89.4612 88.7192 88.4607 88.7192H83.2243C78.5626 88.7192 74.5678 84.3629 74.5678 79.2054C74.5678 74.6479 77.7633 70.5362 81.7716 69.8475L83.4165 69.5638L83.2706 67.9026L83.257 67.8818C83.257 59.0531 89.0669 52.394 98.0488 52.394C105.248 52.394 109.293 55.941 111.163 61.9912L111.551 63.2391L112.857 63.2672C119.59 63.4085 125.494 68.8715 125.494 75.6584C125.494 81.8354 121.4 88.7193 115.202 88.7193H111.061C110.06 88.7193 109.248 89.5313 109.248 90.5318C109.248 91.5332 110.06 92.3443 111.061 92.3443L115.189 92.3389C124.251 92.0996 128.972 83.4423 128.972 75.6585C128.972 67.292 122.415 60.6066 114.218 59.7248L114.218 59.7247ZM101.358 74.1665C101.348 74.1557 101.345 74.1466 101.338 74.1375L100.88 73.6581C100.629 73.3926 100.294 73.2612 99.96 73.263C99.6255 73.2603 99.293 73.3926 99.0374 73.6581L98.5789 74.1375C98.5698 74.1465 98.568 74.1575 98.5599 74.1665L92.0176 81.402C91.511 81.9313 91.511 82.7877 92.0176 83.3188L92.4744 83.6286C92.981 84.1579 93.802 83.9866 94.3077 83.4574L98.1657 79.1563V97.4191C98.1657 98.4196 98.9777 99.2316 99.9782 99.2316C100.979 99.2316 101.791 98.4196 101.791 97.4191V79.1735L105.776 83.5706C106.283 84.0998 107.102 84.2712 107.608 83.7419L108.065 83.432C108.571 82.9009 108.571 82.0445 108.065 81.5153L101.358 74.1665Z" fill="#007AFF" fill-opacity="0.5"/>
<path d="M41.4791 133V123.13H49.7391V133H48.5771V124.11H42.6131V133H41.4791ZM55.2501 133.126C54.1488 133.126 53.2808 132.809 52.6461 132.174C52.0115 131.53 51.6941 130.639 51.6941 129.5C51.6941 128.763 51.8341 128.123 52.1141 127.582C52.3941 127.031 52.7861 126.607 53.2901 126.308C53.7941 126 54.3728 125.846 55.0261 125.846C55.6701 125.846 56.2115 125.981 56.6501 126.252C57.0888 126.523 57.4248 126.91 57.6581 127.414C57.8915 127.909 58.0081 128.497 58.0081 129.178V129.598H52.5621V128.884H57.2661L57.0281 129.066C57.0281 128.319 56.8601 127.736 56.5241 127.316C56.1881 126.896 55.6888 126.686 55.0261 126.686C54.3261 126.686 53.7801 126.933 53.3881 127.428C52.9961 127.913 52.8001 128.571 52.8001 129.402V129.528C52.8001 130.405 53.0148 131.073 53.4441 131.53C53.8828 131.978 54.4941 132.202 55.2781 132.202C55.6981 132.202 56.0901 132.141 56.4541 132.02C56.8275 131.889 57.1821 131.679 57.5181 131.39L57.9101 132.188C57.6021 132.487 57.2101 132.72 56.7341 132.888C56.2675 133.047 55.7728 133.126 55.2501 133.126ZM59.8801 136.024V127.596C59.8801 127.335 59.8661 127.069 59.8381 126.798C59.8194 126.518 59.7961 126.243 59.7681 125.972H60.8601L61.0141 127.638H60.8461C60.9954 127.087 61.2988 126.653 61.7561 126.336C62.2134 126.009 62.7594 125.846 63.3941 125.846C64.0288 125.846 64.5748 125.991 65.0321 126.28C65.4988 126.569 65.8628 126.985 66.1241 127.526C66.3854 128.067 66.5161 128.721 66.5161 129.486C66.5161 130.242 66.3854 130.891 66.1241 131.432C65.8721 131.973 65.5128 132.393 65.0461 132.692C64.5794 132.981 64.0288 133.126 63.3941 133.126C62.7688 133.126 62.2274 132.967 61.7701 132.65C61.3128 132.333 61.0094 131.899 60.8601 131.348H61.0141V136.024H59.8801ZM63.1701 132.202C63.8421 132.202 64.3741 131.973 64.7661 131.516C65.1674 131.049 65.3681 130.373 65.3681 129.486C65.3681 128.59 65.1674 127.913 64.7661 127.456C64.3741 126.989 63.8421 126.756 63.1701 126.756C62.5074 126.756 61.9754 126.989 61.5741 127.456C61.1821 127.913 60.9861 128.59 60.9861 129.486C60.9861 130.373 61.1821 131.049 61.5741 131.516C61.9754 131.973 62.5074 132.202 63.1701 132.202ZM71.547 133.126C70.4457 133.126 69.5777 132.809 68.943 132.174C68.3084 131.53 67.991 130.639 67.991 129.5C67.991 128.763 68.131 128.123 68.411 127.582C68.691 127.031 69.083 126.607 69.587 126.308C70.091 126 70.6697 125.846 71.323 125.846C71.967 125.846 72.5084 125.981 72.947 126.252C73.3857 126.523 73.7217 126.91 73.955 127.414C74.1884 127.909 74.305 128.497 74.305 129.178V129.598H68.859V128.884H73.563L73.325 129.066C73.325 128.319 73.157 127.736 72.821 127.316C72.485 126.896 71.9857 126.686 71.323 126.686C70.623 126.686 70.077 126.933 69.685 127.428C69.293 127.913 69.097 128.571 69.097 129.402V129.528C69.097 130.405 69.3117 131.073 69.741 131.53C70.1797 131.978 70.791 132.202 71.575 132.202C71.995 132.202 72.387 132.141 72.751 132.02C73.1244 131.889 73.479 131.679 73.815 131.39L74.207 132.188C73.899 132.487 73.507 132.72 73.031 132.888C72.5644 133.047 72.0697 133.126 71.547 133.126ZM77.619 133V126.882H75.071V125.972H81.315V126.882H78.753V133H77.619ZM81.9321 133L83.0521 131.068C83.2294 130.76 83.4534 130.513 83.7241 130.326C83.9947 130.13 84.2794 130.032 84.5781 130.032H84.7741L84.7601 130.158C83.9667 130.158 83.3507 129.981 82.9121 129.626C82.4734 129.262 82.2541 128.739 82.2541 128.058C82.2541 127.405 82.4687 126.896 82.8981 126.532C83.3274 126.159 83.9667 125.972 84.8161 125.972H87.9381V133H86.8741V130.284H85.8241C85.4321 130.284 85.1007 130.382 84.8301 130.578C84.5594 130.774 84.3307 131.021 84.1441 131.32L83.1921 133H81.9321ZM85.0121 129.486H86.8741V126.756H85.0121C84.4427 126.756 84.0181 126.877 83.7381 127.12C83.4674 127.363 83.3321 127.694 83.3321 128.114C83.3321 128.553 83.4674 128.893 83.7381 129.136C84.0181 129.369 84.4427 129.486 85.0121 129.486ZM90.1757 133V125.972H95.0757V126.882H91.3097V133H90.1757ZM96.41 133V125.972H97.544V128.912H101.408V125.972H102.542V133H101.408V129.822H97.544V133H96.41ZM104.833 133V125.972H105.967V133H104.833ZM104.693 124.376V123.102H106.093V124.376H104.693ZM109.748 133V126.882H107.2V125.972H113.444V126.882H110.882V133H109.748ZM114.621 133V125.972H115.755V128.492H117.869C118.774 128.492 119.456 128.688 119.913 129.08C120.38 129.463 120.613 130.009 120.613 130.718C120.613 131.194 120.506 131.605 120.291 131.95C120.086 132.286 119.778 132.547 119.367 132.734C118.966 132.911 118.466 133 117.869 133H114.621ZM115.755 132.188H117.771C118.34 132.188 118.774 132.071 119.073 131.838C119.372 131.595 119.521 131.227 119.521 130.732C119.521 130.237 119.372 129.878 119.073 129.654C118.784 129.421 118.35 129.304 117.771 129.304H115.755V132.188ZM122.655 134.596L122.123 134.19C122.375 133.929 122.538 133.681 122.613 133.448C122.697 133.224 122.739 132.995 122.739 132.762L122.991 133H122.067V131.572H123.495V132.58C123.495 132.953 123.434 133.303 123.313 133.63C123.191 133.966 122.972 134.288 122.655 134.596ZM138.479 134.82V133H129.141V125.972H130.219V132.104H133.201V125.972H134.265V132.104H137.247V125.972H138.339V132.104H139.445V134.82H138.479ZM143.879 133.126C143.207 133.126 142.619 132.981 142.115 132.692C141.621 132.393 141.238 131.973 140.967 131.432C140.697 130.881 140.561 130.233 140.561 129.486C140.561 128.73 140.697 128.081 140.967 127.54C141.238 126.999 141.621 126.583 142.115 126.294C142.619 125.995 143.207 125.846 143.879 125.846C144.561 125.846 145.149 125.995 145.643 126.294C146.147 126.583 146.535 126.999 146.805 127.54C147.085 128.081 147.225 128.73 147.225 129.486C147.225 130.233 147.085 130.881 146.805 131.432C146.535 131.973 146.147 132.393 145.643 132.692C145.149 132.981 144.561 133.126 143.879 133.126ZM143.879 132.202C144.551 132.202 145.083 131.973 145.475 131.516C145.867 131.049 146.063 130.373 146.063 129.486C146.063 128.59 145.863 127.913 145.461 127.456C145.069 126.989 144.542 126.756 143.879 126.756C143.217 126.756 142.689 126.989 142.297 127.456C141.905 127.913 141.709 128.59 141.709 129.486C141.709 130.373 141.905 131.049 142.297 131.516C142.689 131.973 143.217 132.202 143.879 132.202ZM152.056 133.126C151.029 133.126 150.213 132.795 149.606 132.132C148.999 131.469 148.696 130.503 148.696 129.234V128.002C148.696 126.705 148.962 125.655 149.494 124.852C150.026 124.049 150.866 123.508 152.014 123.228L154.576 122.584L154.926 123.508L152.084 124.208C151.561 124.339 151.132 124.567 150.796 124.894C150.46 125.211 150.203 125.594 150.026 126.042C149.858 126.481 149.774 126.947 149.774 127.442V128.002H149.606C149.718 127.582 149.9 127.223 150.152 126.924C150.404 126.616 150.712 126.383 151.076 126.224C151.449 126.056 151.86 125.972 152.308 125.972C152.915 125.972 153.447 126.117 153.904 126.406C154.361 126.686 154.716 127.092 154.968 127.624C155.229 128.147 155.36 128.777 155.36 129.514C155.36 130.251 155.225 130.891 154.954 131.432C154.683 131.973 154.301 132.393 153.806 132.692C153.311 132.981 152.728 133.126 152.056 133.126ZM152.028 132.216C152.709 132.216 153.246 131.992 153.638 131.544C154.03 131.087 154.226 130.419 154.226 129.542C154.226 128.674 154.025 128.016 153.624 127.568C153.232 127.111 152.7 126.882 152.028 126.882C151.356 126.882 150.819 127.106 150.418 127.554C150.026 128.002 149.83 128.637 149.83 129.458C149.83 130.373 150.026 131.063 150.418 131.53C150.81 131.987 151.347 132.216 152.028 132.216ZM58.6344 151.126C58.0371 151.126 57.4724 151.047 56.9404 150.888C56.4178 150.72 55.9884 150.491 55.6524 150.202L56.0444 149.404C56.3898 149.684 56.7771 149.899 57.2064 150.048C57.6451 150.188 58.1211 150.258 58.6344 150.258C59.3251 150.258 59.8244 150.151 60.1324 149.936C60.4404 149.721 60.5944 149.418 60.5944 149.026C60.5944 148.643 60.4638 148.354 60.2024 148.158C59.9411 147.953 59.5584 147.85 59.0544 147.85H57.4024V147.01H58.9144C59.3624 147.01 59.7124 146.912 59.9644 146.716C60.2258 146.511 60.3564 146.231 60.3564 145.876C60.3564 145.512 60.2164 145.227 59.9364 145.022C59.6564 144.807 59.2178 144.7 58.6204 144.7C58.1444 144.7 57.7011 144.765 57.2904 144.896C56.8891 145.017 56.5064 145.213 56.1424 145.484L55.7644 144.714C56.1471 144.415 56.5904 144.196 57.0944 144.056C57.5984 143.916 58.1444 143.846 58.7324 143.846C59.6098 143.846 60.2771 144.019 60.7344 144.364C61.1918 144.7 61.4204 145.181 61.4204 145.806C61.4204 146.245 61.2711 146.623 60.9724 146.94C60.6738 147.248 60.2771 147.43 59.7824 147.486V147.318C60.3424 147.337 60.7951 147.505 61.1404 147.822C61.4858 148.139 61.6584 148.555 61.6584 149.068C61.6584 149.693 61.4018 150.193 60.8884 150.566C60.3844 150.939 59.6331 151.126 58.6344 151.126ZM66.1498 151.126C65.5245 151.126 64.9785 150.981 64.5118 150.692C64.0451 150.393 63.6811 149.973 63.4198 149.432C63.1678 148.891 63.0418 148.242 63.0418 147.486C63.0418 146.721 63.1678 146.067 63.4198 145.526C63.6811 144.985 64.0451 144.569 64.5118 144.28C64.9785 143.991 65.5245 143.846 66.1498 143.846C66.7845 143.846 67.3305 144.009 67.7878 144.336C68.2545 144.653 68.5625 145.087 68.7118 145.638H68.5438L68.6978 143.972H69.7898C69.7618 144.243 69.7338 144.518 69.7058 144.798C69.6871 145.069 69.6778 145.335 69.6778 145.596V151H68.5438V149.348H68.6978C68.5485 149.899 68.2405 150.333 67.7738 150.65C67.3071 150.967 66.7658 151.126 66.1498 151.126ZM66.3738 150.202C67.0458 150.202 67.5778 149.973 67.9698 149.516C68.3618 149.049 68.5578 148.373 68.5578 147.486C68.5578 146.59 68.3618 145.913 67.9698 145.456C67.5778 144.989 67.0458 144.756 66.3738 144.756C65.7111 144.756 65.1791 144.989 64.7778 145.456C64.3858 145.913 64.1898 146.59 64.1898 147.486C64.1898 148.373 64.3858 149.049 64.7778 149.516C65.1791 149.973 65.7111 150.202 66.3738 150.202ZM71.9647 151V143.972H75.3527C76.1647 143.972 76.7714 144.131 77.1727 144.448C77.5834 144.756 77.7887 145.213 77.7887 145.82C77.7887 146.268 77.6301 146.646 77.3127 146.954C77.0047 147.253 76.6034 147.43 76.1087 147.486V147.318C76.6874 147.337 77.1494 147.505 77.4947 147.822C77.8401 148.139 78.0127 148.55 78.0127 149.054C78.0127 149.661 77.7887 150.137 77.3407 150.482C76.9021 150.827 76.2767 151 75.4647 151H71.9647ZM73.0427 150.23H75.4087C75.9034 150.23 76.2814 150.127 76.5427 149.922C76.8134 149.707 76.9487 149.404 76.9487 149.012C76.9487 148.62 76.8134 148.321 76.5427 148.116C76.2814 147.911 75.9034 147.808 75.4087 147.808H73.0427V150.23ZM73.0427 147.038H75.2827C75.7401 147.038 76.0947 146.935 76.3467 146.73C76.5987 146.525 76.7247 146.24 76.7247 145.876C76.7247 145.512 76.5987 145.232 76.3467 145.036C76.0947 144.831 75.7401 144.728 75.2827 144.728H73.0427V147.038ZM82.5014 151.126C81.876 151.126 81.33 150.981 80.8634 150.692C80.3967 150.393 80.0327 149.973 79.7714 149.432C79.5194 148.891 79.3934 148.242 79.3934 147.486C79.3934 146.721 79.5194 146.067 79.7714 145.526C80.0327 144.985 80.3967 144.569 80.8634 144.28C81.33 143.991 81.876 143.846 82.5014 143.846C83.136 143.846 83.682 144.009 84.1394 144.336C84.606 144.653 84.914 145.087 85.0634 145.638H84.8954L85.0494 143.972H86.1414C86.1134 144.243 86.0854 144.518 86.0574 144.798C86.0387 145.069 86.0294 145.335 86.0294 145.596V151H84.8954V149.348H85.0494C84.9 149.899 84.592 150.333 84.1254 150.65C83.6587 150.967 83.1174 151.126 82.5014 151.126ZM82.7254 150.202C83.3974 150.202 83.9294 149.973 84.3214 149.516C84.7134 149.049 84.9094 148.373 84.9094 147.486C84.9094 146.59 84.7134 145.913 84.3214 145.456C83.9294 144.989 83.3974 144.756 82.7254 144.756C82.0627 144.756 81.5307 144.989 81.1294 145.456C80.7374 145.913 80.5414 146.59 80.5414 147.486C80.5414 148.373 80.7374 149.049 81.1294 149.516C81.5307 149.973 82.0627 150.202 82.7254 150.202ZM88.3163 151V143.972H89.4503V146.912H93.3143V143.972H94.4483V151H93.3143V147.822H89.4503V151H88.3163ZM98.1815 151V144.882H95.6335V143.972H101.877V144.882H99.3155V151H98.1815ZM105.785 151.126C105.159 151.126 104.613 150.981 104.147 150.692C103.68 150.393 103.316 149.973 103.055 149.432C102.803 148.891 102.677 148.242 102.677 147.486C102.677 146.721 102.803 146.067 103.055 145.526C103.316 144.985 103.68 144.569 104.147 144.28C104.613 143.991 105.159 143.846 105.785 143.846C106.419 143.846 106.965 144.009 107.423 144.336C107.889 144.653 108.197 145.087 108.347 145.638H108.179L108.333 143.972H109.425C109.397 144.243 109.369 144.518 109.341 144.798C109.322 145.069 109.313 145.335 109.313 145.596V151H108.179V149.348H108.333C108.183 149.899 107.875 150.333 107.409 150.65C106.942 150.967 106.401 151.126 105.785 151.126ZM106.009 150.202C106.681 150.202 107.213 149.973 107.605 149.516C107.997 149.049 108.193 148.373 108.193 147.486C108.193 146.59 107.997 145.913 107.605 145.456C107.213 144.989 106.681 144.756 106.009 144.756C105.346 144.756 104.814 144.989 104.413 145.456C104.021 145.913 103.825 146.59 103.825 147.486C103.825 148.373 104.021 149.049 104.413 149.516C104.814 149.973 105.346 150.202 106.009 150.202ZM110.493 151L111.949 148.536C112.173 148.172 112.374 147.887 112.551 147.682C112.729 147.477 112.915 147.323 113.111 147.22C113.317 147.117 113.55 147.052 113.811 147.024L113.531 147.374L110.857 143.972H112.103L114.441 146.926H115.575V143.972H116.709V146.926H117.829L120.153 143.972H121.413L118.725 147.374L118.431 147.024C118.702 147.052 118.935 147.117 119.131 147.22C119.337 147.323 119.533 147.477 119.719 147.682C119.906 147.887 120.107 148.172 120.321 148.536L121.763 151H120.545L119.257 148.816C119.099 148.545 118.945 148.34 118.795 148.2C118.655 148.06 118.497 147.962 118.319 147.906C118.142 147.85 117.918 147.822 117.647 147.822H116.709V151H115.575V147.822H114.623C114.353 147.822 114.129 147.85 113.951 147.906C113.774 147.962 113.611 148.06 113.461 148.2C113.321 148.34 113.172 148.545 113.013 148.816L111.725 151H110.493ZM122.906 151V143.972H123.942V149.95H123.564L128.044 143.972H128.996V151H127.974V145.008H128.352L123.872 151H122.906ZM132.73 151V144.882H130.182V143.972H136.426V144.882H133.864V151H132.73ZM137.603 151V143.972H138.639V149.95H138.261L142.741 143.972H143.693V151H142.671V145.008H143.049L138.569 151H137.603Z" fill="#007AFF" fill-opacity="0.5"/>
</svg>
