<svg width="16" height="16" viewBox="0 0 16 16" fill="none" xmlns="http://www.w3.org/2000/svg">
<path fill-rule="evenodd" clip-rule="evenodd" d="M0 1.26728C0 0.931178 0.140476 0.60884 0.390524 0.371178C0.640573 0.133517 0.979711 0 1.33333 0H14.6667C15.0203 0 15.3594 0.133517 15.6095 0.371178C15.8595 0.60884 16 0.931178 16 1.26728V3.02965C15.9999 3.47775 15.8125 3.90747 15.4791 4.22427L10.6667 8.79832V15.0705C10.6667 15.229 10.6241 15.3848 10.5429 15.5231C10.4618 15.6615 10.3448 15.7779 10.203 15.8612C10.0612 15.9445 9.89934 15.9919 9.73283 15.9991C9.56631 16.0062 9.40064 15.9727 9.25156 15.9019L5.94756 14.3321C5.763 14.2444 5.60778 14.1096 5.49929 13.9428C5.39081 13.7759 5.33334 13.5837 5.33333 13.3876V8.79832L0.520889 4.22427C0.187468 3.90747 0.000100689 3.47775 0 3.02965V1.26728ZM1.77778 1.68971V3.02965L6.72 7.72704C6.84395 7.84471 6.94229 7.98444 7.0094 8.13825C7.07651 8.29206 7.11107 8.45692 7.11111 8.62343V12.9956L8.88889 13.8404V8.62343C8.88889 8.28718 9.02933 7.96445 9.28 7.72789L14.2222 3.0288V1.68971H1.77778Z" fill="#0D1E31"/>
</svg>
