<svg width="18" height="18" viewBox="0 0 18 18" fill="none" xmlns="http://www.w3.org/2000/svg">
<path d="M4.42857 4.42857H5.57143M5.57143 4.42857C5.57143 4.73168 5.69184 5.02237 5.90616 5.23669C6.12049 5.45102 6.41118 5.57143 6.71429 5.57143C6.86437 5.57143 7.01298 5.54187 7.15164 5.48443C7.2903 5.427 7.41628 5.34282 7.52241 5.23669C7.62853 5.13057 7.71271 5.00458 7.77015 4.86592C7.82758 4.72727 7.85714 4.57865 7.85714 4.42857M5.57143 4.42857C5.57143 4.12547 5.69184 3.83478 5.90616 3.62045C6.12049 3.40612 6.41118 3.28571 6.71429 3.28571C6.86437 3.28571 7.01298 3.31528 7.15164 3.37271C7.2903 3.43014 7.41628 3.51433 7.52241 3.62045C7.62853 3.72657 7.71271 3.85256 7.77015 3.99122C7.82758 4.12988 7.85714 4.27849 7.85714 4.42857M7.85714 4.42857H13.5714M13.5714 9H12.4286M12.4286 9C12.4286 9.3031 12.3082 9.59379 12.0938 9.80812C11.8795 10.0224 11.5888 10.1429 11.2857 10.1429C10.9826 10.1429 10.6919 10.0224 10.4776 9.80812C10.2633 9.59379 10.1429 9.3031 10.1429 9M12.4286 9C12.4286 8.6969 12.3082 8.40621 12.0938 8.19188C11.8795 7.97755 11.5888 7.85714 11.2857 7.85714C10.9826 7.85714 10.6919 7.97755 10.4776 8.19188C10.2633 8.40621 10.1429 8.6969 10.1429 9M10.1429 9H4.42857M4.42857 13.5714H5.57143M5.57143 13.5714C5.57143 13.8745 5.69184 14.1652 5.90616 14.3796C6.12049 14.5939 6.41118 14.7143 6.71429 14.7143C6.86437 14.7143 7.01298 14.6847 7.15164 14.6273C7.2903 14.5699 7.41628 14.4857 7.52241 14.3796C7.62853 14.2734 7.71271 14.1474 7.77015 14.0088C7.82758 13.8701 7.85714 13.7215 7.85714 13.5714M5.57143 13.5714C5.57143 13.2683 5.69184 12.9776 5.90616 12.7633C6.12049 12.549 6.41118 12.4286 6.71429 12.4286C6.86437 12.4286 7.01298 12.4581 7.15164 12.5156C7.2903 12.573 7.41628 12.6572 7.52241 12.7633C7.62853 12.8694 7.71271 12.9954 7.77015 13.1341C7.82758 13.2727 7.85714 13.4213 7.85714 13.5714M7.85714 13.5714H13.5714M3.28571 1H14.7143C15.9806 1 17 2.01943 17 3.28571V14.7143C17 15.9806 15.9806 17 14.7143 17H3.28571C2.01943 17 1 15.9806 1 14.7143V3.28571C1 2.01943 2.01943 1 3.28571 1Z" stroke="#0D1E31" stroke-width="1.2" stroke-linecap="round" stroke-linejoin="round"/>
</svg>
