<svg width="30" height="29" viewBox="0 0 30 29" fill="none" xmlns="http://www.w3.org/2000/svg">
<path d="M14.9776 1.00026C16.8507 0.99751 18.7053 1.35733 20.4316 2.05841C22.1579 2.75949 23.7209 3.78758 25.0279 5.0818C26.3109 6.35225 27.3219 7.85402 28.0032 9.50137C28.6846 11.1487 29.0229 12.9094 28.9988 14.6829C28.9747 16.4563 28.5888 18.2079 27.863 19.8375C27.1372 21.4671 26.0858 22.9428 24.7687 24.1804C22.5263 26.2824 19.6189 27.5998 16.5101 27.9226C13.4012 28.2455 10.2698 27.5552 7.61492 25.9618L7.74726 26.0857L2.2536 27.9846L4.37125 23.2941C2.05513 20.6878 0.854733 17.3287 1.01405 13.8993C1.17337 10.4699 2.68044 7.22779 5.22894 4.83184C7.83808 2.38003 11.3351 1.00558 14.9776 1.00026Z" stroke="#0E3E75" stroke-width="2" stroke-linecap="round" stroke-linejoin="round"/>
<path fill-rule="evenodd" clip-rule="evenodd" d="M15.6768 17.7941C15.5824 18.2558 15.1167 18.5678 14.6201 18.4953C14.1118 18.421 13.7636 17.9721 13.8423 17.4926C13.9013 17.133 14.1302 16.7638 14.3509 16.4747C14.5977 16.1512 14.9337 15.8004 15.3446 15.4699L15.3446 15.4699L15.3486 15.4667C16.4673 14.5771 17.072 13.9398 17.4082 13.4565C17.7135 13.0176 17.8072 12.6925 17.8493 12.3752C17.871 11.2015 17.4561 10.5188 16.9586 10.133C16.4309 9.72379 15.6795 9.54778 14.8836 9.6339C14.086 9.72019 13.3424 10.0608 12.8652 10.5577C12.4116 11.0302 12.1687 11.6687 12.3644 12.4938C12.4767 12.9673 12.1609 13.4371 11.659 13.5431C11.1571 13.649 10.6592 13.3511 10.5469 12.8776C10.2139 11.4736 10.641 10.257 11.4849 9.37805C12.3054 8.52352 13.4871 8.01636 14.6714 7.88822C15.8574 7.7599 17.1447 8.00281 18.1412 8.77557C19.1625 9.56749 19.7538 10.8188 19.7102 12.4587C19.7095 12.4846 19.7076 12.5104 19.7045 12.5362C19.6356 13.1068 19.4604 13.7088 18.9653 14.4205C18.4894 15.1048 17.7338 15.8678 16.5509 16.8086C16.2506 17.0504 16.0181 17.2972 15.8622 17.5014C15.7841 17.6039 15.7314 17.6874 15.6999 17.7465C15.6873 17.7701 15.6803 17.7858 15.6768 17.7941Z" fill="#0E3E75"/>
<path d="M14.5879 21.1063C15.069 21.1063 15.459 20.7384 15.459 20.2845C15.459 19.8306 15.069 19.4626 14.5879 19.4626C14.1068 19.4626 13.7168 19.8306 13.7168 20.2845C13.7168 20.7384 14.1068 21.1063 14.5879 21.1063Z" fill="#0E3E75"/>
</svg>
