<svg width="20" height="6" viewBox="0 0 20 6" fill="none" xmlns="http://www.w3.org/2000/svg">
<path d="M2.99984 5.33341C2.35817 5.33341 1.80886 5.10494 1.35192 4.648C0.894976 4.19105 0.666504 3.64175 0.666504 3.00008C0.666504 2.35841 0.894976 1.80911 1.35192 1.35216C1.80886 0.89522 2.35817 0.666748 2.99984 0.666748C3.6415 0.666748 4.19081 0.89522 4.64775 1.35216C5.1047 1.80911 5.33317 2.35841 5.33317 3.00008C5.33317 3.64175 5.1047 4.19105 4.64775 4.648C4.19081 5.10494 3.6415 5.33341 2.99984 5.33341ZM9.99984 5.33341C9.35817 5.33341 8.80886 5.10494 8.35192 4.648C7.89498 4.19105 7.6665 3.64175 7.6665 3.00008C7.6665 2.35841 7.89498 1.80911 8.35192 1.35216C8.80886 0.89522 9.35817 0.666748 9.99984 0.666748C10.6415 0.666748 11.1908 0.89522 11.6478 1.35216C12.1047 1.80911 12.3332 2.35841 12.3332 3.00008C12.3332 3.64175 12.1047 4.19105 11.6478 4.648C11.1908 5.10494 10.6415 5.33341 9.99984 5.33341ZM16.9998 5.33341C16.3582 5.33341 15.8089 5.10494 15.3519 4.648C14.895 4.19105 14.6665 3.64175 14.6665 3.00008C14.6665 2.35841 14.895 1.80911 15.3519 1.35216C15.8089 0.89522 16.3582 0.666748 16.9998 0.666748C17.6415 0.666748 18.1908 0.89522 18.6478 1.35216C19.1047 1.80911 19.3332 2.35841 19.3332 3.00008C19.3332 3.64175 19.1047 4.19105 18.6478 4.648C18.1908 5.10494 17.6415 5.33341 16.9998 5.33341Z" fill="#FF9500"/>
</svg>
