<svg width="32" height="32" viewBox="0 0 32 32" fill="none" xmlns="http://www.w3.org/2000/svg">
<rect width="32" height="32" rx="4" fill="#007AFF" fill-opacity="0.15"/>
<path d="M23.9118 22L27 25M6 7H25.7647M6 14.2H10.9412M6 21.4H10.9412M14.6471 17.8C14.6471 19.073 15.1676 20.2939 16.0943 21.1941C17.0209 22.0943 18.2778 22.6 19.5882 22.6C20.8987 22.6 22.1555 22.0943 23.0822 21.1941C24.0088 20.2939 24.5294 19.073 24.5294 17.8C24.5294 16.527 24.0088 15.3061 23.0822 14.4059C22.1555 13.5057 20.8987 13 19.5882 13C18.2778 13 17.0209 13.5057 16.0943 14.4059C15.1676 15.3061 14.6471 16.527 14.6471 17.8Z" stroke="#007AFF" stroke-width="2" stroke-linecap="round" stroke-linejoin="round"/>
</svg>
