<svg width="32" height="32" viewBox="0 0 32 32" fill="none" xmlns="http://www.w3.org/2000/svg">
<rect width="32" height="32" rx="4" fill="#007AFF" fill-opacity="0.15"/>
<path d="M16.0003 12.8467V16.5401M16.0003 19.3101H16.0093M14.5268 7.85245L7.23087 20.3491C7.08046 20.6163 7.00087 20.9192 7.00001 21.2278C6.99915 21.5363 7.07705 21.8397 7.22596 22.1078C7.37487 22.3759 7.5896 22.5993 7.8488 22.7558C8.108 22.9124 8.40263 22.9965 8.70338 23H23.2971C23.5978 22.9964 23.8922 22.9122 24.1513 22.7558C24.4104 22.5993 24.625 22.376 24.7739 22.108C24.9228 21.8401 25.0007 21.5368 25 21.2284C24.9992 20.92 24.9198 20.6172 24.7697 20.35L17.4737 7.85153C17.3202 7.59161 17.1039 7.37669 16.8458 7.22753C16.5877 7.07837 16.2965 7 16.0003 7C15.704 7 15.4128 7.07837 15.1547 7.22753C14.8966 7.37669 14.6803 7.59161 14.5268 7.85153V7.85245Z" stroke="#007AFF" stroke-width="2" stroke-linecap="round" stroke-linejoin="round"/>
</svg>
