<svg width="32" height="32" viewBox="0 0 32 32" fill="none" xmlns="http://www.w3.org/2000/svg">
<rect width="32" height="32" rx="4" fill="#007AFF" fill-opacity="0.15"/>
<path d="M11.5 11.5V9.25C11.5 8.65326 11.7371 8.08097 12.159 7.65901C12.581 7.23705 13.1533 7 13.75 7H18.25C18.8467 7 19.419 7.23705 19.841 7.65901C20.2629 8.08097 20.5 8.65326 20.5 9.25V11.5M13.75 18.25H18.25M16 16V20.5M7 13.75C7 13.1533 7.23705 12.581 7.65901 12.159C8.08097 11.7371 8.65326 11.5 9.25 11.5H22.75C23.3467 11.5 23.919 11.7371 24.341 12.159C24.7629 12.581 25 13.1533 25 13.75V22.75C25 23.3467 24.7629 23.919 24.341 24.341C23.919 24.7629 23.3467 25 22.75 25H9.25C8.65326 25 8.08097 24.7629 7.65901 24.341C7.23705 23.919 7 23.3467 7 22.75V13.75Z" stroke="#007AFF" stroke-width="2" stroke-linecap="round" stroke-linejoin="round"/>
</svg>
