<svg width="32" height="33" viewBox="0 0 32 33" fill="none" xmlns="http://www.w3.org/2000/svg">
<path d="M8.66667 10.5C8.66667 10.8536 8.80714 11.1928 9.05719 11.4428C9.30724 11.6929 9.64638 11.8333 10 11.8333C10.3536 11.8333 10.6928 11.6929 10.9428 11.4428C11.1929 11.1928 11.3333 10.8536 11.3333 10.5C11.3333 10.1464 11.1929 9.80724 10.9428 9.55719C10.6928 9.30714 10.3536 9.16667 10 9.16667C9.64638 9.16667 9.30724 9.30714 9.05719 9.55719C8.80714 9.80724 8.66667 10.1464 8.66667 10.5Z" stroke="#FF9500" stroke-width="2" stroke-linecap="round" stroke-linejoin="round"/>
<path d="M4 8.5V15.396C4.00015 16.1032 4.2812 16.7814 4.78133 17.2813L15.0613 27.5613C15.6639 28.1638 16.4812 28.5023 17.3333 28.5023C18.1855 28.5023 19.0027 28.1638 19.6053 27.5613L27.0613 20.1053C27.6638 19.5027 28.0023 18.6855 28.0023 17.8333C28.0023 16.9812 27.6638 16.1639 27.0613 15.5613L16.7813 5.28133C16.2814 4.7812 15.6032 4.50015 14.896 4.5H8C6.93913 4.5 5.92172 4.92143 5.17157 5.67157C4.42143 6.42172 4 7.43913 4 8.5Z" stroke="#FF9500" stroke-width="2" stroke-linecap="round" stroke-linejoin="round"/>
</svg>
