<svg width="20" height="6" viewBox="0 0 20 6" fill="none" xmlns="http://www.w3.org/2000/svg">
<path d="M3.00008 5.33366C2.35841 5.33366 1.80911 5.10519 1.35216 4.64824C0.89522 4.1913 0.666748 3.64199 0.666748 3.00033C0.666748 2.35866 0.89522 1.80935 1.35216 1.35241C1.80911 0.895464 2.35841 0.666992 3.00008 0.666992C3.64175 0.666992 4.19105 0.895464 4.648 1.35241C5.10494 1.80935 5.33341 2.35866 5.33341 3.00033C5.33341 3.64199 5.10494 4.1913 4.648 4.64824C4.19105 5.10519 3.64175 5.33366 3.00008 5.33366ZM10.0001 5.33366C9.35841 5.33366 8.80911 5.10519 8.35216 4.64824C7.89522 4.1913 7.66675 3.64199 7.66675 3.00033C7.66675 2.35866 7.89522 1.80935 8.35216 1.35241C8.80911 0.895464 9.35841 0.666992 10.0001 0.666992C10.6417 0.666992 11.1911 0.895464 11.648 1.35241C12.1049 1.80935 12.3334 2.35866 12.3334 3.00033C12.3334 3.64199 12.1049 4.1913 11.648 4.64824C11.1911 5.10519 10.6417 5.33366 10.0001 5.33366ZM17.0001 5.33366C16.3584 5.33366 15.8091 5.10519 15.3522 4.64824C14.8952 4.1913 14.6667 3.64199 14.6667 3.00033C14.6667 2.35866 14.8952 1.80935 15.3522 1.35241C15.8091 0.895464 16.3584 0.666992 17.0001 0.666992C17.6417 0.666992 18.1911 0.895464 18.648 1.35241C19.1049 1.80935 19.3334 2.35866 19.3334 3.00033C19.3334 3.64199 19.1049 4.1913 18.648 4.64824C18.1911 5.10519 17.6417 5.33366 17.0001 5.33366Z" fill="#FF9500"/>
</svg>
